<?xml version="1.0" standalone="no"?>
<!DOCTYPE svg PUBLIC "-//W3C//DTD SVG 20010904//EN"
 "http://www.w3.org/TR/2001/REC-SVG-20010904/DTD/svg10.dtd">
<svg version="1.0" xmlns="http://www.w3.org/2000/svg"
 width="96.000000pt" height="123.000000pt" viewBox="0 0 96.000000 123.000000"
 preserveAspectRatio="xMidYMid meet">

<g transform="translate(0.000000,123.000000) scale(0.100000,-0.100000)"
fill="#000000" stroke="none">
<path d="M482 1172 c-29 -67 -46 -174 -39 -248 l6 -63 -52 27 c-94 49 -229 31
-294 -40 -65 -70 -99 -199 -90 -341 7 -115 27 -191 74 -287 87 -179 251 -264
358 -186 17 12 22 12 44 -3 41 -27 137 -22 191 11 100 59 188 178 237 322 25
73 28 94 28 216 0 120 -3 141 -23 185 -24 52 -63 99 -97 118 -71 38 -194 37
-262 -3 -18 -10 -33 -15 -33 -11 0 5 21 21 47 36 102 61 223 216 223 288 l0
28 -32 -17 c-60 -30 -136 -93 -169 -140 l-34 -46 -10 74 c-8 61 -34 128 -49
128 -2 0 -13 -21 -24 -48z"/>
</g>
</svg>
