<?xml version="1.0" standalone="no"?>
<!DOCTYPE svg PUBLIC "-//W3C//DTD SVG 20010904//EN"
 "http://www.w3.org/TR/2001/REC-SVG-20010904/DTD/svg10.dtd">
<svg version="1.0" xmlns="http://www.w3.org/2000/svg"
 width="94.000000pt" height="110.000000pt" viewBox="0 0 94.000000 110.000000"
 preserveAspectRatio="xMidYMid meet">

<g transform="translate(0.000000,110.000000) scale(0.100000,-0.100000)"
fill="#000000" stroke="none">
<path d="M642 1059 l4 -37 -54 -5 c-101 -11 -180 -82 -198 -181 l-7 -39 -12
30 c-28 66 -123 109 -187 84 -26 -10 -28 -8 -36 22 -8 30 -9 31 -16 9 -6 -19
-12 -22 -36 -17 -27 6 -29 4 -32 -31 -3 -33 -7 -39 -35 -46 l-32 -8 19 -33
c14 -22 20 -50 20 -92 0 -103 62 -175 150 -175 l35 0 -33 -26 c-88 -70 -115
-201 -59 -296 15 -26 41 -57 58 -69 l30 -21 -27 -29 -28 -29 42 0 c40 0 42 -1
42 -30 0 -17 3 -30 7 -30 3 0 26 12 51 26 l44 26 33 -32 34 -33 24 55 c19 43
34 60 70 82 49 28 89 73 107 120 11 29 11 29 25 9 17 -25 74 -53 107 -53 13 0
41 9 63 21 37 20 39 20 52 3 12 -17 13 -17 13 3 0 12 8 23 20 26 18 5 19 9 10
33 -10 24 -8 30 10 44 l21 16 -26 14 c-14 8 -34 33 -45 57 -43 97 -166 111
-225 26 l-24 -36 -14 35 c-30 71 -134 128 -234 128 l-42 0 24 35 c13 20 29 52
36 72 l11 35 18 -39 c37 -84 126 -143 225 -150 51 -4 68 -1 115 24 78 40 115
102 115 192 0 41 -7 79 -18 101 -15 31 -15 41 -3 87 l14 52 -45 3 c-43 3 -46
5 -61 43 -20 52 -19 51 -40 32 -24 -22 -31 -21 -60 6 l-24 22 4 -36z"/>
</g>
</svg>
