<?xml version="1.0" standalone="no"?>
<!DOCTYPE svg PUBLIC "-//W3C//DTD SVG 20010904//EN"
 "http://www.w3.org/TR/2001/REC-SVG-20010904/DTD/svg10.dtd">
<svg version="1.0" xmlns="http://www.w3.org/2000/svg"
 width="92.000000pt" height="103.000000pt" viewBox="0 0 92.000000 103.000000"
 preserveAspectRatio="xMidYMid meet">

<g transform="translate(0.000000,103.000000) scale(0.100000,-0.100000)"
fill="#000000" stroke="none">
<path d="M526 1006 l-29 -13 2 -95 c4 -171 -45 -321 -133 -416 l-46 -49 -46
15 c-90 30 -198 -19 -246 -111 -32 -60 -31 -157 3 -217 50 -91 146 -135 240
-110 60 16 133 89 149 150 16 58 7 142 -19 178 l-20 29 50 53 c82 88 140 228
155 377 7 62 7 63 26 46 35 -32 108 -150 133 -216 13 -36 26 -89 27 -119 l3
-53 -35 2 c-99 7 -185 -44 -226 -131 -43 -92 -23 -196 50 -264 94 -87 215 -80
298 17 66 77 74 180 22 269 -20 34 -25 53 -20 80 8 54 -11 164 -42 246 -38 96
-92 177 -174 259 -37 37 -68 72 -68 77 0 13 -18 11 -54 -4z"/>
</g>
</svg>
