<?xml version="1.0" standalone="no"?>
<!DOCTYPE svg PUBLIC "-//W3C//DTD SVG 20010904//EN"
 "http://www.w3.org/TR/2001/REC-SVG-20010904/DTD/svg10.dtd">
<svg version="1.0" xmlns="http://www.w3.org/2000/svg"
 width="81.000000pt" height="167.000000pt" viewBox="0 0 81.000000 167.000000"
 preserveAspectRatio="xMidYMid meet">

<g transform="translate(0.000000,167.000000) scale(0.100000,-0.100000)"
fill="#000000" stroke="none">
<path d="M372 1639 c-8 -12 -12 -22 -10 -24 2 -1 45 -28 96 -59 50 -32 92 -61
92 -67 0 -13 -30 -41 -86 -80 -39 -27 -59 -34 -96 -34 -56 0 -91 -28 -113 -91
-9 -29 -19 -40 -37 -42 -40 -5 -65 -23 -89 -66 -20 -34 -24 -54 -22 -112 1
-66 -1 -73 -23 -85 -84 -44 -98 -227 -24 -301 19 -18 39 -28 59 -28 24 0 33
-6 46 -35 9 -19 23 -39 31 -46 10 -8 12 -26 8 -68 -8 -72 10 -136 47 -174 25
-24 36 -28 69 -25 37 3 40 2 56 -37 9 -22 19 -62 20 -90 5 -69 41 -135 86
-160 37 -19 38 -20 72 -1 20 11 42 34 52 55 18 38 24 118 12 162 -7 24 -6 25
22 21 66 -10 120 66 120 167 0 42 6 70 20 94 40 67 35 174 -12 240 -19 26 -19
29 -3 72 20 52 17 134 -7 181 -8 18 -12 38 -8 45 19 34 21 100 6 152 -25 86
-84 124 -144 93 -17 -9 -36 -24 -41 -33 -8 -13 -10 5 -11 68 l0 85 62 83 c59
80 61 84 43 97 -18 13 -22 11 -51 -23 l-31 -37 -79 49 c-43 27 -88 54 -99 62
-18 11 -22 10 -33 -8z m126 -390 c-20 -13 -22 -12 -39 36 l-17 45 32 25 31 25
3 -62 c2 -42 -1 -64 -10 -69z"/>
</g>
</svg>
