<?xml version="1.0" standalone="no"?>
<!DOCTYPE svg PUBLIC "-//W3C//DTD SVG 20010904//EN"
 "http://www.w3.org/TR/2001/REC-SVG-20010904/DTD/svg10.dtd">
<svg version="1.0" xmlns="http://www.w3.org/2000/svg"
 width="143.000000pt" height="161.000000pt" viewBox="0 0 143.000000 161.000000"
 preserveAspectRatio="xMidYMid meet">

<g transform="translate(0.000000,161.000000) scale(0.100000,-0.100000)"
fill="#000000" stroke="none">
<path d="M523 1553 c-21 -27 -72 -81 -114 -121 -63 -59 -94 -80 -170 -113 -52
-23 -123 -50 -158 -60 -35 -10 -66 -20 -68 -22 -3 -4 16 -96 21 -104 1 -1 79
18 173 41 l172 43 19 -21 c10 -11 35 -44 55 -72 l36 -51 -54 -53 c-59 -59
-120 -165 -151 -265 -25 -80 -25 -256 -1 -336 29 -93 76 -167 152 -243 118
-115 248 -169 407 -168 279 1 471 147 563 429 40 123 14 316 -60 439 -67 113
-107 153 -223 222 -136 80 -351 96 -513 37 -24 -9 -51 -18 -59 -21 -10 -3 -33
21 -67 68 l-51 72 109 142 109 142 -33 24 c-54 41 -54 41 -94 -9z"/>
</g>
</svg>
