<svg width="1218" height="1218" xmlns="http://www.w3.org/2000/svg" xmlns:xlink="http://www.w3.org/1999/xlink" overflow="hidden"><defs><clipPath id="clip0"><path d="M-685-21 533-21 533 1197-685 1197Z" fill-rule="evenodd" clip-rule="evenodd"/></clipPath></defs><g clip-path="url(#clip0)" transform="translate(685 21)"><rect x="-684" y="-20" width="1216" height="1216" fill="#002060"/><path d="M-471 415.151-290.575 217-186 217-471 530Z" fill="#0CFCBD" fill-rule="evenodd"/><rect x="-286" y="216" width="112" height="701" fill="#0CFCBD"/><path d="M-471 473.151-290.575 275-186 275-471 588Z" fill="#FFF9C8" fill-rule="evenodd"/><rect x="-286" y="274" width="112" height="701" fill="#FFF9C8"/><path d="M-74 415.151 106.425 217 211 217-74 530Z" fill="#0CFCBD" fill-rule="evenodd"/><rect x="111" y="216" width="112" height="701" fill="#0CFCBD"/><path d="M-74 473.151 106.425 275 211 275-74 588Z" fill="#FFF9C8" fill-rule="evenodd"/><rect x="111" y="274" width="112" height="701" fill="#FFF9C8"/></g></svg>