<svg width="1127" height="1127" xmlns="http://www.w3.org/2000/svg" xmlns:xlink="http://www.w3.org/1999/xlink" overflow="hidden"><defs><clipPath id="clip0"><path d="M-1-1 1126-1 1126 1126-1 1126Z" fill-rule="evenodd" clip-rule="evenodd"/></clipPath></defs><g clip-path="url(#clip0)" transform="translate(1 1)"><rect x="0" y="0" width="1125" height="1125" fill="#002060"/><path d="M198 402.59 364.497 219 461 219 198 509Z" fill="#0CFCBD" fill-rule="evenodd"/><rect x="369" y="218" width="103" height="648" fill="#0CFCBD"/><path d="M198 456.59 364.497 273 461 273 198 563Z" fill="#FFF9C8" fill-rule="evenodd"/><rect x="369" y="272" width="103" height="648" fill="#FFF9C8"/><path d="M565 402.59 732.13 219 829 219 565 509Z" fill="#0CFCBD" fill-rule="evenodd"/><rect x="736" y="218" width="103" height="648" fill="#0CFCBD"/><path d="M565 456.59 732.13 273 829 273 565 563Z" fill="#FFF9C8" fill-rule="evenodd"/><rect x="736" y="272" width="103" height="648" fill="#FFF9C8"/></g></svg>