<svg width="1090" height="1127" xmlns="http://www.w3.org/2000/svg" xmlns:xlink="http://www.w3.org/1999/xlink" overflow="hidden"><defs><clipPath id="clip0"><path d="M-1-1 1089-1 1089 1126-1 1126Z" fill-rule="evenodd" clip-rule="evenodd"/></clipPath></defs><g clip-path="url(#clip0)" transform="translate(1 1)"><rect x="0" y="0" width="1088" height="1123" fill="#FFF9C8"/><path d="M501 653 793.5 361 1086 653Z" fill="#E9FE90" fill-rule="evenodd"/><path d="M400 653 642 401 884 653Z" fill="#E9FE90" fill-rule="evenodd"/><path d="M132 653 402 340 672 653Z" fill="#E9FE90" fill-rule="evenodd"/><path d="M693 653 858 472 1023 653Z" fill="#0CFCBD" fill-rule="evenodd"/><path d="M577 653 679.5 543 782 653Z" fill="#0CFCBD" fill-rule="evenodd"/><path d="M170 653 373.5 444 577 653Z" fill="#0CFCBD" fill-rule="evenodd"/><path d="M0 653 168 472 336 653Z" fill="#0CFCBD" fill-rule="evenodd"/><rect x="0" y="649" width="1086" height="476" fill="#0CFCBD"/><path d="M424 1123 574.5 653 725 1123Z" fill="#FFF9C8" fill-rule="evenodd"/></g></svg>