<svg width="1608" height="1663" xmlns="http://www.w3.org/2000/svg" xmlns:xlink="http://www.w3.org/1999/xlink" overflow="hidden"><defs><clipPath id="clip0"><path d="M2415-1198 4023-1198 4023 465 2415 465Z" fill-rule="evenodd" clip-rule="evenodd"/></clipPath></defs><g clip-path="url(#clip0)" transform="translate(-2415 1198)"><rect x="2417" y="-1197" width="1605" height="1657" fill="#FFF9C8" class="lightyellow"/><path d="M3156-233 3587.5-663 4019-233Z" fill="#E9FE90" class="yellow" fill-rule="evenodd"/><path d="M3006-233 3363-605 3720-233Z" fill="#E9FE90" class="yellow" fill-rule="evenodd"/><path d="M2611-233 3009.5-694 3408-233Z" fill="#E9FE90" class="yellow" fill-rule="evenodd"/><path d="M3440-233 3683-500 3926-233Z" fill="#0CFCBD" class="turquoise" fill-rule="evenodd"/><path d="M3268-233 3419.5-396 3571-233Z" fill="#0CFCBD" class="turquoise" fill-rule="evenodd"/><path d="M2668-233 2968-542 3268-233Z" fill="#0CFCBD" class="turquoise" fill-rule="evenodd"/><path d="M2416-233 2664.5-500 2913-233Z" fill="#0CFCBD" class="turquoise" fill-rule="evenodd"/><rect x="2417" y="-238" width="1602" height="701" fill="#0CFCBD" class="turquoise"/><path d="M3041 460 3263.5-233 3486 460Z" fill="#FFF9C8" class="lightyellow" fill-rule="evenodd"/></g></svg>