<svg width="1129" height="1194" xmlns="http://www.w3.org/2000/svg" xmlns:xlink="http://www.w3.org/1999/xlink" overflow="hidden"><defs><clipPath id="clip0"><path d="M-1-1 1128-1 1128 1193-1 1193Z" fill-rule="evenodd" clip-rule="evenodd"/></clipPath></defs><g clip-path="url(#clip0)" transform="translate(1 1)"><rect x="2" y="0" width="1125" height="953" fill="#37C6C6"/><rect x="106" y="138" width="917" height="678" fill="#0F9797"/><rect x="132" y="161" width="865" height="632" fill="#A1F5F5"/><rect x="0" y="953" width="1125" height="172" fill="#A1F5F5"/><text fill="#0F9797" font-family="Arial,Arial_MSFontService,sans-serif" font-weight="700" font-size="133" transform="translate(199.088 1082)">Select level</text><rect x="502" y="367" width="132" height="44" fill="#FF9302"/><rect x="502" y="411" width="42" height="43" fill="#5B9BD5"/><rect x="636" y="411" width="43" height="43" fill="#5B9BD5"/><rect x="457" y="411" width="222" height="92" fill="#FF9302"/><rect x="636" y="456" width="43" height="43" fill="#FF8602"/><rect x="457" y="456" width="42" height="43" fill="#FF8602"/><rect x="502" y="544" width="42" height="42" fill="#FF8602"/><rect x="591" y="544" width="43" height="42" fill="#FF8602"/><rect x="502" y="499" width="132" height="44" fill="#FF8602"/><rect x="834" y="418" width="132" height="42" fill="#FF9302"/><rect x="834" y="456" width="45" height="87" fill="#FF8602"/><rect x="922" y="456" width="44" height="87" fill="#FF8602"/><rect x="877" y="501" width="45" height="42" fill="#FF8602"/><rect x="164" y="418" width="132" height="42" fill="#FF9302"/><rect x="164" y="456" width="45" height="87" fill="#FF8602"/><rect x="251" y="456" width="45" height="87" fill="#FF8602"/><rect x="207" y="501" width="44" height="42" fill="#FF8602"/><rect x="215" y="660" width="885" height="241" fill="#0F9797"/><rect x="267" y="685" width="258" height="185" fill="#37C6C6"/><text fill="#A1F5F3" font-family="Arial,Arial_MSFontService,sans-serif" font-weight="700" font-size="133" transform="translate(362.871 827)">1</text><rect x="534" y="685" width="258" height="185" fill="#A1F5F5"/><text fill="#0F9797" font-family="Arial,Arial_MSFontService,sans-serif" font-weight="700" font-size="133" transform="translate(629.713 827)">2</text><rect x="806" y="685" width="259" height="185" fill="#A1F5F5"/><text fill="#0F9797" font-family="Arial,Arial_MSFontService,sans-serif" font-weight="700" font-size="133" transform="translate(902.054 827)">3</text></g></svg>