<svg width="1127" height="1127" xmlns="http://www.w3.org/2000/svg" xmlns:xlink="http://www.w3.org/1999/xlink" overflow="hidden"><defs><clipPath id="clip0"><path d="M-1-1 1126-1 1126 1126-1 1126Z" fill-rule="evenodd" clip-rule="evenodd"/></clipPath></defs><g clip-path="url(#clip0)" transform="translate(1 1)"><rect x="0" y="0" width="1125" height="1125" fill="#FFF0E5"/><rect x="589" y="587" width="411" height="25" fill="#0CFCBD"/><rect x="589" y="635" width="411" height="25" fill="#0CFCBD"/><rect x="589" y="683" width="411" height="26" fill="#0CFCBD"/><rect x="589" y="732" width="411" height="25" fill="#0CFCBD"/><rect x="589" y="780" width="411" height="25" fill="#0CFCBD"/><rect x="589" y="828" width="411" height="26" fill="#0CFCBD"/><rect x="589" y="877" width="411" height="25" fill="#0CFCBD"/><rect x="589" y="925" width="411" height="25" fill="#0CFCBD"/><rect x="589" y="973" width="411" height="26" fill="#0CFCBD"/><rect x="131" y="131" width="411" height="53" fill="#0CFCBD"/><rect x="131" y="233" width="411" height="53" fill="#0CFCBD"/><rect x="131" y="334" width="411" height="54" fill="#0CFCBD"/><rect x="131" y="436" width="411" height="54" fill="#0CFCBD"/><rect x="131" y="538" width="411" height="53" fill="#0CFCBD"/><rect x="131" y="640" width="411" height="53" fill="#0CFCBD"/><rect x="131" y="742" width="411" height="53" fill="#0CFCBD"/><rect x="131" y="844" width="411" height="53" fill="#0CFCBD"/><rect x="131" y="945" width="411" height="54" fill="#0CFCBD"/><rect x="589" y="131" width="411" height="434" fill="#0CFCBD"/><rect x="631" y="170" width="333" height="352" fill="#E9FE90"/><rect x="656" y="278" width="71" height="70" fill="#0CFCBD"/><rect x="692" y="278" width="23" height="23" fill="#5DFF61"/><rect x="656" y="278" width="24" height="23" fill="#1A00DA"/><rect x="656" y="313" width="24" height="24" fill="#E9FE90"/><rect x="692" y="313" width="23" height="24" fill="#002060"/><rect x="727" y="278" width="70" height="70" fill="#1A00DA"/><rect x="762" y="313" width="24" height="24" fill="#E9FE90"/><rect x="762" y="278" width="24" height="23" fill="#0CFCBD"/><rect x="727" y="313" width="23" height="24" fill="#002060"/><rect x="727" y="278" width="23" height="23" fill="#5DFF61"/><rect x="656" y="207" width="71" height="71" fill="#E9FE90"/><rect x="692" y="207" width="23" height="24" fill="#1A00DA"/><rect x="656" y="207" width="24" height="24" fill="#002060"/><rect x="656" y="242" width="24" height="24" fill="#5DFF61"/><rect x="691" y="242" width="24" height="24" fill="#0CFCBD"/><rect x="727" y="207" width="70" height="71" fill="#002060"/><rect x="727" y="207" width="23" height="24" fill="#0CFCBD"/><rect x="762" y="207" width="24" height="24" fill="#E9FE90"/><rect x="762" y="242" width="24" height="24" fill="#5DFF61"/><rect x="727" y="242" width="23" height="24" fill="#1A00DA"/><rect x="798" y="207" width="70" height="71" fill="#0CFCBD"/><rect x="845" y="243" width="23" height="23" fill="#5DFF61"/><rect x="845" y="207" width="23" height="24" fill="#1A00DA"/><rect x="810" y="207" width="23" height="24" fill="#E9FE90"/><rect x="810" y="243" width="23" height="23" fill="#002060"/><rect x="798" y="278" width="70" height="70" fill="#1A00DA"/><rect x="810" y="313" width="23" height="24" fill="#E9FE90"/><rect x="845" y="313" width="23" height="24" fill="#0CFCBD"/><rect x="810" y="278" width="23" height="23" fill="#002060"/><rect x="845" y="278" width="23" height="23" fill="#5DFF61"/><rect x="868" y="207" width="71" height="71" fill="#E9FE90"/><rect x="915" y="243" width="24" height="23" fill="#1A00DA"/><rect x="915" y="207" width="24" height="24" fill="#002060"/><rect x="880" y="207" width="24" height="24" fill="#5DFF61"/><rect x="880" y="242" width="24" height="24" fill="#0CFCBD"/><rect x="868" y="278" width="71" height="70" fill="#002060"/><rect x="915" y="278" width="24" height="23" fill="#0CFCBD"/><rect x="915" y="313" width="24" height="24" fill="#E9FE90"/><rect x="880" y="313" width="24" height="24" fill="#5DFF61"/><rect x="880" y="278" width="24" height="23" fill="#1A00DA"/><rect x="727" y="419" width="70" height="70" fill="#0CFCBD"/><rect x="727" y="430" width="23" height="24" fill="#5DFF61"/><rect x="727" y="466" width="23" height="23" fill="#1A00DA"/><rect x="762" y="466" width="24" height="23" fill="#E9FE90"/><rect x="762" y="430" width="24" height="24" fill="#002060"/><rect x="727" y="348" width="70" height="71" fill="#1A00DA"/><rect x="762" y="360" width="24" height="24" fill="#E9FE90"/><rect x="727" y="360" width="23" height="24" fill="#0CFCBD"/><rect x="762" y="395" width="24" height="24" fill="#002060"/><rect x="727" y="395" width="23" height="24" fill="#5DFF61"/><rect x="656" y="419" width="71" height="70" fill="#E9FE90"/><rect x="656" y="431" width="24" height="23" fill="#1A00DA"/><rect x="656" y="466" width="24" height="23" fill="#002060"/><rect x="691" y="466" width="24" height="23" fill="#5DFF61"/><rect x="691" y="431" width="24" height="23" fill="#0CFCBD"/><rect x="656" y="348" width="71" height="71" fill="#002060"/><rect x="656" y="395" width="24" height="24" fill="#0CFCBD"/><rect x="656" y="360" width="24" height="24" fill="#E9FE90"/><rect x="691" y="360" width="24" height="24" fill="#5DFF61"/><rect x="691" y="395" width="24" height="24" fill="#1A00DA"/><rect x="868" y="348" width="71" height="71" fill="#0CFCBD"/><rect x="880" y="395" width="23" height="24" fill="#5DFF61"/><rect x="915" y="395" width="24" height="24" fill="#1A00DA"/><rect x="915" y="360" width="24" height="24" fill="#E9FE90"/><rect x="880" y="360" width="23" height="24" fill="#002060"/><rect x="798" y="348" width="70" height="71" fill="#1A00DA"/><rect x="809" y="360" width="24" height="24" fill="#E9FE90"/><rect x="809" y="395" width="24" height="24" fill="#0CFCBD"/><rect x="845" y="360" width="23" height="24" fill="#002060"/><rect x="845" y="395" width="23" height="24" fill="#5DFF61"/><rect x="868" y="419" width="71" height="71" fill="#E9FE90"/><rect x="880" y="466" width="24" height="24" fill="#1A00DA"/><rect x="915" y="466" width="24" height="24" fill="#002060"/><rect x="915" y="431" width="24" height="23" fill="#5DFF61"/><rect x="880" y="431" width="24" height="23" fill="#0CFCBD"/><rect x="798" y="419" width="70" height="71" fill="#002060"/><rect x="845" y="466" width="23" height="24" fill="#0CFCBD"/><rect x="809" y="466" width="24" height="24" fill="#E9FE90"/><rect x="809" y="431" width="24" height="23" fill="#5DFF61"/><rect x="845" y="431" width="23" height="23" fill="#1A00DA"/></g></svg>