<svg width="429" height="438" xmlns="http://www.w3.org/2000/svg" xmlns:xlink="http://www.w3.org/1999/xlink" overflow="hidden"><defs><clipPath id="clip0"><path d="M63 140 492 140 492 578 63 578Z" fill-rule="evenodd" clip-rule="evenodd"/></clipPath></defs><g clip-path="url(#clip0)" transform="translate(-63 -140)"><rect x="65" y="141" width="426" height="361" fill="#37C6C6"/><rect x="104" y="193" width="348" height="257" fill="#0F9797"/><rect x="114" y="202" width="328" height="239" fill="#A1F5F5"/><rect x="64" y="502" width="427" height="65" fill="#A1F5F5"/><text fill="#0F9797" font-family="Arial,Arial_MSFontService,sans-serif" font-weight="700" font-size="38" transform="translate(174.117 545)">Select level</text><rect x="254" y="280" width="50" height="17" fill="#FF9302"/><rect x="254" y="297" width="16" height="16" fill="#5B9BD5"/><rect x="305" y="297" width="16" height="16" fill="#5B9BD5"/><rect x="237" y="297" width="84" height="34" fill="#FF9302"/><rect x="305" y="314" width="16" height="16" fill="#FF8602"/><rect x="237" y="314" width="16" height="16" fill="#FF8602"/><rect x="254" y="347" width="16" height="16" fill="#FF8602"/><rect x="288" y="347" width="16" height="16" fill="#FF8602"/><rect x="254" y="330" width="50" height="17" fill="#FF8602"/><rect x="380" y="299" width="50" height="16" fill="#FF9302"/><rect x="380" y="314" width="17" height="33" fill="#FF8602"/><rect x="413" y="314" width="17" height="33" fill="#FF8602"/><rect x="397" y="331" width="16" height="16" fill="#FF8602"/><rect x="126" y="299" width="50" height="16" fill="#FF9302"/><rect x="126" y="314" width="17" height="33" fill="#FF8602"/><rect x="159" y="314" width="17" height="33" fill="#FF8602"/><rect x="142" y="331" width="17" height="16" fill="#FF8602"/><rect x="146" y="391" width="335" height="91" fill="#0F9797"/><rect x="165" y="400" width="98" height="71" fill="#37C6C6"/><text fill="#A1F5F3" font-family="Arial,Arial_MSFontService,sans-serif" font-weight="700" font-size="42" transform="translate(204.133 451)">1</text><rect x="266" y="400" width="98" height="71" fill="#A1F5F5"/><text fill="#0F9797" font-family="Arial,Arial_MSFontService,sans-serif" font-weight="700" font-size="42" transform="translate(305.311 451)">2</text><rect x="370" y="400" width="98" height="71" fill="#A1F5F5"/><text fill="#0F9797" font-family="Arial,Arial_MSFontService,sans-serif" font-weight="700" font-size="42" transform="translate(408.573 451)">3</text></g></svg>