<svg width="1127" height="1127" xmlns="http://www.w3.org/2000/svg" xmlns:xlink="http://www.w3.org/1999/xlink" overflow="hidden"><defs><clipPath id="clip0"><path d="M-1-1 1126-1 1126 1126-1 1126Z" fill-rule="evenodd" clip-rule="evenodd"/></clipPath></defs><g clip-path="url(#clip0)" transform="translate(1 1)"><rect x="0" y="0" width="1125" height="1125" fill="#FFF0E5"/><rect x="350" y="551" width="429" height="429" fill="#0CFCBD"/><path d="M693.312 609.342C714.311 603.715 735.894 616.177 741.521 637.175 747.147 658.173 734.686 679.757 713.688 685.383 692.689 691.009 671.106 678.548 665.479 657.55 659.853 636.552 672.314 614.968 693.312 609.342Z" fill="#002060" fill-rule="evenodd"/><path d="M632.9 688.044C653.898 682.417 675.482 694.878 681.108 715.877 686.734 736.875 674.273 758.458 653.275 764.085 632.277 769.711 610.693 757.25 605.067 736.252 599.44 715.254 611.901 693.67 632.9 688.044Z" fill="#002060" fill-rule="evenodd"/><rect x="438" y="611" width="45" height="125" fill="#002060"/><rect x="398" y="652" width="125" height="45" fill="#002060"/><rect x="479" y="898" width="77" height="39" fill="#002060"/><rect x="574" y="898" width="76" height="39" fill="#002060"/><rect x="351" y="113" width="428" height="452" fill="#0CFCBD"/><rect x="395" y="154" width="347" height="367" fill="#E9FE90"/><rect x="421" y="266" width="74" height="73" fill="#0CFCBD"/><rect x="458" y="266" width="25" height="24" fill="#5DFF61"/><rect x="421" y="266" width="25" height="24" fill="#1A00DA"/><rect x="421" y="302" width="25" height="25" fill="#E9FE90"/><rect x="458" y="302" width="25" height="25" fill="#002060"/><rect x="495" y="266" width="73" height="73" fill="#1A00DA"/><rect x="532" y="302" width="24" height="25" fill="#E9FE90"/><rect x="532" y="266" width="24" height="24" fill="#0CFCBD"/><rect x="495" y="302" width="24" height="25" fill="#002060"/><rect x="495" y="266" width="24" height="24" fill="#5DFF61"/><rect x="421" y="192" width="74" height="74" fill="#E9FE90"/><rect x="458" y="192" width="25" height="25" fill="#1A00DA"/><rect x="421" y="192" width="25" height="25" fill="#002060"/><rect x="421" y="229" width="25" height="24" fill="#5DFF61"/><rect x="458" y="229" width="24" height="24" fill="#0CFCBD"/><rect x="495" y="192" width="73" height="74" fill="#002060"/><rect x="495" y="192" width="24" height="25" fill="#0CFCBD"/><rect x="532" y="192" width="24" height="25" fill="#E9FE90"/><rect x="532" y="229" width="24" height="24" fill="#5DFF61"/><rect x="495" y="229" width="24" height="24" fill="#1A00DA"/><rect x="569" y="192" width="73" height="74" fill="#0CFCBD"/><rect x="618" y="229" width="24" height="25" fill="#5DFF61"/><rect x="618" y="192" width="24" height="25" fill="#1A00DA"/><rect x="581" y="192" width="24" height="25" fill="#E9FE90"/><rect x="581" y="229" width="24" height="25" fill="#002060"/><rect x="569" y="266" width="73" height="73" fill="#1A00DA"/><rect x="581" y="303" width="24" height="24" fill="#E9FE90"/><rect x="618" y="303" width="24" height="24" fill="#0CFCBD"/><rect x="581" y="266" width="24" height="24" fill="#002060"/><rect x="618" y="266" width="24" height="24" fill="#5DFF61"/><rect x="642" y="192" width="74" height="74" fill="#E9FE90"/><rect x="691" y="229" width="25" height="25" fill="#1A00DA"/><rect x="691" y="192" width="25" height="25" fill="#002060"/><rect x="655" y="192" width="24" height="25" fill="#5DFF61"/><rect x="655" y="229" width="24" height="24" fill="#0CFCBD"/><rect x="642" y="266" width="74" height="73" fill="#002060"/><rect x="691" y="266" width="25" height="24" fill="#0CFCBD"/><rect x="691" y="303" width="25" height="24" fill="#E9FE90"/><rect x="655" y="303" width="24" height="24" fill="#5DFF61"/><rect x="655" y="266" width="24" height="24" fill="#1A00DA"/><rect x="495" y="413" width="73" height="73" fill="#0CFCBD"/><rect x="495" y="425" width="24" height="24" fill="#5DFF61"/><rect x="495" y="462" width="24" height="24" fill="#1A00DA"/><rect x="532" y="462" width="24" height="24" fill="#E9FE90"/><rect x="532" y="425" width="24" height="24" fill="#002060"/><rect x="495" y="339" width="73" height="74" fill="#1A00DA"/><rect x="532" y="351" width="24" height="25" fill="#E9FE90"/><rect x="495" y="351" width="24" height="25" fill="#0CFCBD"/><rect x="532" y="388" width="24" height="25" fill="#002060"/><rect x="495" y="388" width="24" height="25" fill="#5DFF61"/><rect x="421" y="413" width="74" height="73" fill="#E9FE90"/><rect x="421" y="425" width="25" height="24" fill="#1A00DA"/><rect x="421" y="462" width="25" height="24" fill="#002060"/><rect x="458" y="462" width="24" height="24" fill="#5DFF61"/><rect x="458" y="425" width="24" height="25" fill="#0CFCBD"/><rect x="421" y="339" width="74" height="74" fill="#002060"/><rect x="421" y="388" width="25" height="25" fill="#0CFCBD"/><rect x="421" y="351" width="25" height="25" fill="#E9FE90"/><rect x="458" y="351" width="24" height="25" fill="#5DFF61"/><rect x="458" y="388" width="24" height="25" fill="#1A00DA"/><rect x="642" y="339" width="74" height="74" fill="#0CFCBD"/><rect x="654" y="388" width="25" height="25" fill="#5DFF61"/><rect x="691" y="388" width="25" height="25" fill="#1A00DA"/><rect x="691" y="352" width="25" height="24" fill="#E9FE90"/><rect x="654" y="352" width="25" height="24" fill="#002060"/><rect x="569" y="339" width="73" height="74" fill="#1A00DA"/><rect x="581" y="352" width="24" height="24" fill="#E9FE90"/><rect x="581" y="388" width="24" height="25" fill="#0CFCBD"/><rect x="618" y="352" width="24" height="24" fill="#002060"/><rect x="618" y="388" width="24" height="25" fill="#5DFF61"/><rect x="642" y="413" width="74" height="73" fill="#E9FE90"/><rect x="654" y="462" width="25" height="24" fill="#1A00DA"/><rect x="691" y="462" width="25" height="24" fill="#002060"/><rect x="691" y="425" width="25" height="25" fill="#5DFF61"/><rect x="655" y="425" width="24" height="25" fill="#0CFCBD"/><rect x="569" y="413" width="73" height="73" fill="#002060"/><rect x="618" y="462" width="24" height="24" fill="#0CFCBD"/><rect x="581" y="462" width="24" height="24" fill="#E9FE90"/><rect x="581" y="425" width="24" height="25" fill="#5DFF61"/><rect x="618" y="425" width="24" height="25" fill="#1A00DA"/></g></svg>