<svg width="882" height="881" xmlns="http://www.w3.org/2000/svg" xmlns:xlink="http://www.w3.org/1999/xlink" overflow="hidden"><defs><clipPath id="clip0"><path d="M559 122 1441 122 1441 1003 559 1003Z" fill-rule="evenodd" clip-rule="evenodd"/></clipPath></defs><g clip-path="url(#clip0)" transform="translate(-559 -122)"><rect x="560" y="123" width="880" height="879" fill="#FFF0E5" class="beije"/><rect x="1023" y="169" width="375" height="396" fill="#0CFCBD" class="turquoise"/><rect x="1062" y="205" width="303" height="321" fill="#E9FE90" class="yellow"/><rect x="1152" y="315" width="21" height="21" fill="#1A00DA" class="blue"/><rect x="1162" y="315" width="21" height="21" fill="#1A00DA" class="blue"/><rect x="1162" y="304" width="21" height="21" fill="#1A00DA" class="blue"/><rect x="1152" y="304" width="21" height="21" fill="#E9FE90" class="yellow"/><rect x="1183" y="315" width="20" height="21" fill="#1A00DA" class="blue"/><rect x="1193" y="315" width="21" height="21" fill="#1A00DA" class="blue"/><rect x="1193" y="304" width="21" height="21" fill="#1A00DA" class="blue"/><rect x="1183" y="304" width="20" height="21" fill="#0CFCBD" class="turquoise"/><rect x="1183" y="347" width="20" height="22" fill="#1A00DA" class="blue"/><rect x="1193" y="347" width="21" height="22" fill="#1A00DA" class="blue"/><rect x="1193" y="336" width="21" height="22" fill="#1A00DA" class="blue"/><rect x="1183" y="336" width="20" height="22" fill="#002060" class="darkblue"/><rect x="1152" y="347" width="21" height="22" fill="#1A00DA" class="blue"/><rect x="1162" y="347" width="21" height="22" fill="#1A00DA" class="blue"/><rect x="1162" y="336" width="21" height="22" fill="#1A00DA" class="blue"/><rect x="1152" y="336" width="21" height="22" fill="#5DFF61"/><rect x="1091" y="249" width="20" height="22" fill="#E9FE90" class="yellow"/><rect x="1101" y="249" width="20" height="22" fill="#E9FE90" class="yellow"/><rect x="1101" y="239" width="20" height="21" fill="#E9FE90" class="yellow"/><rect x="1091" y="239" width="20" height="21" fill="#1A00DA" class="blue"/><rect x="1121" y="249" width="21" height="22" fill="#E9FE90" class="yellow"/><rect x="1132" y="249" width="20" height="22" fill="#E9FE90" class="yellow"/><rect x="1132" y="239" width="20" height="21" fill="#E9FE90" class="yellow"/><rect x="1121" y="239" width="21" height="21" fill="#002060" class="darkblue"/><rect x="1121" y="282" width="21" height="22" fill="#E9FE90" class="yellow"/><rect x="1132" y="282" width="20" height="22" fill="#E9FE90" class="yellow"/><rect x="1132" y="271" width="20" height="22" fill="#E9FE90" class="yellow"/><rect x="1121" y="271" width="21" height="22" fill="#5DFF61"/><rect x="1091" y="282" width="20" height="22" fill="#E9FE90" class="yellow"/><rect x="1101" y="282" width="20" height="22" fill="#E9FE90" class="yellow"/><rect x="1101" y="271" width="20" height="22" fill="#E9FE90" class="yellow"/><rect x="1091" y="271" width="20" height="22" fill="#0CFCBD" class="turquoise"/><rect x="1152" y="249" width="21" height="22" fill="#002060" class="darkblue"/><rect x="1162" y="249" width="21" height="22" fill="#002060" class="darkblue"/><rect x="1162" y="239" width="21" height="21" fill="#002060" class="darkblue"/><rect x="1152" y="239" width="21" height="21" fill="#0CFCBD" class="turquoise"/><rect x="1183" y="249" width="20" height="22" fill="#002060" class="darkblue"/><rect x="1193" y="249" width="21" height="22" fill="#002060" class="darkblue"/><rect x="1193" y="239" width="21" height="21" fill="#002060" class="darkblue"/><rect x="1183" y="239" width="20" height="21" fill="#E9FE90" class="yellow"/><rect x="1183" y="282" width="20" height="22" fill="#002060" class="darkblue"/><rect x="1193" y="282" width="21" height="22" fill="#002060" class="darkblue"/><rect x="1193" y="271" width="21" height="22" fill="#002060" class="darkblue"/><rect x="1183" y="271" width="20" height="22" fill="#5DFF61"/><rect x="1152" y="282" width="21" height="22" fill="#002060" class="darkblue"/><rect x="1162" y="282" width="21" height="22" fill="#002060" class="darkblue"/><rect x="1162" y="271" width="21" height="22" fill="#002060" class="darkblue"/><rect x="1152" y="271" width="21" height="22" fill="#1A00DA" class="blue"/><rect x="1091" y="315" width="20" height="21" fill="#0CFCBD" class="turquoise"/><rect x="1101" y="315" width="21" height="21" fill="#0CFCBD" class="turquoise"/><rect x="1101" y="304" width="21" height="21" fill="#0CFCBD" class="turquoise"/><rect x="1091" y="304" width="20" height="21" fill="#5DFF61"/><rect x="1122" y="315" width="20" height="21" fill="#0CFCBD" class="turquoise"/><rect x="1132" y="315" width="20" height="21" fill="#0CFCBD" class="turquoise"/><rect x="1132" y="304" width="20" height="21" fill="#0CFCBD" class="turquoise"/><rect x="1122" y="304" width="20" height="21" fill="#1A00DA" class="blue"/><rect x="1122" y="347" width="20" height="22" fill="#0CFCBD" class="turquoise"/><rect x="1132" y="347" width="20" height="22" fill="#0CFCBD" class="turquoise"/><rect x="1132" y="336" width="20" height="22" fill="#0CFCBD" class="turquoise"/><rect x="1122" y="336" width="20" height="22" fill="#E9FE90" class="yellow"/><rect x="1091" y="347" width="20" height="22" fill="#0CFCBD" class="turquoise"/><rect x="1101" y="347" width="21" height="22" fill="#0CFCBD" class="turquoise"/><rect x="1101" y="336" width="21" height="22" fill="#0CFCBD" class="turquoise"/><rect x="1091" y="336" width="20" height="22" fill="#002060" class="darkblue"/><rect x="1255" y="400" width="20" height="22" fill="#1A00DA" class="blue"/><rect x="1244" y="400" width="21" height="22" fill="#1A00DA" class="blue"/><rect x="1244" y="411" width="21" height="22" fill="#1A00DA" class="blue"/><rect x="1255" y="411" width="20" height="22" fill="#E9FE90" class="yellow"/><rect x="1224" y="400" width="20" height="22" fill="#1A00DA" class="blue"/><rect x="1214" y="400" width="20" height="22" fill="#1A00DA" class="blue"/><rect x="1214" y="411" width="20" height="22" fill="#1A00DA" class="blue"/><rect x="1224" y="411" width="20" height="22" fill="#0CFCBD" class="turquoise"/><rect x="1224" y="368" width="20" height="21" fill="#1A00DA" class="blue"/><rect x="1214" y="368" width="20" height="21" fill="#1A00DA" class="blue"/><rect x="1214" y="378" width="20" height="22" fill="#1A00DA" class="blue"/><rect x="1224" y="378" width="20" height="22" fill="#002060" class="darkblue"/><rect x="1255" y="368" width="20" height="21" fill="#1A00DA" class="blue"/><rect x="1244" y="368" width="21" height="21" fill="#1A00DA" class="blue"/><rect x="1244" y="378" width="21" height="22" fill="#1A00DA" class="blue"/><rect x="1255" y="378" width="20" height="22" fill="#5DFF61"/><rect x="1316" y="465" width="21" height="22" fill="#E9FE90" class="yellow"/><rect x="1306" y="465" width="20" height="22" fill="#E9FE90" class="yellow"/><rect x="1306" y="476" width="20" height="22" fill="#E9FE90" class="yellow"/><rect x="1316" y="476" width="21" height="22" fill="#1A00DA" class="blue"/><rect x="1285" y="465" width="21" height="22" fill="#E9FE90" class="yellow"/><rect x="1275" y="465" width="21" height="22" fill="#E9FE90" class="yellow"/><rect x="1275" y="476" width="21" height="22" fill="#E9FE90" class="yellow"/><rect x="1285" y="476" width="21" height="22" fill="#002060" class="darkblue"/><rect x="1285" y="433" width="21" height="21" fill="#E9FE90" class="yellow"/><rect x="1275" y="433" width="21" height="21" fill="#E9FE90" class="yellow"/><rect x="1275" y="443" width="21" height="22" fill="#E9FE90" class="yellow"/><rect x="1285" y="443" width="21" height="22" fill="#5DFF61"/><rect x="1316" y="433" width="21" height="21" fill="#E9FE90" class="yellow"/><rect x="1306" y="433" width="20" height="21" fill="#E9FE90" class="yellow"/><rect x="1306" y="443" width="20" height="22" fill="#E9FE90" class="yellow"/><rect x="1316" y="443" width="21" height="22" fill="#0CFCBD" class="turquoise"/><rect x="1255" y="465" width="20" height="22" fill="#002060" class="darkblue"/><rect x="1244" y="465" width="21" height="22" fill="#002060" class="darkblue"/><rect x="1244" y="476" width="21" height="22" fill="#002060" class="darkblue"/><rect x="1255" y="476" width="20" height="22" fill="#0CFCBD" class="turquoise"/><rect x="1224" y="465" width="20" height="22" fill="#002060" class="darkblue"/><rect x="1214" y="465" width="20" height="22" fill="#002060" class="darkblue"/><rect x="1214" y="476" width="20" height="22" fill="#002060" class="darkblue"/><rect x="1224" y="476" width="20" height="22" fill="#E9FE90" class="yellow"/><rect x="1224" y="433" width="20" height="21" fill="#002060" class="darkblue"/><rect x="1214" y="433" width="20" height="21" fill="#002060" class="darkblue"/><rect x="1214" y="443" width="20" height="22" fill="#002060" class="darkblue"/><rect x="1224" y="443" width="20" height="22" fill="#5DFF61"/><rect x="1255" y="433" width="20" height="21" fill="#002060" class="darkblue"/><rect x="1244" y="433" width="21" height="21" fill="#002060" class="darkblue"/><rect x="1244" y="443" width="21" height="22" fill="#002060" class="darkblue"/><rect x="1255" y="443" width="20" height="22" fill="#1A00DA" class="blue"/><rect x="1316" y="400" width="21" height="22" fill="#0CFCBD" class="turquoise"/><rect x="1306" y="400" width="20" height="22" fill="#0CFCBD" class="turquoise"/><rect x="1306" y="411" width="20" height="22" fill="#0CFCBD" class="turquoise"/><rect x="1316" y="411" width="21" height="22" fill="#5DFF61"/><rect x="1285" y="400" width="21" height="22" fill="#0CFCBD" class="turquoise"/><rect x="1275" y="400" width="21" height="22" fill="#0CFCBD" class="turquoise"/><rect x="1275" y="411" width="21" height="22" fill="#0CFCBD" class="turquoise"/><rect x="1285" y="411" width="21" height="22" fill="#1A00DA" class="blue"/><rect x="1285" y="368" width="21" height="21" fill="#0CFCBD" class="turquoise"/><rect x="1275" y="368" width="21" height="21" fill="#0CFCBD" class="turquoise"/><rect x="1275" y="378" width="21" height="22" fill="#0CFCBD" class="turquoise"/><rect x="1285" y="378" width="21" height="22" fill="#E9FE90" class="yellow"/><rect x="1316" y="368" width="21" height="21" fill="#0CFCBD" class="turquoise"/><rect x="1306" y="368" width="20" height="21" fill="#0CFCBD" class="turquoise"/><rect x="1306" y="378" width="20" height="22" fill="#0CFCBD" class="turquoise"/><rect x="1316" y="378" width="21" height="22" fill="#002060" class="darkblue"/><rect x="1244" y="304" width="21" height="21" fill="#1A00DA" class="blue"/><rect x="1244" y="314" width="21" height="22" fill="#1A00DA" class="blue"/><rect x="1255" y="314" width="20" height="22" fill="#1A00DA" class="blue"/><rect x="1255" y="304" width="20" height="21" fill="#E9FE90" class="yellow"/><rect x="1244" y="336" width="21" height="22" fill="#1A00DA" class="blue"/><rect x="1244" y="347" width="21" height="22" fill="#1A00DA" class="blue"/><rect x="1255" y="347" width="20" height="22" fill="#1A00DA" class="blue"/><rect x="1255" y="336" width="20" height="22" fill="#0CFCBD" class="turquoise"/><rect x="1213" y="336" width="21" height="22" fill="#1A00DA" class="blue"/><rect x="1213" y="347" width="21" height="22" fill="#1A00DA" class="blue"/><rect x="1224" y="347" width="20" height="22" fill="#1A00DA" class="blue"/><rect x="1224" y="336" width="20" height="22" fill="#002060" class="darkblue"/><rect x="1213" y="304" width="21" height="21" fill="#1A00DA" class="blue"/><rect x="1213" y="314" width="21" height="22" fill="#1A00DA" class="blue"/><rect x="1224" y="314" width="20" height="22" fill="#1A00DA" class="blue"/><rect x="1224" y="304" width="20" height="21" fill="#5DFF61"/><rect x="1306" y="239" width="20" height="21" fill="#E9FE90" class="yellow"/><rect x="1306" y="249" width="20" height="22" fill="#E9FE90" class="yellow"/><rect x="1316" y="249" width="21" height="22" fill="#E9FE90" class="yellow"/><rect x="1316" y="239" width="21" height="21" fill="#1A00DA" class="blue"/><rect x="1306" y="271" width="20" height="22" fill="#E9FE90" class="yellow"/><rect x="1306" y="282" width="20" height="22" fill="#E9FE90" class="yellow"/><rect x="1316" y="282" width="21" height="22" fill="#E9FE90" class="yellow"/><rect x="1316" y="271" width="21" height="22" fill="#002060" class="darkblue"/><rect x="1275" y="271" width="21" height="22" fill="#E9FE90" class="yellow"/><rect x="1275" y="282" width="21" height="22" fill="#E9FE90" class="yellow"/><rect x="1285" y="282" width="21" height="22" fill="#E9FE90" class="yellow"/><rect x="1285" y="271" width="21" height="22" fill="#5DFF61"/><rect x="1275" y="239" width="21" height="21" fill="#E9FE90" class="yellow"/><rect x="1275" y="249" width="21" height="22" fill="#E9FE90" class="yellow"/><rect x="1285" y="249" width="21" height="22" fill="#E9FE90" class="yellow"/><rect x="1285" y="239" width="21" height="21" fill="#0CFCBD" class="turquoise"/><rect x="1306" y="304" width="20" height="21" fill="#002060" class="darkblue"/><rect x="1306" y="314" width="20" height="22" fill="#002060" class="darkblue"/><rect x="1316" y="314" width="21" height="22" fill="#002060" class="darkblue"/><rect x="1316" y="304" width="21" height="21" fill="#0CFCBD" class="turquoise"/><rect x="1306" y="336" width="20" height="22" fill="#002060" class="darkblue"/><rect x="1306" y="347" width="20" height="22" fill="#002060" class="darkblue"/><rect x="1316" y="347" width="21" height="22" fill="#002060" class="darkblue"/><rect x="1316" y="336" width="21" height="22" fill="#E9FE90" class="yellow"/><rect x="1275" y="336" width="21" height="22" fill="#002060" class="darkblue"/><rect x="1275" y="347" width="21" height="22" fill="#002060" class="darkblue"/><rect x="1285" y="347" width="21" height="22" fill="#002060" class="darkblue"/><rect x="1285" y="336" width="21" height="22" fill="#5DFF61"/><rect x="1275" y="304" width="21" height="21" fill="#002060" class="darkblue"/><rect x="1275" y="314" width="21" height="22" fill="#002060" class="darkblue"/><rect x="1285" y="314" width="21" height="22" fill="#002060" class="darkblue"/><rect x="1285" y="304" width="21" height="21" fill="#1A00DA" class="blue"/><rect x="1244" y="239" width="21" height="21" fill="#0CFCBD" class="turquoise"/><rect x="1244" y="250" width="21" height="21" fill="#0CFCBD" class="turquoise"/><rect x="1255" y="250" width="20" height="21" fill="#0CFCBD" class="turquoise"/><rect x="1255" y="239" width="20" height="21" fill="#5DFF61"/><rect x="1244" y="271" width="21" height="22" fill="#0CFCBD" class="turquoise"/><rect x="1244" y="282" width="21" height="22" fill="#0CFCBD" class="turquoise"/><rect x="1255" y="282" width="20" height="22" fill="#0CFCBD" class="turquoise"/><rect x="1255" y="271" width="20" height="22" fill="#1A00DA" class="blue"/><rect x="1213" y="271" width="21" height="22" fill="#0CFCBD" class="turquoise"/><rect x="1213" y="282" width="21" height="22" fill="#0CFCBD" class="turquoise"/><rect x="1224" y="282" width="20" height="22" fill="#0CFCBD" class="turquoise"/><rect x="1224" y="271" width="20" height="22" fill="#E9FE90" class="yellow"/><rect x="1213" y="239" width="21" height="21" fill="#0CFCBD" class="turquoise"/><rect x="1213" y="250" width="21" height="21" fill="#0CFCBD" class="turquoise"/><rect x="1224" y="250" width="20" height="21" fill="#0CFCBD" class="turquoise"/><rect x="1224" y="239" width="20" height="21" fill="#002060" class="darkblue"/><rect x="1163" y="412" width="21" height="22" fill="#1A00DA" class="blue"/><rect x="1163" y="401" width="21" height="22" fill="#1A00DA" class="blue"/><rect x="1153" y="401" width="21" height="22" fill="#1A00DA" class="blue"/><rect x="1153" y="412" width="21" height="22" fill="#E9FE90" class="yellow"/><rect x="1163" y="379" width="21" height="22" fill="#1A00DA" class="blue"/><rect x="1163" y="369" width="21" height="21" fill="#1A00DA" class="blue"/><rect x="1153" y="369" width="21" height="21" fill="#1A00DA" class="blue"/><rect x="1153" y="379" width="21" height="22" fill="#0CFCBD" class="turquoise"/><rect x="1194" y="379" width="21" height="22" fill="#1A00DA" class="blue"/><rect x="1194" y="369" width="21" height="21" fill="#1A00DA" class="blue"/><rect x="1184" y="369" width="20" height="21" fill="#1A00DA" class="blue"/><rect x="1184" y="379" width="20" height="22" fill="#002060" class="darkblue"/><rect x="1194" y="412" width="21" height="22" fill="#1A00DA" class="blue"/><rect x="1194" y="401" width="21" height="22" fill="#1A00DA" class="blue"/><rect x="1184" y="401" width="20" height="22" fill="#1A00DA" class="blue"/><rect x="1184" y="412" width="20" height="22" fill="#5DFF61"/><rect x="1102" y="477" width="20" height="22" fill="#E9FE90" class="yellow"/><rect x="1102" y="466" width="20" height="22" fill="#E9FE90" class="yellow"/><rect x="1092" y="466" width="20" height="22" fill="#E9FE90" class="yellow"/><rect x="1092" y="477" width="20" height="22" fill="#1A00DA" class="blue"/><rect x="1102" y="444" width="20" height="22" fill="#E9FE90" class="yellow"/><rect x="1102" y="434" width="20" height="21" fill="#E9FE90" class="yellow"/><rect x="1092" y="434" width="20" height="21" fill="#E9FE90" class="yellow"/><rect x="1092" y="444" width="20" height="22" fill="#002060" class="darkblue"/><rect x="1133" y="444" width="20" height="22" fill="#E9FE90" class="yellow"/><rect x="1133" y="434" width="20" height="21" fill="#E9FE90" class="yellow"/><rect x="1122" y="434" width="21" height="21" fill="#E9FE90" class="yellow"/><rect x="1122" y="444" width="21" height="22" fill="#5DFF61"/><rect x="1133" y="477" width="20" height="22" fill="#E9FE90" class="yellow"/><rect x="1133" y="466" width="20" height="22" fill="#E9FE90" class="yellow"/><rect x="1122" y="466" width="21" height="22" fill="#E9FE90" class="yellow"/><rect x="1122" y="477" width="21" height="22" fill="#0CFCBD" class="turquoise"/><rect x="1102" y="412" width="20" height="22" fill="#002060" class="darkblue"/><rect x="1102" y="401" width="20" height="22" fill="#002060" class="darkblue"/><rect x="1092" y="401" width="20" height="22" fill="#002060" class="darkblue"/><rect x="1092" y="412" width="20" height="22" fill="#0CFCBD" class="turquoise"/><rect x="1102" y="379" width="20" height="22" fill="#002060" class="darkblue"/><rect x="1102" y="369" width="20" height="21" fill="#002060" class="darkblue"/><rect x="1092" y="369" width="20" height="21" fill="#002060" class="darkblue"/><rect x="1092" y="379" width="20" height="22" fill="#E9FE90" class="yellow"/><rect x="1133" y="379" width="20" height="22" fill="#002060" class="darkblue"/><rect x="1133" y="369" width="20" height="21" fill="#002060" class="darkblue"/><rect x="1122" y="369" width="21" height="21" fill="#002060" class="darkblue"/><rect x="1122" y="379" width="21" height="22" fill="#5DFF61"/><rect x="1133" y="412" width="20" height="22" fill="#002060" class="darkblue"/><rect x="1133" y="401" width="20" height="22" fill="#002060" class="darkblue"/><rect x="1122" y="401" width="21" height="22" fill="#002060" class="darkblue"/><rect x="1122" y="412" width="21" height="22" fill="#1A00DA" class="blue"/><rect x="1163" y="477" width="21" height="22" fill="#0CFCBD" class="turquoise"/><rect x="1163" y="466" width="21" height="22" fill="#0CFCBD" class="turquoise"/><rect x="1153" y="466" width="21" height="22" fill="#0CFCBD" class="turquoise"/><rect x="1153" y="477" width="21" height="22" fill="#5DFF61"/><rect x="1163" y="444" width="21" height="22" fill="#0CFCBD" class="turquoise"/><rect x="1163" y="434" width="21" height="21" fill="#0CFCBD" class="turquoise"/><rect x="1153" y="434" width="21" height="21" fill="#0CFCBD" class="turquoise"/><rect x="1153" y="444" width="21" height="22" fill="#1A00DA" class="blue"/><rect x="1194" y="444" width="21" height="22" fill="#0CFCBD" class="turquoise"/><rect x="1194" y="434" width="21" height="21" fill="#0CFCBD" class="turquoise"/><rect x="1184" y="434" width="20" height="21" fill="#0CFCBD" class="turquoise"/><rect x="1184" y="444" width="20" height="22" fill="#E9FE90" class="yellow"/><rect x="1194" y="477" width="21" height="22" fill="#0CFCBD" class="turquoise"/><rect x="1194" y="466" width="21" height="22" fill="#0CFCBD" class="turquoise"/><rect x="1184" y="466" width="20" height="22" fill="#0CFCBD" class="turquoise"/><rect x="1184" y="477" width="20" height="22" fill="#002060" class="darkblue"/><rect x="1023" y="584" width="375" height="23" fill="#0CFCBD" class="turquoise"/><rect x="1023" y="628" width="375" height="23" fill="#0CFCBD" class="turquoise"/><rect x="1023" y="672" width="375" height="23" fill="#0CFCBD" class="turquoise"/><rect x="1023" y="716" width="375" height="23" fill="#0CFCBD" class="turquoise"/><rect x="1023" y="760" width="375" height="23" fill="#0CFCBD" class="turquoise"/><rect x="1023" y="804" width="375" height="23" fill="#0CFCBD" class="turquoise"/><rect x="1023" y="848" width="375" height="23" fill="#0CFCBD" class="turquoise"/><rect x="1023" y="892" width="375" height="23" fill="#0CFCBD" class="turquoise"/><rect x="1023" y="936" width="375" height="23" fill="#0CFCBD" class="turquoise"/><rect x="607" y="169" width="374" height="49" fill="#0CFCBD" class="turquoise"/><rect x="607" y="262" width="374" height="48" fill="#0CFCBD" class="turquoise"/><rect x="607" y="355" width="374" height="48" fill="#0CFCBD" class="turquoise"/><rect x="607" y="447" width="374" height="49" fill="#0CFCBD" class="turquoise"/><rect x="607" y="540" width="374" height="49" fill="#0CFCBD" class="turquoise"/><rect x="607" y="633" width="374" height="48" fill="#0CFCBD" class="turquoise"/><rect x="607" y="725" width="374" height="49" fill="#0CFCBD" class="turquoise"/><rect x="607" y="818" width="374" height="49" fill="#0CFCBD" class="turquoise"/><rect x="607" y="911" width="374" height="48" fill="#0CFCBD" class="turquoise"/></g></svg>