<svg width="1127" height="1127" xmlns="http://www.w3.org/2000/svg" xmlns:xlink="http://www.w3.org/1999/xlink" overflow="hidden"><defs><clipPath id="clip0"><path d="M-1-1 1126-1 1126 1126-1 1126Z" fill-rule="evenodd" clip-rule="evenodd"/></clipPath></defs><g clip-path="url(#clip0)" transform="translate(1 1)"><rect x="0" y="0" width="1125" height="1125" fill="#FFF0E5"/><rect x="593" y="59" width="479" height="507" fill="#0CFCBD"/><rect x="642" y="105" width="388" height="410" fill="#E9FE90"/><rect x="757" y="245" width="26" height="28" fill="#1A00DA"/><rect x="770" y="245" width="27" height="28" fill="#1A00DA"/><rect x="770" y="231" width="27" height="28" fill="#1A00DA"/><rect x="757" y="231" width="26" height="28" fill="#E9FE90"/><rect x="797" y="245" width="26" height="28" fill="#1A00DA"/><rect x="810" y="245" width="26" height="28" fill="#1A00DA"/><rect x="810" y="231" width="26" height="28" fill="#1A00DA"/><rect x="797" y="231" width="26" height="28" fill="#0CFCBD"/><rect x="797" y="287" width="26" height="28" fill="#1A00DA"/><rect x="810" y="287" width="26" height="28" fill="#1A00DA"/><rect x="810" y="273" width="26" height="28" fill="#1A00DA"/><rect x="797" y="273" width="26" height="28" fill="#002060"/><rect x="757" y="287" width="26" height="28" fill="#1A00DA"/><rect x="770" y="287" width="27" height="28" fill="#1A00DA"/><rect x="770" y="273" width="27" height="28" fill="#1A00DA"/><rect x="757" y="273" width="26" height="28" fill="#5DFF61"/><rect x="679" y="162" width="26" height="28" fill="#E9FE90"/><rect x="692" y="162" width="26" height="28" fill="#E9FE90"/><rect x="692" y="148" width="26" height="28" fill="#E9FE90"/><rect x="679" y="148" width="26" height="28" fill="#1A00DA"/><rect x="718" y="162" width="26" height="28" fill="#E9FE90"/><rect x="731" y="162" width="26" height="28" fill="#E9FE90"/><rect x="731" y="148" width="26" height="28" fill="#E9FE90"/><rect x="718" y="148" width="26" height="28" fill="#002060"/><rect x="718" y="204" width="26" height="27" fill="#E9FE90"/><rect x="731" y="204" width="26" height="27" fill="#E9FE90"/><rect x="731" y="190" width="26" height="27" fill="#E9FE90"/><rect x="718" y="190" width="26" height="27" fill="#5DFF61"/><rect x="679" y="204" width="26" height="27" fill="#E9FE90"/><rect x="692" y="204" width="26" height="27" fill="#E9FE90"/><rect x="692" y="190" width="26" height="27" fill="#E9FE90"/><rect x="679" y="190" width="26" height="27" fill="#0CFCBD"/><rect x="757" y="162" width="26" height="28" fill="#002060"/><rect x="770" y="162" width="27" height="28" fill="#002060"/><rect x="770" y="148" width="27" height="28" fill="#002060"/><rect x="757" y="148" width="26" height="28" fill="#0CFCBD"/><rect x="797" y="162" width="26" height="28" fill="#002060"/><rect x="810" y="162" width="26" height="28" fill="#002060"/><rect x="810" y="148" width="26" height="28" fill="#002060"/><rect x="797" y="148" width="26" height="28" fill="#E9FE90"/><rect x="797" y="204" width="26" height="27" fill="#002060"/><rect x="810" y="204" width="26" height="27" fill="#002060"/><rect x="810" y="190" width="26" height="27" fill="#002060"/><rect x="797" y="190" width="26" height="27" fill="#5DFF61"/><rect x="757" y="204" width="26" height="27" fill="#002060"/><rect x="770" y="204" width="27" height="27" fill="#002060"/><rect x="770" y="190" width="27" height="27" fill="#002060"/><rect x="757" y="190" width="26" height="27" fill="#1A00DA"/><rect x="679" y="245" width="26" height="28" fill="#0CFCBD"/><rect x="692" y="245" width="26" height="28" fill="#0CFCBD"/><rect x="692" y="231" width="26" height="28" fill="#0CFCBD"/><rect x="679" y="231" width="26" height="28" fill="#5DFF61"/><rect x="718" y="245" width="26" height="28" fill="#0CFCBD"/><rect x="731" y="245" width="26" height="28" fill="#0CFCBD"/><rect x="731" y="231" width="26" height="28" fill="#0CFCBD"/><rect x="718" y="231" width="26" height="28" fill="#1A00DA"/><rect x="718" y="287" width="26" height="28" fill="#0CFCBD"/><rect x="731" y="287" width="26" height="28" fill="#0CFCBD"/><rect x="731" y="273" width="26" height="28" fill="#0CFCBD"/><rect x="718" y="273" width="26" height="28" fill="#E9FE90"/><rect x="679" y="287" width="26" height="28" fill="#0CFCBD"/><rect x="692" y="287" width="26" height="28" fill="#0CFCBD"/><rect x="692" y="273" width="26" height="28" fill="#0CFCBD"/><rect x="679" y="273" width="26" height="28" fill="#002060"/><rect x="888" y="355" width="27" height="27" fill="#1A00DA"/><rect x="875" y="355" width="27" height="27" fill="#1A00DA"/><rect x="875" y="369" width="27" height="27" fill="#1A00DA"/><rect x="888" y="369" width="27" height="27" fill="#E9FE90"/><rect x="849" y="355" width="26" height="27" fill="#1A00DA"/><rect x="836" y="355" width="26" height="27" fill="#1A00DA"/><rect x="836" y="369" width="26" height="27" fill="#1A00DA"/><rect x="849" y="369" width="26" height="27" fill="#0CFCBD"/><rect x="849" y="313" width="26" height="28" fill="#1A00DA"/><rect x="836" y="313" width="26" height="28" fill="#1A00DA"/><rect x="836" y="327" width="26" height="28" fill="#1A00DA"/><rect x="849" y="327" width="26" height="28" fill="#002060"/><rect x="888" y="313" width="27" height="28" fill="#1A00DA"/><rect x="875" y="313" width="27" height="28" fill="#1A00DA"/><rect x="875" y="327" width="27" height="28" fill="#1A00DA"/><rect x="888" y="327" width="27" height="28" fill="#5DFF61"/><rect x="967" y="438" width="26" height="28" fill="#E9FE90"/><rect x="954" y="438" width="26" height="28" fill="#E9FE90"/><rect x="954" y="452" width="26" height="28" fill="#E9FE90"/><rect x="967" y="452" width="26" height="28" fill="#1A00DA"/><rect x="928" y="438" width="26" height="28" fill="#E9FE90"/><rect x="915" y="438" width="26" height="28" fill="#E9FE90"/><rect x="915" y="452" width="26" height="28" fill="#E9FE90"/><rect x="928" y="452" width="26" height="28" fill="#002060"/><rect x="928" y="396" width="26" height="28" fill="#E9FE90"/><rect x="915" y="396" width="26" height="28" fill="#E9FE90"/><rect x="915" y="410" width="26" height="28" fill="#E9FE90"/><rect x="928" y="410" width="26" height="28" fill="#5DFF61"/><rect x="967" y="396" width="26" height="28" fill="#E9FE90"/><rect x="954" y="396" width="26" height="28" fill="#E9FE90"/><rect x="954" y="410" width="26" height="28" fill="#E9FE90"/><rect x="967" y="410" width="26" height="28" fill="#0CFCBD"/><rect x="888" y="438" width="27" height="28" fill="#002060"/><rect x="875" y="438" width="27" height="28" fill="#002060"/><rect x="875" y="452" width="27" height="28" fill="#002060"/><rect x="888" y="452" width="27" height="28" fill="#0CFCBD"/><rect x="849" y="438" width="26" height="28" fill="#002060"/><rect x="836" y="438" width="26" height="28" fill="#002060"/><rect x="836" y="452" width="26" height="28" fill="#002060"/><rect x="849" y="452" width="26" height="28" fill="#E9FE90"/><rect x="849" y="396" width="26" height="28" fill="#002060"/><rect x="836" y="396" width="26" height="28" fill="#002060"/><rect x="836" y="410" width="26" height="28" fill="#002060"/><rect x="849" y="410" width="26" height="28" fill="#5DFF61"/><rect x="888" y="396" width="27" height="28" fill="#002060"/><rect x="875" y="396" width="27" height="28" fill="#002060"/><rect x="875" y="410" width="27" height="28" fill="#002060"/><rect x="888" y="410" width="27" height="28" fill="#1A00DA"/><rect x="967" y="355" width="26" height="27" fill="#0CFCBD"/><rect x="954" y="355" width="26" height="27" fill="#0CFCBD"/><rect x="954" y="369" width="26" height="27" fill="#0CFCBD"/><rect x="967" y="369" width="26" height="27" fill="#5DFF61"/><rect x="928" y="355" width="26" height="27" fill="#0CFCBD"/><rect x="914" y="355" width="27" height="27" fill="#0CFCBD"/><rect x="914" y="369" width="27" height="27" fill="#0CFCBD"/><rect x="928" y="369" width="26" height="27" fill="#1A00DA"/><rect x="928" y="313" width="26" height="28" fill="#0CFCBD"/><rect x="914" y="313" width="27" height="28" fill="#0CFCBD"/><rect x="914" y="327" width="27" height="28" fill="#0CFCBD"/><rect x="928" y="327" width="26" height="28" fill="#E9FE90"/><rect x="967" y="313" width="26" height="28" fill="#0CFCBD"/><rect x="954" y="313" width="26" height="28" fill="#0CFCBD"/><rect x="954" y="327" width="26" height="28" fill="#0CFCBD"/><rect x="967" y="327" width="26" height="28" fill="#002060"/><rect x="875" y="231" width="26" height="28" fill="#1A00DA"/><rect x="875" y="245" width="26" height="28" fill="#1A00DA"/><rect x="888" y="245" width="26" height="28" fill="#1A00DA"/><rect x="888" y="231" width="26" height="28" fill="#E9FE90"/><rect x="875" y="273" width="26" height="28" fill="#1A00DA"/><rect x="875" y="287" width="26" height="27" fill="#1A00DA"/><rect x="888" y="287" width="26" height="27" fill="#1A00DA"/><rect x="888" y="273" width="26" height="28" fill="#0CFCBD"/><rect x="836" y="273" width="26" height="28" fill="#1A00DA"/><rect x="836" y="287" width="26" height="27" fill="#1A00DA"/><rect x="849" y="287" width="26" height="27" fill="#1A00DA"/><rect x="849" y="273" width="26" height="28" fill="#002060"/><rect x="836" y="231" width="26" height="28" fill="#1A00DA"/><rect x="836" y="245" width="26" height="28" fill="#1A00DA"/><rect x="849" y="245" width="26" height="28" fill="#1A00DA"/><rect x="849" y="231" width="26" height="28" fill="#5DFF61"/><rect x="954" y="148" width="26" height="28" fill="#E9FE90"/><rect x="954" y="162" width="26" height="28" fill="#E9FE90"/><rect x="967" y="162" width="26" height="28" fill="#E9FE90"/><rect x="967" y="148" width="26" height="28" fill="#1A00DA"/><rect x="954" y="190" width="26" height="27" fill="#E9FE90"/><rect x="954" y="204" width="26" height="27" fill="#E9FE90"/><rect x="967" y="204" width="26" height="27" fill="#E9FE90"/><rect x="967" y="190" width="26" height="27" fill="#002060"/><rect x="914" y="190" width="27" height="27" fill="#E9FE90"/><rect x="914" y="204" width="27" height="27" fill="#E9FE90"/><rect x="928" y="204" width="26" height="27" fill="#E9FE90"/><rect x="928" y="190" width="26" height="27" fill="#5DFF61"/><rect x="914" y="148" width="27" height="28" fill="#E9FE90"/><rect x="914" y="162" width="27" height="28" fill="#E9FE90"/><rect x="928" y="162" width="26" height="28" fill="#E9FE90"/><rect x="928" y="148" width="26" height="28" fill="#0CFCBD"/><rect x="954" y="231" width="26" height="28" fill="#002060"/><rect x="954" y="245" width="26" height="28" fill="#002060"/><rect x="967" y="245" width="26" height="28" fill="#002060"/><rect x="967" y="231" width="26" height="28" fill="#0CFCBD"/><rect x="954" y="273" width="26" height="28" fill="#002060"/><rect x="954" y="287" width="26" height="27" fill="#002060"/><rect x="967" y="287" width="26" height="27" fill="#002060"/><rect x="967" y="273" width="26" height="28" fill="#E9FE90"/><rect x="914" y="273" width="27" height="28" fill="#002060"/><rect x="914" y="287" width="27" height="27" fill="#002060"/><rect x="928" y="287" width="26" height="27" fill="#002060"/><rect x="928" y="273" width="26" height="28" fill="#5DFF61"/><rect x="914" y="231" width="27" height="28" fill="#002060"/><rect x="914" y="245" width="27" height="28" fill="#002060"/><rect x="928" y="245" width="26" height="28" fill="#002060"/><rect x="928" y="231" width="26" height="28" fill="#1A00DA"/><rect x="875" y="148" width="26" height="28" fill="#0CFCBD"/><rect x="875" y="162" width="26" height="28" fill="#0CFCBD"/><rect x="888" y="162" width="26" height="28" fill="#0CFCBD"/><rect x="888" y="148" width="26" height="28" fill="#5DFF61"/><rect x="875" y="190" width="26" height="28" fill="#0CFCBD"/><rect x="875" y="204" width="26" height="27" fill="#0CFCBD"/><rect x="888" y="204" width="26" height="27" fill="#0CFCBD"/><rect x="888" y="190" width="26" height="28" fill="#1A00DA"/><rect x="836" y="190" width="26" height="28" fill="#0CFCBD"/><rect x="836" y="204" width="26" height="27" fill="#0CFCBD"/><rect x="849" y="204" width="26" height="27" fill="#0CFCBD"/><rect x="849" y="190" width="26" height="28" fill="#E9FE90"/><rect x="836" y="148" width="26" height="28" fill="#0CFCBD"/><rect x="836" y="162" width="26" height="28" fill="#0CFCBD"/><rect x="849" y="162" width="26" height="28" fill="#0CFCBD"/><rect x="849" y="148" width="26" height="28" fill="#002060"/><rect x="771" y="370" width="27" height="28" fill="#1A00DA"/><rect x="771" y="356" width="27" height="28" fill="#1A00DA"/><rect x="758" y="356" width="27" height="28" fill="#1A00DA"/><rect x="758" y="370" width="27" height="28" fill="#E9FE90"/><rect x="771" y="328" width="27" height="28" fill="#1A00DA"/><rect x="771" y="314" width="27" height="28" fill="#1A00DA"/><rect x="758" y="314" width="27" height="28" fill="#1A00DA"/><rect x="758" y="328" width="27" height="28" fill="#0CFCBD"/><rect x="811" y="328" width="26" height="28" fill="#1A00DA"/><rect x="811" y="314" width="26" height="28" fill="#1A00DA"/><rect x="798" y="314" width="26" height="28" fill="#1A00DA"/><rect x="798" y="328" width="26" height="28" fill="#002060"/><rect x="811" y="370" width="26" height="28" fill="#1A00DA"/><rect x="811" y="356" width="26" height="28" fill="#1A00DA"/><rect x="798" y="356" width="26" height="28" fill="#1A00DA"/><rect x="798" y="370" width="26" height="28" fill="#5DFF61"/><rect x="693" y="453" width="26" height="28" fill="#E9FE90"/><rect x="693" y="439" width="26" height="28" fill="#E9FE90"/><rect x="680" y="439" width="26" height="28" fill="#E9FE90"/><rect x="680" y="453" width="26" height="28" fill="#1A00DA"/><rect x="693" y="411" width="26" height="28" fill="#E9FE90"/><rect x="693" y="398" width="26" height="27" fill="#E9FE90"/><rect x="680" y="398" width="26" height="27" fill="#E9FE90"/><rect x="680" y="411" width="26" height="28" fill="#002060"/><rect x="732" y="411" width="26" height="28" fill="#E9FE90"/><rect x="732" y="398" width="26" height="27" fill="#E9FE90"/><rect x="719" y="398" width="26" height="27" fill="#E9FE90"/><rect x="719" y="411" width="26" height="28" fill="#5DFF61"/><rect x="732" y="453" width="26" height="28" fill="#E9FE90"/><rect x="732" y="439" width="26" height="28" fill="#E9FE90"/><rect x="719" y="439" width="26" height="28" fill="#E9FE90"/><rect x="719" y="453" width="26" height="28" fill="#0CFCBD"/><rect x="693" y="370" width="26" height="28" fill="#002060"/><rect x="693" y="356" width="26" height="28" fill="#002060"/><rect x="680" y="356" width="26" height="28" fill="#002060"/><rect x="680" y="370" width="26" height="28" fill="#0CFCBD"/><rect x="693" y="328" width="26" height="28" fill="#002060"/><rect x="693" y="314" width="26" height="28" fill="#002060"/><rect x="680" y="314" width="26" height="28" fill="#002060"/><rect x="680" y="328" width="26" height="28" fill="#E9FE90"/><rect x="732" y="328" width="26" height="28" fill="#002060"/><rect x="732" y="314" width="26" height="28" fill="#002060"/><rect x="719" y="314" width="26" height="28" fill="#002060"/><rect x="719" y="328" width="26" height="28" fill="#5DFF61"/><rect x="732" y="370" width="26" height="28" fill="#002060"/><rect x="732" y="356" width="26" height="28" fill="#002060"/><rect x="719" y="356" width="26" height="28" fill="#002060"/><rect x="719" y="370" width="26" height="28" fill="#1A00DA"/><rect x="771" y="453" width="27" height="28" fill="#0CFCBD"/><rect x="771" y="439" width="27" height="28" fill="#0CFCBD"/><rect x="758" y="439" width="27" height="28" fill="#0CFCBD"/><rect x="758" y="453" width="27" height="28" fill="#5DFF61"/><rect x="771" y="411" width="27" height="28" fill="#0CFCBD"/><rect x="771" y="397" width="27" height="28" fill="#0CFCBD"/><rect x="758" y="397" width="27" height="28" fill="#0CFCBD"/><rect x="758" y="411" width="27" height="28" fill="#1A00DA"/><rect x="811" y="411" width="26" height="28" fill="#0CFCBD"/><rect x="811" y="397" width="26" height="28" fill="#0CFCBD"/><rect x="798" y="397" width="26" height="28" fill="#0CFCBD"/><rect x="798" y="411" width="26" height="28" fill="#E9FE90"/><rect x="811" y="453" width="26" height="28" fill="#0CFCBD"/><rect x="811" y="439" width="26" height="28" fill="#0CFCBD"/><rect x="798" y="439" width="26" height="28" fill="#0CFCBD"/><rect x="798" y="453" width="26" height="28" fill="#002060"/><rect x="593" y="590" width="479" height="30" fill="#0CFCBD"/><rect x="593" y="647" width="479" height="29" fill="#0CFCBD"/><rect x="593" y="703" width="479" height="30" fill="#0CFCBD"/><rect x="593" y="759" width="479" height="30" fill="#0CFCBD"/><rect x="593" y="816" width="479" height="29" fill="#0CFCBD"/><rect x="593" y="872" width="479" height="29" fill="#0CFCBD"/><rect x="593" y="928" width="479" height="30" fill="#0CFCBD"/><rect x="593" y="985" width="479" height="29" fill="#0CFCBD"/><rect x="593" y="1041" width="479" height="29" fill="#0CFCBD"/><rect x="59" y="59" width="479" height="62" fill="#0CFCBD"/><rect x="59" y="178" width="479" height="62" fill="#0CFCBD"/><rect x="59" y="296" width="479" height="63" fill="#0CFCBD"/><rect x="59" y="415" width="479" height="62" fill="#0CFCBD"/><rect x="59" y="534" width="479" height="62" fill="#0CFCBD"/><rect x="59" y="652" width="479" height="62" fill="#0CFCBD"/><rect x="59" y="771" width="479" height="62" fill="#0CFCBD"/><rect x="59" y="890" width="479" height="62" fill="#0CFCBD"/><rect x="59" y="1008" width="479" height="62" fill="#0CFCBD"/></g></svg>