<svg width="882" height="881" xmlns="http://www.w3.org/2000/svg" xmlns:xlink="http://www.w3.org/1999/xlink" overflow="hidden"><defs><clipPath id="clip0"><path d="M559 122 1441 122 1441 1003 559 1003Z" fill-rule="evenodd" clip-rule="evenodd"/></clipPath></defs><g clip-path="url(#clip0)" transform="translate(-559 -122)"><rect x="560" y="123" width="880" height="879" fill="#FFF0E5"/><rect x="804" y="194" width="396" height="396" fill="#0CFCBD"/><rect x="845" y="230" width="320" height="320" fill="#E9FE90"/><rect x="804" y="550" width="396" height="396" fill="#0CFCBD"/><path d="M1120.34 604.353C1139.71 599.163 1159.62 610.658 1164.81 630.027 1170 649.396 1158.5 669.305 1139.13 674.495 1119.77 679.685 1099.86 668.19 1094.67 648.821 1089.48 629.452 1100.97 609.543 1120.34 604.353Z" fill="#002060" fill-rule="evenodd"/><path d="M1064.61 676.949C1083.98 671.759 1103.89 683.253 1109.08 702.623 1114.27 721.992 1102.78 741.901 1083.41 747.091 1064.04 752.281 1044.13 740.786 1038.94 721.417 1033.75 702.048 1045.25 682.139 1064.61 676.949Z" fill="#002060" fill-rule="evenodd"/><rect x="885" y="606" width="42" height="115" fill="#002060"/><rect x="848" y="644" width="116" height="42" fill="#002060"/><rect x="923" y="871" width="71" height="36" fill="#002060"/><rect x="1010" y="871" width="71" height="36" fill="#002060"/><rect x="940" y="339" width="22" height="22" fill="#1A00DA"/><rect x="951" y="339" width="21" height="22" fill="#1A00DA"/><rect x="951" y="328" width="21" height="22" fill="#1A00DA"/><rect x="940" y="328" width="22" height="22" fill="#E9FE90"/><rect x="972" y="339" width="22" height="22" fill="#1A00DA"/><rect x="983" y="339" width="22" height="22" fill="#1A00DA"/><rect x="983" y="328" width="22" height="22" fill="#1A00DA"/><rect x="972" y="328" width="22" height="22" fill="#0CFCBD"/><rect x="972" y="372" width="22" height="21" fill="#1A00DA"/><rect x="983" y="372" width="22" height="21" fill="#1A00DA"/><rect x="983" y="361" width="22" height="22" fill="#1A00DA"/><rect x="972" y="361" width="22" height="22" fill="#002060"/><rect x="940" y="372" width="22" height="21" fill="#1A00DA"/><rect x="951" y="372" width="21" height="21" fill="#1A00DA"/><rect x="951" y="361" width="21" height="22" fill="#1A00DA"/><rect x="940" y="361" width="22" height="22" fill="#5DFF61"/><rect x="875" y="274" width="22" height="22" fill="#E9FE90"/><rect x="886" y="274" width="21" height="22" fill="#E9FE90"/><rect x="886" y="263" width="21" height="22" fill="#E9FE90"/><rect x="875" y="263" width="22" height="22" fill="#1A00DA"/><rect x="907" y="274" width="22" height="22" fill="#E9FE90"/><rect x="918" y="274" width="22" height="22" fill="#E9FE90"/><rect x="918" y="263" width="22" height="22" fill="#E9FE90"/><rect x="907" y="263" width="22" height="22" fill="#002060"/><rect x="907" y="307" width="22" height="21" fill="#E9FE90"/><rect x="918" y="307" width="22" height="21" fill="#E9FE90"/><rect x="918" y="296" width="22" height="22" fill="#E9FE90"/><rect x="907" y="296" width="22" height="22" fill="#5DFF61"/><rect x="875" y="307" width="22" height="21" fill="#E9FE90"/><rect x="886" y="307" width="21" height="21" fill="#E9FE90"/><rect x="886" y="296" width="21" height="22" fill="#E9FE90"/><rect x="875" y="296" width="22" height="22" fill="#0CFCBD"/><rect x="940" y="274" width="22" height="22" fill="#002060"/><rect x="951" y="274" width="21" height="22" fill="#002060"/><rect x="951" y="263" width="21" height="22" fill="#002060"/><rect x="940" y="263" width="22" height="22" fill="#0CFCBD"/><rect x="972" y="274" width="22" height="22" fill="#002060"/><rect x="983" y="274" width="22" height="22" fill="#002060"/><rect x="983" y="263" width="22" height="22" fill="#002060"/><rect x="972" y="263" width="22" height="22" fill="#E9FE90"/><rect x="972" y="307" width="22" height="21" fill="#002060"/><rect x="983" y="307" width="22" height="21" fill="#002060"/><rect x="983" y="296" width="22" height="22" fill="#002060"/><rect x="972" y="296" width="22" height="22" fill="#5DFF61"/><rect x="940" y="307" width="22" height="21" fill="#002060"/><rect x="951" y="307" width="21" height="21" fill="#002060"/><rect x="951" y="296" width="21" height="22" fill="#002060"/><rect x="940" y="296" width="22" height="22" fill="#1A00DA"/><rect x="875" y="339" width="22" height="22" fill="#0CFCBD"/><rect x="886" y="339" width="22" height="22" fill="#0CFCBD"/><rect x="886" y="328" width="22" height="22" fill="#0CFCBD"/><rect x="875" y="328" width="22" height="22" fill="#5DFF61"/><rect x="908" y="339" width="21" height="22" fill="#0CFCBD"/><rect x="918" y="339" width="22" height="22" fill="#0CFCBD"/><rect x="918" y="328" width="22" height="22" fill="#0CFCBD"/><rect x="908" y="328" width="21" height="22" fill="#1A00DA"/><rect x="908" y="372" width="21" height="21" fill="#0CFCBD"/><rect x="918" y="372" width="22" height="21" fill="#0CFCBD"/><rect x="918" y="361" width="22" height="22" fill="#0CFCBD"/><rect x="908" y="361" width="21" height="22" fill="#E9FE90"/><rect x="875" y="372" width="22" height="21" fill="#0CFCBD"/><rect x="886" y="372" width="22" height="21" fill="#0CFCBD"/><rect x="886" y="361" width="22" height="22" fill="#0CFCBD"/><rect x="875" y="361" width="22" height="22" fill="#002060"/><rect x="1048" y="425" width="22" height="21" fill="#1A00DA"/><rect x="1037" y="425" width="22" height="21" fill="#1A00DA"/><rect x="1037" y="436" width="22" height="21" fill="#1A00DA"/><rect x="1048" y="436" width="22" height="21" fill="#E9FE90"/><rect x="1016" y="425" width="21" height="21" fill="#1A00DA"/><rect x="1005" y="425" width="22" height="21" fill="#1A00DA"/><rect x="1005" y="436" width="22" height="21" fill="#1A00DA"/><rect x="1016" y="436" width="21" height="21" fill="#0CFCBD"/><rect x="1016" y="392" width="21" height="22" fill="#1A00DA"/><rect x="1005" y="392" width="22" height="22" fill="#1A00DA"/><rect x="1005" y="403" width="22" height="22" fill="#1A00DA"/><rect x="1016" y="403" width="21" height="22" fill="#002060"/><rect x="1048" y="392" width="22" height="22" fill="#1A00DA"/><rect x="1037" y="392" width="22" height="22" fill="#1A00DA"/><rect x="1037" y="403" width="22" height="22" fill="#1A00DA"/><rect x="1048" y="403" width="22" height="22" fill="#5DFF61"/><rect x="1113" y="490" width="22" height="22" fill="#E9FE90"/><rect x="1102" y="490" width="22" height="22" fill="#E9FE90"/><rect x="1102" y="501" width="22" height="21" fill="#E9FE90"/><rect x="1113" y="501" width="22" height="21" fill="#1A00DA"/><rect x="1081" y="490" width="21" height="22" fill="#E9FE90"/><rect x="1070" y="490" width="22" height="22" fill="#E9FE90"/><rect x="1070" y="501" width="22" height="21" fill="#E9FE90"/><rect x="1081" y="501" width="21" height="21" fill="#002060"/><rect x="1081" y="457" width="21" height="22" fill="#E9FE90"/><rect x="1070" y="457" width="22" height="22" fill="#E9FE90"/><rect x="1070" y="468" width="22" height="22" fill="#E9FE90"/><rect x="1081" y="468" width="21" height="22" fill="#5DFF61"/><rect x="1113" y="457" width="22" height="22" fill="#E9FE90"/><rect x="1102" y="457" width="22" height="22" fill="#E9FE90"/><rect x="1102" y="468" width="22" height="22" fill="#E9FE90"/><rect x="1113" y="468" width="22" height="22" fill="#0CFCBD"/><rect x="1048" y="490" width="22" height="22" fill="#002060"/><rect x="1037" y="490" width="22" height="22" fill="#002060"/><rect x="1037" y="501" width="22" height="21" fill="#002060"/><rect x="1048" y="501" width="22" height="21" fill="#0CFCBD"/><rect x="1016" y="490" width="21" height="22" fill="#002060"/><rect x="1005" y="490" width="22" height="22" fill="#002060"/><rect x="1005" y="501" width="22" height="21" fill="#002060"/><rect x="1016" y="501" width="21" height="21" fill="#E9FE90"/><rect x="1016" y="457" width="21" height="22" fill="#002060"/><rect x="1005" y="457" width="22" height="22" fill="#002060"/><rect x="1005" y="468" width="22" height="22" fill="#002060"/><rect x="1016" y="468" width="21" height="22" fill="#5DFF61"/><rect x="1048" y="457" width="22" height="22" fill="#002060"/><rect x="1037" y="457" width="22" height="22" fill="#002060"/><rect x="1037" y="468" width="22" height="22" fill="#002060"/><rect x="1048" y="468" width="22" height="22" fill="#1A00DA"/><rect x="1113" y="425" width="22" height="21" fill="#0CFCBD"/><rect x="1102" y="425" width="22" height="21" fill="#0CFCBD"/><rect x="1102" y="436" width="22" height="21" fill="#0CFCBD"/><rect x="1113" y="436" width="22" height="21" fill="#5DFF61"/><rect x="1081" y="425" width="21" height="21" fill="#0CFCBD"/><rect x="1070" y="425" width="21" height="21" fill="#0CFCBD"/><rect x="1070" y="436" width="21" height="21" fill="#0CFCBD"/><rect x="1081" y="436" width="21" height="21" fill="#1A00DA"/><rect x="1081" y="392" width="21" height="22" fill="#0CFCBD"/><rect x="1070" y="392" width="21" height="22" fill="#0CFCBD"/><rect x="1070" y="403" width="21" height="22" fill="#0CFCBD"/><rect x="1081" y="403" width="21" height="22" fill="#E9FE90"/><rect x="1113" y="392" width="22" height="22" fill="#0CFCBD"/><rect x="1102" y="392" width="22" height="22" fill="#0CFCBD"/><rect x="1102" y="403" width="22" height="22" fill="#0CFCBD"/><rect x="1113" y="403" width="22" height="22" fill="#002060"/><rect x="1037" y="328" width="22" height="22" fill="#1A00DA"/><rect x="1037" y="339" width="22" height="22" fill="#1A00DA"/><rect x="1048" y="339" width="22" height="22" fill="#1A00DA"/><rect x="1048" y="328" width="22" height="22" fill="#E9FE90"/><rect x="1037" y="361" width="22" height="22" fill="#1A00DA"/><rect x="1037" y="372" width="22" height="21" fill="#1A00DA"/><rect x="1048" y="372" width="22" height="21" fill="#1A00DA"/><rect x="1048" y="361" width="22" height="22" fill="#0CFCBD"/><rect x="1005" y="361" width="21" height="22" fill="#1A00DA"/><rect x="1005" y="372" width="21" height="21" fill="#1A00DA"/><rect x="1016" y="372" width="21" height="21" fill="#1A00DA"/><rect x="1016" y="361" width="21" height="22" fill="#002060"/><rect x="1005" y="328" width="21" height="22" fill="#1A00DA"/><rect x="1005" y="339" width="21" height="22" fill="#1A00DA"/><rect x="1016" y="339" width="21" height="22" fill="#1A00DA"/><rect x="1016" y="328" width="21" height="22" fill="#5DFF61"/><rect x="1102" y="263" width="22" height="22" fill="#E9FE90"/><rect x="1102" y="274" width="22" height="22" fill="#E9FE90"/><rect x="1113" y="274" width="22" height="22" fill="#E9FE90"/><rect x="1113" y="263" width="22" height="22" fill="#1A00DA"/><rect x="1102" y="296" width="22" height="22" fill="#E9FE90"/><rect x="1102" y="307" width="22" height="21" fill="#E9FE90"/><rect x="1113" y="307" width="22" height="21" fill="#E9FE90"/><rect x="1113" y="296" width="22" height="22" fill="#002060"/><rect x="1070" y="296" width="21" height="22" fill="#E9FE90"/><rect x="1070" y="307" width="21" height="21" fill="#E9FE90"/><rect x="1081" y="307" width="21" height="21" fill="#E9FE90"/><rect x="1081" y="296" width="21" height="22" fill="#5DFF61"/><rect x="1070" y="263" width="21" height="22" fill="#E9FE90"/><rect x="1070" y="274" width="21" height="22" fill="#E9FE90"/><rect x="1081" y="274" width="21" height="22" fill="#E9FE90"/><rect x="1081" y="263" width="21" height="22" fill="#0CFCBD"/><rect x="1102" y="328" width="22" height="22" fill="#002060"/><rect x="1102" y="339" width="22" height="22" fill="#002060"/><rect x="1113" y="339" width="22" height="22" fill="#002060"/><rect x="1113" y="328" width="22" height="22" fill="#0CFCBD"/><rect x="1102" y="361" width="22" height="22" fill="#002060"/><rect x="1102" y="372" width="22" height="21" fill="#002060"/><rect x="1113" y="372" width="22" height="21" fill="#002060"/><rect x="1113" y="361" width="22" height="22" fill="#E9FE90"/><rect x="1070" y="361" width="21" height="22" fill="#002060"/><rect x="1070" y="372" width="21" height="21" fill="#002060"/><rect x="1081" y="372" width="21" height="21" fill="#002060"/><rect x="1081" y="361" width="21" height="22" fill="#5DFF61"/><rect x="1070" y="328" width="21" height="22" fill="#002060"/><rect x="1070" y="339" width="21" height="22" fill="#002060"/><rect x="1081" y="339" width="21" height="22" fill="#002060"/><rect x="1081" y="328" width="21" height="22" fill="#1A00DA"/><rect x="1037" y="263" width="22" height="22" fill="#0CFCBD"/><rect x="1037" y="274" width="22" height="22" fill="#0CFCBD"/><rect x="1048" y="274" width="22" height="22" fill="#0CFCBD"/><rect x="1048" y="263" width="22" height="22" fill="#5DFF61"/><rect x="1037" y="296" width="22" height="22" fill="#0CFCBD"/><rect x="1037" y="307" width="22" height="21" fill="#0CFCBD"/><rect x="1048" y="307" width="22" height="21" fill="#0CFCBD"/><rect x="1048" y="296" width="22" height="22" fill="#1A00DA"/><rect x="1005" y="296" width="21" height="22" fill="#0CFCBD"/><rect x="1005" y="307" width="21" height="21" fill="#0CFCBD"/><rect x="1016" y="307" width="21" height="21" fill="#0CFCBD"/><rect x="1016" y="296" width="21" height="22" fill="#E9FE90"/><rect x="1005" y="263" width="21" height="22" fill="#0CFCBD"/><rect x="1005" y="274" width="21" height="22" fill="#0CFCBD"/><rect x="1016" y="274" width="21" height="22" fill="#0CFCBD"/><rect x="1016" y="263" width="21" height="22" fill="#002060"/><rect x="952" y="437" width="21" height="21" fill="#1A00DA"/><rect x="952" y="426" width="21" height="22" fill="#1A00DA"/><rect x="941" y="426" width="22" height="22" fill="#1A00DA"/><rect x="941" y="437" width="22" height="21" fill="#E9FE90"/><rect x="952" y="404" width="21" height="22" fill="#1A00DA"/><rect x="952" y="393" width="21" height="22" fill="#1A00DA"/><rect x="941" y="393" width="22" height="22" fill="#1A00DA"/><rect x="941" y="404" width="22" height="22" fill="#0CFCBD"/><rect x="984" y="404" width="22" height="22" fill="#1A00DA"/><rect x="984" y="393" width="22" height="22" fill="#1A00DA"/><rect x="973" y="393" width="22" height="22" fill="#1A00DA"/><rect x="973" y="404" width="22" height="22" fill="#002060"/><rect x="984" y="437" width="22" height="21" fill="#1A00DA"/><rect x="984" y="426" width="22" height="22" fill="#1A00DA"/><rect x="973" y="426" width="22" height="22" fill="#1A00DA"/><rect x="973" y="437" width="22" height="21" fill="#5DFF61"/><rect x="887" y="502" width="21" height="21" fill="#E9FE90"/><rect x="887" y="491" width="21" height="22" fill="#E9FE90"/><rect x="876" y="491" width="22" height="22" fill="#E9FE90"/><rect x="876" y="502" width="22" height="21" fill="#1A00DA"/><rect x="887" y="469" width="21" height="22" fill="#E9FE90"/><rect x="887" y="458" width="21" height="22" fill="#E9FE90"/><rect x="876" y="458" width="22" height="22" fill="#E9FE90"/><rect x="876" y="469" width="22" height="22" fill="#002060"/><rect x="919" y="469" width="22" height="22" fill="#E9FE90"/><rect x="919" y="458" width="22" height="22" fill="#E9FE90"/><rect x="908" y="458" width="22" height="22" fill="#E9FE90"/><rect x="908" y="469" width="22" height="22" fill="#5DFF61"/><rect x="919" y="502" width="22" height="21" fill="#E9FE90"/><rect x="919" y="491" width="22" height="22" fill="#E9FE90"/><rect x="908" y="491" width="22" height="22" fill="#E9FE90"/><rect x="908" y="502" width="22" height="21" fill="#0CFCBD"/><rect x="887" y="437" width="21" height="21" fill="#002060"/><rect x="887" y="426" width="21" height="22" fill="#002060"/><rect x="876" y="426" width="22" height="22" fill="#002060"/><rect x="876" y="437" width="22" height="21" fill="#0CFCBD"/><rect x="887" y="404" width="21" height="22" fill="#002060"/><rect x="887" y="393" width="21" height="22" fill="#002060"/><rect x="876" y="393" width="22" height="22" fill="#002060"/><rect x="876" y="404" width="22" height="22" fill="#E9FE90"/><rect x="919" y="404" width="22" height="22" fill="#002060"/><rect x="919" y="393" width="22" height="22" fill="#002060"/><rect x="908" y="393" width="22" height="22" fill="#002060"/><rect x="908" y="404" width="22" height="22" fill="#5DFF61"/><rect x="919" y="437" width="22" height="21" fill="#002060"/><rect x="919" y="426" width="22" height="22" fill="#002060"/><rect x="908" y="426" width="22" height="22" fill="#002060"/><rect x="908" y="437" width="22" height="21" fill="#1A00DA"/><rect x="952" y="502" width="21" height="21" fill="#0CFCBD"/><rect x="952" y="491" width="21" height="21" fill="#0CFCBD"/><rect x="941" y="491" width="22" height="21" fill="#0CFCBD"/><rect x="941" y="502" width="22" height="21" fill="#5DFF61"/><rect x="952" y="469" width="21" height="22" fill="#0CFCBD"/><rect x="952" y="458" width="21" height="22" fill="#0CFCBD"/><rect x="941" y="458" width="22" height="22" fill="#0CFCBD"/><rect x="941" y="469" width="22" height="22" fill="#1A00DA"/><rect x="984" y="469" width="22" height="22" fill="#0CFCBD"/><rect x="984" y="458" width="22" height="22" fill="#0CFCBD"/><rect x="973" y="458" width="22" height="22" fill="#0CFCBD"/><rect x="973" y="469" width="22" height="22" fill="#E9FE90"/><rect x="984" y="502" width="22" height="21" fill="#0CFCBD"/><rect x="984" y="491" width="22" height="21" fill="#0CFCBD"/><rect x="973" y="491" width="22" height="21" fill="#0CFCBD"/><rect x="973" y="502" width="22" height="21" fill="#002060"/></g></svg>