<svg width="1127" height="1127" xmlns="http://www.w3.org/2000/svg" xmlns:xlink="http://www.w3.org/1999/xlink" overflow="hidden"><defs><clipPath id="clip0"><path d="M-1-1 1126-1 1126 1126-1 1126Z" fill-rule="evenodd" clip-rule="evenodd"/></clipPath></defs><g clip-path="url(#clip0)" transform="translate(1 1)"><rect x="0" y="0" width="1125" height="1125" fill="#FFF0E5"/><rect x="350" y="164" width="429" height="429" fill="#0CFCBD"/><rect x="394" y="203" width="348" height="348" fill="#E9FE90"/><rect x="350" y="551" width="429" height="429" fill="#0CFCBD"/><path d="M693.312 609.342C714.311 603.715 735.894 616.177 741.521 637.175 747.147 658.173 734.686 679.757 713.688 685.383 692.689 691.009 671.106 678.548 665.479 657.55 659.853 636.552 672.314 614.968 693.312 609.342Z" fill="#002060" fill-rule="evenodd"/><path d="M632.9 688.044C653.898 682.417 675.482 694.878 681.108 715.877 686.734 736.875 674.273 758.458 653.275 764.085 632.277 769.711 610.693 757.25 605.067 736.252 599.44 715.254 611.901 693.67 632.9 688.044Z" fill="#002060" fill-rule="evenodd"/><rect x="438" y="611" width="45" height="125" fill="#002060"/><rect x="398" y="652" width="125" height="45" fill="#002060"/><rect x="479" y="898" width="77" height="39" fill="#002060"/><rect x="574" y="898" width="76" height="39" fill="#002060"/><rect x="498" y="322" width="23" height="23" fill="#1A00DA"/><rect x="509" y="322" width="24" height="23" fill="#1A00DA"/><rect x="509" y="310" width="24" height="24" fill="#1A00DA"/><rect x="498" y="310" width="23" height="24" fill="#E9FE90"/><rect x="533" y="322" width="23" height="23" fill="#1A00DA"/><rect x="545" y="322" width="23" height="23" fill="#1A00DA"/><rect x="545" y="310" width="23" height="24" fill="#1A00DA"/><rect x="533" y="310" width="23" height="24" fill="#0CFCBD"/><rect x="533" y="357" width="23" height="24" fill="#1A00DA"/><rect x="545" y="357" width="23" height="24" fill="#1A00DA"/><rect x="545" y="345" width="23" height="24" fill="#1A00DA"/><rect x="533" y="345" width="23" height="24" fill="#002060"/><rect x="498" y="357" width="23" height="24" fill="#1A00DA"/><rect x="509" y="357" width="24" height="24" fill="#1A00DA"/><rect x="509" y="345" width="24" height="24" fill="#1A00DA"/><rect x="498" y="345" width="23" height="24" fill="#5DFF61"/><rect x="427" y="251" width="24" height="24" fill="#E9FE90"/><rect x="439" y="251" width="24" height="24" fill="#E9FE90"/><rect x="439" y="240" width="24" height="23" fill="#E9FE90"/><rect x="427" y="240" width="24" height="23" fill="#1A00DA"/><rect x="463" y="251" width="23" height="24" fill="#E9FE90"/><rect x="474" y="251" width="24" height="24" fill="#E9FE90"/><rect x="474" y="240" width="24" height="23" fill="#E9FE90"/><rect x="463" y="240" width="23" height="23" fill="#002060"/><rect x="463" y="287" width="23" height="23" fill="#E9FE90"/><rect x="474" y="287" width="24" height="23" fill="#E9FE90"/><rect x="474" y="275" width="24" height="23" fill="#E9FE90"/><rect x="463" y="275" width="23" height="23" fill="#5DFF61"/><rect x="427" y="287" width="24" height="23" fill="#E9FE90"/><rect x="439" y="287" width="24" height="23" fill="#E9FE90"/><rect x="439" y="275" width="24" height="23" fill="#E9FE90"/><rect x="427" y="275" width="24" height="23" fill="#0CFCBD"/><rect x="498" y="251" width="23" height="24" fill="#002060"/><rect x="509" y="251" width="24" height="24" fill="#002060"/><rect x="509" y="240" width="24" height="23" fill="#002060"/><rect x="498" y="240" width="23" height="23" fill="#0CFCBD"/><rect x="533" y="251" width="23" height="24" fill="#002060"/><rect x="545" y="251" width="23" height="24" fill="#002060"/><rect x="545" y="240" width="23" height="23" fill="#002060"/><rect x="533" y="240" width="23" height="23" fill="#E9FE90"/><rect x="533" y="287" width="23" height="23" fill="#002060"/><rect x="545" y="287" width="23" height="23" fill="#002060"/><rect x="545" y="275" width="23" height="23" fill="#002060"/><rect x="533" y="275" width="23" height="23" fill="#5DFF61"/><rect x="498" y="287" width="23" height="23" fill="#002060"/><rect x="509" y="287" width="24" height="23" fill="#002060"/><rect x="509" y="275" width="24" height="23" fill="#002060"/><rect x="498" y="275" width="23" height="23" fill="#1A00DA"/><rect x="427" y="322" width="24" height="23" fill="#0CFCBD"/><rect x="439" y="322" width="24" height="23" fill="#0CFCBD"/><rect x="439" y="310" width="24" height="24" fill="#0CFCBD"/><rect x="427" y="310" width="24" height="24" fill="#5DFF61"/><rect x="463" y="322" width="23" height="23" fill="#0CFCBD"/><rect x="474" y="322" width="24" height="23" fill="#0CFCBD"/><rect x="474" y="310" width="24" height="24" fill="#0CFCBD"/><rect x="463" y="310" width="23" height="24" fill="#1A00DA"/><rect x="463" y="357" width="23" height="24" fill="#0CFCBD"/><rect x="474" y="357" width="24" height="24" fill="#0CFCBD"/><rect x="474" y="345" width="24" height="24" fill="#0CFCBD"/><rect x="463" y="345" width="23" height="24" fill="#E9FE90"/><rect x="427" y="357" width="24" height="24" fill="#0CFCBD"/><rect x="439" y="357" width="24" height="24" fill="#0CFCBD"/><rect x="439" y="345" width="24" height="24" fill="#0CFCBD"/><rect x="427" y="345" width="24" height="24" fill="#002060"/><rect x="615" y="415" width="24" height="23" fill="#1A00DA"/><rect x="603" y="415" width="24" height="23" fill="#1A00DA"/><rect x="603" y="426" width="24" height="24" fill="#1A00DA"/><rect x="615" y="426" width="24" height="24" fill="#E9FE90"/><rect x="580" y="415" width="23" height="23" fill="#1A00DA"/><rect x="568" y="415" width="24" height="23" fill="#1A00DA"/><rect x="568" y="426" width="24" height="24" fill="#1A00DA"/><rect x="580" y="426" width="23" height="24" fill="#0CFCBD"/><rect x="580" y="379" width="23" height="24" fill="#1A00DA"/><rect x="568" y="379" width="24" height="24" fill="#1A00DA"/><rect x="568" y="391" width="24" height="24" fill="#1A00DA"/><rect x="580" y="391" width="23" height="24" fill="#002060"/><rect x="615" y="379" width="24" height="24" fill="#1A00DA"/><rect x="603" y="379" width="24" height="24" fill="#1A00DA"/><rect x="603" y="391" width="24" height="24" fill="#1A00DA"/><rect x="615" y="391" width="24" height="24" fill="#5DFF61"/><rect x="686" y="485" width="23" height="24" fill="#E9FE90"/><rect x="674" y="485" width="23" height="24" fill="#E9FE90"/><rect x="674" y="497" width="23" height="23" fill="#E9FE90"/><rect x="686" y="497" width="23" height="23" fill="#1A00DA"/><rect x="650" y="485" width="24" height="24" fill="#E9FE90"/><rect x="639" y="485" width="23" height="24" fill="#E9FE90"/><rect x="639" y="497" width="23" height="23" fill="#E9FE90"/><rect x="650" y="497" width="24" height="23" fill="#002060"/><rect x="650" y="450" width="24" height="23" fill="#E9FE90"/><rect x="639" y="450" width="23" height="23" fill="#E9FE90"/><rect x="639" y="462" width="23" height="23" fill="#E9FE90"/><rect x="650" y="462" width="24" height="23" fill="#5DFF61"/><rect x="686" y="450" width="23" height="23" fill="#E9FE90"/><rect x="674" y="450" width="23" height="23" fill="#E9FE90"/><rect x="674" y="462" width="23" height="23" fill="#E9FE90"/><rect x="686" y="462" width="23" height="23" fill="#0CFCBD"/><rect x="615" y="485" width="24" height="24" fill="#002060"/><rect x="603" y="485" width="24" height="24" fill="#002060"/><rect x="603" y="497" width="24" height="23" fill="#002060"/><rect x="615" y="497" width="24" height="23" fill="#0CFCBD"/><rect x="580" y="485" width="23" height="24" fill="#002060"/><rect x="568" y="485" width="24" height="24" fill="#002060"/><rect x="568" y="497" width="24" height="23" fill="#002060"/><rect x="580" y="497" width="23" height="23" fill="#E9FE90"/><rect x="580" y="450" width="23" height="23" fill="#002060"/><rect x="568" y="450" width="24" height="23" fill="#002060"/><rect x="568" y="462" width="24" height="23" fill="#002060"/><rect x="580" y="462" width="23" height="23" fill="#5DFF61"/><rect x="615" y="450" width="24" height="23" fill="#002060"/><rect x="603" y="450" width="24" height="23" fill="#002060"/><rect x="603" y="462" width="24" height="23" fill="#002060"/><rect x="615" y="462" width="24" height="23" fill="#1A00DA"/><rect x="686" y="415" width="23" height="23" fill="#0CFCBD"/><rect x="674" y="415" width="23" height="23" fill="#0CFCBD"/><rect x="674" y="426" width="23" height="24" fill="#0CFCBD"/><rect x="686" y="426" width="23" height="24" fill="#5DFF61"/><rect x="650" y="415" width="24" height="23" fill="#0CFCBD"/><rect x="639" y="415" width="23" height="23" fill="#0CFCBD"/><rect x="639" y="426" width="23" height="24" fill="#0CFCBD"/><rect x="650" y="426" width="24" height="24" fill="#1A00DA"/><rect x="650" y="379" width="24" height="24" fill="#0CFCBD"/><rect x="639" y="379" width="23" height="24" fill="#0CFCBD"/><rect x="639" y="391" width="23" height="24" fill="#0CFCBD"/><rect x="650" y="391" width="24" height="24" fill="#E9FE90"/><rect x="686" y="379" width="23" height="24" fill="#0CFCBD"/><rect x="674" y="379" width="23" height="24" fill="#0CFCBD"/><rect x="674" y="391" width="23" height="24" fill="#0CFCBD"/><rect x="686" y="391" width="23" height="24" fill="#002060"/><rect x="603" y="310" width="24" height="24" fill="#1A00DA"/><rect x="603" y="322" width="24" height="23" fill="#1A00DA"/><rect x="615" y="322" width="24" height="23" fill="#1A00DA"/><rect x="615" y="310" width="24" height="24" fill="#E9FE90"/><rect x="603" y="345" width="24" height="24" fill="#1A00DA"/><rect x="603" y="357" width="24" height="24" fill="#1A00DA"/><rect x="615" y="357" width="24" height="24" fill="#1A00DA"/><rect x="615" y="345" width="24" height="24" fill="#0CFCBD"/><rect x="568" y="345" width="24" height="24" fill="#1A00DA"/><rect x="568" y="357" width="24" height="24" fill="#1A00DA"/><rect x="580" y="357" width="23" height="24" fill="#1A00DA"/><rect x="580" y="345" width="23" height="24" fill="#002060"/><rect x="568" y="310" width="24" height="24" fill="#1A00DA"/><rect x="568" y="322" width="24" height="23" fill="#1A00DA"/><rect x="580" y="322" width="23" height="23" fill="#1A00DA"/><rect x="580" y="310" width="23" height="24" fill="#5DFF61"/><rect x="674" y="240" width="23" height="23" fill="#E9FE90"/><rect x="674" y="251" width="23" height="24" fill="#E9FE90"/><rect x="686" y="251" width="23" height="24" fill="#E9FE90"/><rect x="686" y="240" width="23" height="23" fill="#1A00DA"/><rect x="674" y="275" width="23" height="23" fill="#E9FE90"/><rect x="674" y="287" width="23" height="23" fill="#E9FE90"/><rect x="686" y="287" width="23" height="23" fill="#E9FE90"/><rect x="686" y="275" width="23" height="23" fill="#002060"/><rect x="639" y="275" width="23" height="23" fill="#E9FE90"/><rect x="639" y="287" width="23" height="23" fill="#E9FE90"/><rect x="650" y="287" width="24" height="23" fill="#E9FE90"/><rect x="650" y="275" width="24" height="23" fill="#5DFF61"/><rect x="639" y="240" width="23" height="23" fill="#E9FE90"/><rect x="639" y="251" width="23" height="24" fill="#E9FE90"/><rect x="650" y="251" width="24" height="24" fill="#E9FE90"/><rect x="650" y="240" width="24" height="23" fill="#0CFCBD"/><rect x="674" y="310" width="23" height="24" fill="#002060"/><rect x="674" y="322" width="23" height="23" fill="#002060"/><rect x="686" y="322" width="23" height="23" fill="#002060"/><rect x="686" y="310" width="23" height="24" fill="#0CFCBD"/><rect x="674" y="345" width="23" height="24" fill="#002060"/><rect x="674" y="357" width="23" height="24" fill="#002060"/><rect x="686" y="357" width="23" height="24" fill="#002060"/><rect x="686" y="345" width="23" height="24" fill="#E9FE90"/><rect x="639" y="345" width="23" height="24" fill="#002060"/><rect x="639" y="357" width="23" height="24" fill="#002060"/><rect x="650" y="357" width="24" height="24" fill="#002060"/><rect x="650" y="345" width="24" height="24" fill="#5DFF61"/><rect x="639" y="310" width="23" height="24" fill="#002060"/><rect x="639" y="322" width="23" height="23" fill="#002060"/><rect x="650" y="322" width="24" height="23" fill="#002060"/><rect x="650" y="310" width="24" height="24" fill="#1A00DA"/><rect x="603" y="240" width="24" height="23" fill="#0CFCBD"/><rect x="603" y="251" width="24" height="24" fill="#0CFCBD"/><rect x="615" y="251" width="24" height="24" fill="#0CFCBD"/><rect x="615" y="240" width="24" height="23" fill="#5DFF61"/><rect x="603" y="275" width="24" height="24" fill="#0CFCBD"/><rect x="603" y="287" width="24" height="23" fill="#0CFCBD"/><rect x="615" y="287" width="24" height="23" fill="#0CFCBD"/><rect x="615" y="275" width="24" height="24" fill="#1A00DA"/><rect x="568" y="275" width="24" height="24" fill="#0CFCBD"/><rect x="568" y="287" width="24" height="23" fill="#0CFCBD"/><rect x="580" y="287" width="23" height="23" fill="#0CFCBD"/><rect x="580" y="275" width="23" height="24" fill="#E9FE90"/><rect x="568" y="240" width="24" height="23" fill="#0CFCBD"/><rect x="568" y="251" width="24" height="24" fill="#0CFCBD"/><rect x="580" y="251" width="23" height="24" fill="#0CFCBD"/><rect x="580" y="240" width="23" height="23" fill="#002060"/><rect x="511" y="428" width="23" height="23" fill="#1A00DA"/><rect x="511" y="416" width="23" height="23" fill="#1A00DA"/><rect x="499" y="416" width="23" height="23" fill="#1A00DA"/><rect x="499" y="428" width="23" height="23" fill="#E9FE90"/><rect x="511" y="392" width="23" height="24" fill="#1A00DA"/><rect x="511" y="381" width="23" height="23" fill="#1A00DA"/><rect x="499" y="381" width="23" height="23" fill="#1A00DA"/><rect x="499" y="392" width="23" height="24" fill="#0CFCBD"/><rect x="546" y="392" width="23" height="24" fill="#1A00DA"/><rect x="546" y="381" width="23" height="23" fill="#1A00DA"/><rect x="534" y="381" width="24" height="23" fill="#1A00DA"/><rect x="534" y="392" width="24" height="24" fill="#002060"/><rect x="546" y="428" width="23" height="23" fill="#1A00DA"/><rect x="546" y="416" width="23" height="23" fill="#1A00DA"/><rect x="534" y="416" width="24" height="23" fill="#1A00DA"/><rect x="534" y="428" width="24" height="23" fill="#5DFF61"/><rect x="440" y="498" width="23" height="24" fill="#E9FE90"/><rect x="440" y="486" width="23" height="24" fill="#E9FE90"/><rect x="428" y="486" width="24" height="24" fill="#E9FE90"/><rect x="428" y="498" width="24" height="24" fill="#1A00DA"/><rect x="440" y="463" width="23" height="23" fill="#E9FE90"/><rect x="440" y="451" width="23" height="24" fill="#E9FE90"/><rect x="428" y="451" width="24" height="24" fill="#E9FE90"/><rect x="428" y="463" width="24" height="23" fill="#002060"/><rect x="475" y="463" width="24" height="23" fill="#E9FE90"/><rect x="475" y="451" width="24" height="24" fill="#E9FE90"/><rect x="463" y="451" width="24" height="24" fill="#E9FE90"/><rect x="463" y="463" width="24" height="23" fill="#5DFF61"/><rect x="475" y="498" width="24" height="24" fill="#E9FE90"/><rect x="475" y="486" width="24" height="24" fill="#E9FE90"/><rect x="463" y="486" width="24" height="24" fill="#E9FE90"/><rect x="463" y="498" width="24" height="24" fill="#0CFCBD"/><rect x="440" y="428" width="23" height="23" fill="#002060"/><rect x="440" y="416" width="23" height="23" fill="#002060"/><rect x="428" y="416" width="24" height="23" fill="#002060"/><rect x="428" y="428" width="24" height="23" fill="#0CFCBD"/><rect x="440" y="392" width="23" height="24" fill="#002060"/><rect x="440" y="381" width="23" height="23" fill="#002060"/><rect x="428" y="381" width="24" height="23" fill="#002060"/><rect x="428" y="392" width="24" height="24" fill="#E9FE90"/><rect x="475" y="392" width="24" height="24" fill="#002060"/><rect x="475" y="381" width="24" height="23" fill="#002060"/><rect x="463" y="381" width="24" height="23" fill="#002060"/><rect x="463" y="392" width="24" height="24" fill="#5DFF61"/><rect x="475" y="428" width="24" height="23" fill="#002060"/><rect x="475" y="416" width="24" height="23" fill="#002060"/><rect x="463" y="416" width="24" height="23" fill="#002060"/><rect x="463" y="428" width="24" height="23" fill="#1A00DA"/><rect x="511" y="498" width="23" height="23" fill="#0CFCBD"/><rect x="511" y="486" width="23" height="24" fill="#0CFCBD"/><rect x="499" y="486" width="23" height="24" fill="#0CFCBD"/><rect x="499" y="498" width="23" height="23" fill="#5DFF61"/><rect x="511" y="463" width="23" height="23" fill="#0CFCBD"/><rect x="511" y="451" width="23" height="23" fill="#0CFCBD"/><rect x="499" y="451" width="23" height="23" fill="#0CFCBD"/><rect x="499" y="463" width="23" height="23" fill="#1A00DA"/><rect x="546" y="463" width="23" height="23" fill="#0CFCBD"/><rect x="546" y="451" width="23" height="23" fill="#0CFCBD"/><rect x="534" y="451" width="24" height="23" fill="#0CFCBD"/><rect x="534" y="463" width="24" height="23" fill="#E9FE90"/><rect x="546" y="498" width="23" height="23" fill="#0CFCBD"/><rect x="546" y="486" width="23" height="24" fill="#0CFCBD"/><rect x="534" y="486" width="24" height="24" fill="#0CFCBD"/><rect x="534" y="498" width="24" height="23" fill="#002060"/></g></svg>