<svg width="1127" height="1127" xmlns="http://www.w3.org/2000/svg" xmlns:xlink="http://www.w3.org/1999/xlink" overflow="hidden"><defs><clipPath id="clip0"><path d="M-1-1 1126-1 1126 1126-1 1126Z" fill-rule="evenodd" clip-rule="evenodd"/></clipPath></defs><g clip-path="url(#clip0)" transform="translate(1 1)"><rect x="0" y="0" width="1125" height="1125" fill="#FFF0E5"/><rect x="312" y="91" width="506" height="506" fill="#0CFCBD"/><rect x="364" y="137" width="410" height="410" fill="#E9FE90"/><rect x="312" y="547" width="506" height="507" fill="#0CFCBD"/><path d="M716.49 616.056C741.275 609.415 766.751 624.123 773.392 648.909 780.033 673.694 765.325 699.17 740.54 705.811 715.755 712.452 690.279 697.744 683.637 672.958 676.996 648.173 691.705 622.697 716.49 616.056Z" fill="#002060" fill-rule="evenodd"/><path d="M645.182 708.951C669.967 702.31 695.443 717.019 702.084 741.804 708.726 766.589 694.017 792.065 669.232 798.706 644.447 805.347 618.971 790.639 612.33 765.854 605.688 741.068 620.397 715.592 645.182 708.951Z" fill="#002060" fill-rule="evenodd"/><rect x="415" y="618" width="54" height="148" fill="#002060"/><rect x="368" y="667" width="148" height="53" fill="#002060"/><rect x="464" y="957" width="90" height="46" fill="#002060"/><rect x="575" y="957" width="91" height="46" fill="#002060"/><rect x="486" y="277" width="27" height="28" fill="#1A00DA"/><rect x="499" y="277" width="28" height="28" fill="#1A00DA"/><rect x="499" y="263" width="28" height="28" fill="#1A00DA"/><rect x="486" y="263" width="27" height="28" fill="#E9FE90"/><rect x="527" y="277" width="28" height="28" fill="#1A00DA"/><rect x="541" y="277" width="28" height="28" fill="#1A00DA"/><rect x="541" y="263" width="28" height="28" fill="#1A00DA"/><rect x="527" y="263" width="28" height="28" fill="#0CFCBD"/><rect x="527" y="318" width="28" height="28" fill="#1A00DA"/><rect x="541" y="318" width="28" height="28" fill="#1A00DA"/><rect x="541" y="305" width="28" height="27" fill="#1A00DA"/><rect x="527" y="305" width="28" height="27" fill="#002060"/><rect x="486" y="318" width="27" height="28" fill="#1A00DA"/><rect x="499" y="318" width="28" height="28" fill="#1A00DA"/><rect x="499" y="305" width="28" height="27" fill="#1A00DA"/><rect x="486" y="305" width="27" height="27" fill="#5DFF61"/><rect x="402" y="194" width="28" height="27" fill="#E9FE90"/><rect x="416" y="194" width="28" height="27" fill="#E9FE90"/><rect x="416" y="180" width="28" height="27" fill="#E9FE90"/><rect x="402" y="180" width="28" height="27" fill="#1A00DA"/><rect x="444" y="194" width="28" height="27" fill="#E9FE90"/><rect x="458" y="194" width="28" height="27" fill="#E9FE90"/><rect x="458" y="180" width="28" height="27" fill="#E9FE90"/><rect x="444" y="180" width="28" height="27" fill="#002060"/><rect x="444" y="235" width="28" height="28" fill="#E9FE90"/><rect x="458" y="235" width="28" height="28" fill="#E9FE90"/><rect x="458" y="221" width="28" height="28" fill="#E9FE90"/><rect x="444" y="221" width="28" height="28" fill="#5DFF61"/><rect x="402" y="235" width="28" height="28" fill="#E9FE90"/><rect x="416" y="235" width="28" height="28" fill="#E9FE90"/><rect x="416" y="221" width="28" height="28" fill="#E9FE90"/><rect x="402" y="221" width="28" height="28" fill="#0CFCBD"/><rect x="486" y="194" width="27" height="27" fill="#002060"/><rect x="499" y="194" width="28" height="27" fill="#002060"/><rect x="499" y="180" width="28" height="27" fill="#002060"/><rect x="486" y="180" width="27" height="27" fill="#0CFCBD"/><rect x="527" y="194" width="28" height="27" fill="#002060"/><rect x="541" y="194" width="28" height="27" fill="#002060"/><rect x="541" y="180" width="28" height="27" fill="#002060"/><rect x="527" y="180" width="28" height="27" fill="#E9FE90"/><rect x="527" y="235" width="28" height="28" fill="#002060"/><rect x="541" y="235" width="28" height="28" fill="#002060"/><rect x="541" y="221" width="28" height="28" fill="#002060"/><rect x="527" y="221" width="28" height="28" fill="#5DFF61"/><rect x="486" y="235" width="27" height="28" fill="#002060"/><rect x="499" y="235" width="28" height="28" fill="#002060"/><rect x="499" y="221" width="28" height="28" fill="#002060"/><rect x="486" y="221" width="27" height="28" fill="#1A00DA"/><rect x="403" y="277" width="27" height="28" fill="#0CFCBD"/><rect x="416" y="277" width="28" height="28" fill="#0CFCBD"/><rect x="416" y="263" width="28" height="28" fill="#0CFCBD"/><rect x="403" y="263" width="27" height="28" fill="#5DFF61"/><rect x="444" y="277" width="28" height="28" fill="#0CFCBD"/><rect x="458" y="277" width="28" height="28" fill="#0CFCBD"/><rect x="458" y="263" width="28" height="28" fill="#0CFCBD"/><rect x="444" y="263" width="28" height="28" fill="#1A00DA"/><rect x="444" y="318" width="28" height="28" fill="#0CFCBD"/><rect x="458" y="318" width="28" height="28" fill="#0CFCBD"/><rect x="458" y="305" width="28" height="27" fill="#0CFCBD"/><rect x="444" y="305" width="28" height="27" fill="#E9FE90"/><rect x="403" y="318" width="27" height="28" fill="#0CFCBD"/><rect x="416" y="318" width="28" height="28" fill="#0CFCBD"/><rect x="416" y="305" width="28" height="27" fill="#0CFCBD"/><rect x="403" y="305" width="27" height="27" fill="#002060"/><rect x="624" y="386" width="28" height="28" fill="#1A00DA"/><rect x="610" y="386" width="28" height="28" fill="#1A00DA"/><rect x="610" y="400" width="28" height="28" fill="#1A00DA"/><rect x="624" y="400" width="28" height="28" fill="#E9FE90"/><rect x="583" y="386" width="27" height="28" fill="#1A00DA"/><rect x="569" y="386" width="28" height="28" fill="#1A00DA"/><rect x="569" y="400" width="28" height="28" fill="#1A00DA"/><rect x="583" y="400" width="27" height="28" fill="#0CFCBD"/><rect x="583" y="345" width="27" height="27" fill="#1A00DA"/><rect x="569" y="345" width="28" height="27" fill="#1A00DA"/><rect x="569" y="359" width="28" height="27" fill="#1A00DA"/><rect x="583" y="359" width="27" height="27" fill="#002060"/><rect x="624" y="345" width="28" height="27" fill="#1A00DA"/><rect x="610" y="345" width="28" height="27" fill="#1A00DA"/><rect x="610" y="359" width="28" height="27" fill="#1A00DA"/><rect x="624" y="359" width="28" height="27" fill="#5DFF61"/><rect x="707" y="470" width="28" height="27" fill="#E9FE90"/><rect x="694" y="470" width="27" height="27" fill="#E9FE90"/><rect x="694" y="483" width="27" height="28" fill="#E9FE90"/><rect x="707" y="483" width="28" height="28" fill="#1A00DA"/><rect x="666" y="470" width="28" height="27" fill="#E9FE90"/><rect x="652" y="470" width="28" height="27" fill="#E9FE90"/><rect x="652" y="483" width="28" height="28" fill="#E9FE90"/><rect x="666" y="483" width="28" height="28" fill="#002060"/><rect x="666" y="428" width="28" height="28" fill="#E9FE90"/><rect x="652" y="428" width="28" height="28" fill="#E9FE90"/><rect x="652" y="442" width="28" height="28" fill="#E9FE90"/><rect x="666" y="442" width="28" height="28" fill="#5DFF61"/><rect x="707" y="428" width="28" height="28" fill="#E9FE90"/><rect x="694" y="428" width="27" height="28" fill="#E9FE90"/><rect x="694" y="442" width="27" height="28" fill="#E9FE90"/><rect x="707" y="442" width="28" height="28" fill="#0CFCBD"/><rect x="624" y="470" width="28" height="27" fill="#002060"/><rect x="610" y="470" width="28" height="27" fill="#002060"/><rect x="610" y="483" width="28" height="28" fill="#002060"/><rect x="624" y="483" width="28" height="28" fill="#0CFCBD"/><rect x="583" y="470" width="27" height="27" fill="#002060"/><rect x="569" y="470" width="28" height="27" fill="#002060"/><rect x="569" y="483" width="28" height="28" fill="#002060"/><rect x="583" y="483" width="27" height="28" fill="#E9FE90"/><rect x="583" y="428" width="27" height="28" fill="#002060"/><rect x="569" y="428" width="28" height="28" fill="#002060"/><rect x="569" y="442" width="28" height="28" fill="#002060"/><rect x="583" y="442" width="27" height="28" fill="#5DFF61"/><rect x="624" y="428" width="28" height="28" fill="#002060"/><rect x="610" y="428" width="28" height="28" fill="#002060"/><rect x="610" y="442" width="28" height="28" fill="#002060"/><rect x="624" y="442" width="28" height="28" fill="#1A00DA"/><rect x="707" y="386" width="28" height="28" fill="#0CFCBD"/><rect x="693" y="386" width="28" height="28" fill="#0CFCBD"/><rect x="693" y="400" width="28" height="28" fill="#0CFCBD"/><rect x="707" y="400" width="28" height="28" fill="#5DFF61"/><rect x="666" y="386" width="27" height="28" fill="#0CFCBD"/><rect x="652" y="386" width="28" height="28" fill="#0CFCBD"/><rect x="652" y="400" width="28" height="28" fill="#0CFCBD"/><rect x="666" y="400" width="27" height="28" fill="#1A00DA"/><rect x="666" y="345" width="27" height="27" fill="#0CFCBD"/><rect x="652" y="345" width="28" height="27" fill="#0CFCBD"/><rect x="652" y="359" width="28" height="27" fill="#0CFCBD"/><rect x="666" y="359" width="27" height="27" fill="#E9FE90"/><rect x="707" y="345" width="28" height="27" fill="#0CFCBD"/><rect x="693" y="345" width="28" height="27" fill="#0CFCBD"/><rect x="693" y="359" width="28" height="27" fill="#0CFCBD"/><rect x="707" y="359" width="28" height="27" fill="#002060"/><rect x="610" y="263" width="28" height="28" fill="#1A00DA"/><rect x="610" y="277" width="28" height="27" fill="#1A00DA"/><rect x="624" y="277" width="28" height="27" fill="#1A00DA"/><rect x="624" y="263" width="28" height="28" fill="#E9FE90"/><rect x="610" y="304" width="28" height="28" fill="#1A00DA"/><rect x="610" y="318" width="28" height="28" fill="#1A00DA"/><rect x="624" y="318" width="28" height="28" fill="#1A00DA"/><rect x="624" y="304" width="28" height="28" fill="#0CFCBD"/><rect x="569" y="304" width="27" height="28" fill="#1A00DA"/><rect x="569" y="318" width="27" height="28" fill="#1A00DA"/><rect x="582" y="318" width="28" height="28" fill="#1A00DA"/><rect x="582" y="304" width="28" height="28" fill="#002060"/><rect x="569" y="263" width="27" height="28" fill="#1A00DA"/><rect x="569" y="277" width="27" height="27" fill="#1A00DA"/><rect x="582" y="277" width="28" height="27" fill="#1A00DA"/><rect x="582" y="263" width="28" height="28" fill="#5DFF61"/><rect x="693" y="180" width="28" height="27" fill="#E9FE90"/><rect x="693" y="194" width="28" height="27" fill="#E9FE90"/><rect x="707" y="194" width="28" height="27" fill="#E9FE90"/><rect x="707" y="180" width="28" height="27" fill="#1A00DA"/><rect x="693" y="221" width="28" height="28" fill="#E9FE90"/><rect x="693" y="235" width="28" height="28" fill="#E9FE90"/><rect x="707" y="235" width="28" height="28" fill="#E9FE90"/><rect x="707" y="221" width="28" height="28" fill="#002060"/><rect x="652" y="221" width="28" height="28" fill="#E9FE90"/><rect x="652" y="235" width="28" height="28" fill="#E9FE90"/><rect x="666" y="235" width="27" height="28" fill="#E9FE90"/><rect x="666" y="221" width="27" height="28" fill="#5DFF61"/><rect x="652" y="180" width="28" height="27" fill="#E9FE90"/><rect x="652" y="194" width="28" height="27" fill="#E9FE90"/><rect x="666" y="194" width="27" height="27" fill="#E9FE90"/><rect x="666" y="180" width="27" height="27" fill="#0CFCBD"/><rect x="693" y="263" width="28" height="28" fill="#002060"/><rect x="693" y="277" width="28" height="27" fill="#002060"/><rect x="707" y="277" width="28" height="27" fill="#002060"/><rect x="707" y="263" width="28" height="28" fill="#0CFCBD"/><rect x="693" y="304" width="28" height="28" fill="#002060"/><rect x="693" y="318" width="28" height="28" fill="#002060"/><rect x="707" y="318" width="28" height="28" fill="#002060"/><rect x="707" y="304" width="28" height="28" fill="#E9FE90"/><rect x="652" y="304" width="28" height="28" fill="#002060"/><rect x="652" y="318" width="28" height="28" fill="#002060"/><rect x="666" y="318" width="27" height="28" fill="#002060"/><rect x="666" y="304" width="27" height="28" fill="#5DFF61"/><rect x="652" y="263" width="28" height="28" fill="#002060"/><rect x="652" y="277" width="28" height="27" fill="#002060"/><rect x="666" y="277" width="27" height="27" fill="#002060"/><rect x="666" y="263" width="27" height="28" fill="#1A00DA"/><rect x="610" y="180" width="28" height="28" fill="#0CFCBD"/><rect x="610" y="194" width="28" height="27" fill="#0CFCBD"/><rect x="624" y="194" width="28" height="27" fill="#0CFCBD"/><rect x="624" y="180" width="28" height="28" fill="#5DFF61"/><rect x="610" y="221" width="28" height="28" fill="#0CFCBD"/><rect x="610" y="235" width="28" height="28" fill="#0CFCBD"/><rect x="624" y="235" width="28" height="28" fill="#0CFCBD"/><rect x="624" y="221" width="28" height="28" fill="#1A00DA"/><rect x="569" y="221" width="27" height="28" fill="#0CFCBD"/><rect x="569" y="235" width="27" height="28" fill="#0CFCBD"/><rect x="582" y="235" width="28" height="28" fill="#0CFCBD"/><rect x="582" y="221" width="28" height="28" fill="#E9FE90"/><rect x="569" y="180" width="27" height="28" fill="#0CFCBD"/><rect x="569" y="194" width="27" height="27" fill="#0CFCBD"/><rect x="582" y="194" width="28" height="27" fill="#0CFCBD"/><rect x="582" y="180" width="28" height="28" fill="#002060"/><rect x="501" y="402" width="27" height="27" fill="#1A00DA"/><rect x="501" y="388" width="27" height="27" fill="#1A00DA"/><rect x="487" y="388" width="28" height="27" fill="#1A00DA"/><rect x="487" y="402" width="28" height="27" fill="#E9FE90"/><rect x="501" y="360" width="27" height="28" fill="#1A00DA"/><rect x="501" y="346" width="27" height="28" fill="#1A00DA"/><rect x="487" y="346" width="28" height="28" fill="#1A00DA"/><rect x="487" y="360" width="28" height="28" fill="#0CFCBD"/><rect x="542" y="360" width="28" height="28" fill="#1A00DA"/><rect x="542" y="346" width="28" height="28" fill="#1A00DA"/><rect x="528" y="346" width="28" height="28" fill="#1A00DA"/><rect x="528" y="360" width="28" height="28" fill="#002060"/><rect x="542" y="402" width="28" height="27" fill="#1A00DA"/><rect x="542" y="388" width="28" height="27" fill="#1A00DA"/><rect x="528" y="388" width="28" height="27" fill="#1A00DA"/><rect x="528" y="402" width="28" height="27" fill="#5DFF61"/><rect x="417" y="485" width="28" height="27" fill="#E9FE90"/><rect x="417" y="471" width="28" height="28" fill="#E9FE90"/><rect x="404" y="471" width="27" height="28" fill="#E9FE90"/><rect x="404" y="485" width="27" height="27" fill="#1A00DA"/><rect x="417" y="443" width="28" height="28" fill="#E9FE90"/><rect x="417" y="429" width="28" height="28" fill="#E9FE90"/><rect x="404" y="429" width="27" height="28" fill="#E9FE90"/><rect x="404" y="443" width="27" height="28" fill="#002060"/><rect x="459" y="443" width="28" height="28" fill="#E9FE90"/><rect x="459" y="429" width="28" height="28" fill="#E9FE90"/><rect x="445" y="429" width="28" height="28" fill="#E9FE90"/><rect x="445" y="443" width="28" height="28" fill="#5DFF61"/><rect x="459" y="485" width="28" height="27" fill="#E9FE90"/><rect x="459" y="471" width="28" height="28" fill="#E9FE90"/><rect x="445" y="471" width="28" height="28" fill="#E9FE90"/><rect x="445" y="485" width="28" height="27" fill="#0CFCBD"/><rect x="417" y="402" width="28" height="27" fill="#002060"/><rect x="417" y="388" width="28" height="27" fill="#002060"/><rect x="404" y="388" width="27" height="27" fill="#002060"/><rect x="404" y="402" width="27" height="27" fill="#0CFCBD"/><rect x="417" y="360" width="28" height="28" fill="#002060"/><rect x="417" y="346" width="28" height="28" fill="#002060"/><rect x="404" y="346" width="27" height="28" fill="#002060"/><rect x="404" y="360" width="27" height="28" fill="#E9FE90"/><rect x="459" y="360" width="28" height="28" fill="#002060"/><rect x="459" y="346" width="28" height="28" fill="#002060"/><rect x="445" y="346" width="28" height="28" fill="#002060"/><rect x="445" y="360" width="28" height="28" fill="#5DFF61"/><rect x="459" y="402" width="28" height="27" fill="#002060"/><rect x="459" y="388" width="28" height="27" fill="#002060"/><rect x="445" y="388" width="28" height="27" fill="#002060"/><rect x="445" y="402" width="28" height="27" fill="#1A00DA"/><rect x="501" y="485" width="27" height="27" fill="#0CFCBD"/><rect x="501" y="471" width="27" height="27" fill="#0CFCBD"/><rect x="487" y="471" width="28" height="27" fill="#0CFCBD"/><rect x="487" y="485" width="28" height="27" fill="#5DFF61"/><rect x="501" y="443" width="27" height="28" fill="#0CFCBD"/><rect x="501" y="429" width="27" height="28" fill="#0CFCBD"/><rect x="487" y="429" width="28" height="28" fill="#0CFCBD"/><rect x="487" y="443" width="28" height="28" fill="#1A00DA"/><rect x="542" y="443" width="28" height="28" fill="#0CFCBD"/><rect x="542" y="429" width="28" height="28" fill="#0CFCBD"/><rect x="528" y="429" width="28" height="28" fill="#0CFCBD"/><rect x="528" y="443" width="28" height="28" fill="#E9FE90"/><rect x="542" y="485" width="28" height="27" fill="#0CFCBD"/><rect x="542" y="471" width="28" height="27" fill="#0CFCBD"/><rect x="528" y="471" width="28" height="27" fill="#0CFCBD"/><rect x="528" y="485" width="28" height="27" fill="#002060"/></g></svg>