<svg width="1127" height="1127" xmlns="http://www.w3.org/2000/svg" xmlns:xlink="http://www.w3.org/1999/xlink" overflow="hidden"><defs><clipPath id="clip0"><path d="M-1-1 1126-1 1126 1126-1 1126Z" fill-rule="evenodd" clip-rule="evenodd"/></clipPath></defs><g clip-path="url(#clip0)" transform="translate(1 1)"><rect x="0" y="0" width="1125" height="1125" fill="#FFF0E5"/><rect x="589" y="131" width="411" height="434" fill="#0CFCBD"/><rect x="631" y="170" width="333" height="352" fill="#E9FE90"/><rect x="730" y="290" width="23" height="24" fill="#1A00DA"/><rect x="741" y="290" width="23" height="24" fill="#1A00DA"/><rect x="741" y="279" width="23" height="23" fill="#1A00DA"/><rect x="730" y="279" width="23" height="23" fill="#E9FE90"/><rect x="764" y="290" width="22" height="24" fill="#1A00DA"/><rect x="775" y="290" width="23" height="24" fill="#1A00DA"/><rect x="775" y="279" width="23" height="23" fill="#1A00DA"/><rect x="764" y="279" width="22" height="23" fill="#0CFCBD"/><rect x="764" y="326" width="22" height="24" fill="#1A00DA"/><rect x="775" y="326" width="23" height="24" fill="#1A00DA"/><rect x="775" y="314" width="23" height="24" fill="#1A00DA"/><rect x="764" y="314" width="22" height="24" fill="#002060"/><rect x="730" y="326" width="23" height="24" fill="#1A00DA"/><rect x="741" y="326" width="23" height="24" fill="#1A00DA"/><rect x="741" y="314" width="23" height="24" fill="#1A00DA"/><rect x="730" y="314" width="23" height="24" fill="#5DFF61"/><rect x="663" y="219" width="22" height="24" fill="#E9FE90"/><rect x="674" y="219" width="22" height="24" fill="#E9FE90"/><rect x="674" y="207" width="22" height="24" fill="#E9FE90"/><rect x="663" y="207" width="22" height="24" fill="#1A00DA"/><rect x="696" y="219" width="23" height="24" fill="#E9FE90"/><rect x="708" y="219" width="22" height="24" fill="#E9FE90"/><rect x="708" y="207" width="22" height="24" fill="#E9FE90"/><rect x="696" y="207" width="23" height="24" fill="#002060"/><rect x="696" y="255" width="23" height="24" fill="#E9FE90"/><rect x="708" y="255" width="22" height="24" fill="#E9FE90"/><rect x="708" y="243" width="22" height="24" fill="#E9FE90"/><rect x="696" y="243" width="23" height="24" fill="#5DFF61"/><rect x="663" y="255" width="22" height="24" fill="#E9FE90"/><rect x="674" y="255" width="22" height="24" fill="#E9FE90"/><rect x="674" y="243" width="22" height="24" fill="#E9FE90"/><rect x="663" y="243" width="22" height="24" fill="#0CFCBD"/><rect x="730" y="219" width="23" height="24" fill="#002060"/><rect x="741" y="219" width="23" height="24" fill="#002060"/><rect x="741" y="207" width="23" height="24" fill="#002060"/><rect x="730" y="207" width="23" height="24" fill="#0CFCBD"/><rect x="764" y="219" width="22" height="24" fill="#002060"/><rect x="775" y="219" width="23" height="24" fill="#002060"/><rect x="775" y="207" width="23" height="24" fill="#002060"/><rect x="764" y="207" width="22" height="24" fill="#E9FE90"/><rect x="764" y="255" width="22" height="24" fill="#002060"/><rect x="775" y="255" width="23" height="24" fill="#002060"/><rect x="775" y="243" width="23" height="24" fill="#002060"/><rect x="764" y="243" width="22" height="24" fill="#5DFF61"/><rect x="730" y="255" width="23" height="24" fill="#002060"/><rect x="741" y="255" width="23" height="24" fill="#002060"/><rect x="741" y="243" width="23" height="24" fill="#002060"/><rect x="730" y="243" width="23" height="24" fill="#1A00DA"/><rect x="663" y="290" width="22" height="24" fill="#0CFCBD"/><rect x="674" y="290" width="22" height="24" fill="#0CFCBD"/><rect x="674" y="279" width="22" height="23" fill="#0CFCBD"/><rect x="663" y="279" width="22" height="23" fill="#5DFF61"/><rect x="696" y="290" width="23" height="24" fill="#0CFCBD"/><rect x="708" y="290" width="22" height="24" fill="#0CFCBD"/><rect x="708" y="279" width="22" height="23" fill="#0CFCBD"/><rect x="696" y="279" width="23" height="23" fill="#1A00DA"/><rect x="696" y="326" width="23" height="24" fill="#0CFCBD"/><rect x="708" y="326" width="22" height="24" fill="#0CFCBD"/><rect x="708" y="314" width="22" height="24" fill="#0CFCBD"/><rect x="696" y="314" width="23" height="24" fill="#E9FE90"/><rect x="663" y="326" width="22" height="24" fill="#0CFCBD"/><rect x="674" y="326" width="22" height="24" fill="#0CFCBD"/><rect x="674" y="314" width="22" height="24" fill="#0CFCBD"/><rect x="663" y="314" width="22" height="24" fill="#002060"/><rect x="843" y="384" width="22" height="24" fill="#1A00DA"/><rect x="831" y="384" width="23" height="24" fill="#1A00DA"/><rect x="831" y="396" width="23" height="24" fill="#1A00DA"/><rect x="843" y="396" width="22" height="24" fill="#E9FE90"/><rect x="809" y="384" width="22" height="24" fill="#1A00DA"/><rect x="798" y="384" width="22" height="24" fill="#1A00DA"/><rect x="798" y="396" width="22" height="24" fill="#1A00DA"/><rect x="809" y="396" width="22" height="24" fill="#0CFCBD"/><rect x="809" y="349" width="22" height="24" fill="#1A00DA"/><rect x="798" y="349" width="22" height="24" fill="#1A00DA"/><rect x="798" y="361" width="22" height="23" fill="#1A00DA"/><rect x="809" y="361" width="22" height="23" fill="#002060"/><rect x="843" y="349" width="22" height="24" fill="#1A00DA"/><rect x="831" y="349" width="23" height="24" fill="#1A00DA"/><rect x="831" y="361" width="23" height="23" fill="#1A00DA"/><rect x="843" y="361" width="22" height="23" fill="#5DFF61"/><rect x="910" y="456" width="23" height="24" fill="#E9FE90"/><rect x="899" y="456" width="22" height="24" fill="#E9FE90"/><rect x="899" y="468" width="22" height="24" fill="#E9FE90"/><rect x="910" y="468" width="23" height="24" fill="#1A00DA"/><rect x="876" y="456" width="23" height="24" fill="#E9FE90"/><rect x="865" y="456" width="23" height="24" fill="#E9FE90"/><rect x="865" y="468" width="23" height="24" fill="#E9FE90"/><rect x="876" y="468" width="23" height="24" fill="#002060"/><rect x="876" y="420" width="23" height="24" fill="#E9FE90"/><rect x="865" y="420" width="23" height="24" fill="#E9FE90"/><rect x="865" y="432" width="23" height="24" fill="#E9FE90"/><rect x="876" y="432" width="23" height="24" fill="#5DFF61"/><rect x="910" y="420" width="23" height="24" fill="#E9FE90"/><rect x="899" y="420" width="22" height="24" fill="#E9FE90"/><rect x="899" y="432" width="22" height="24" fill="#E9FE90"/><rect x="910" y="432" width="23" height="24" fill="#0CFCBD"/><rect x="843" y="456" width="22" height="24" fill="#002060"/><rect x="831" y="456" width="23" height="24" fill="#002060"/><rect x="831" y="468" width="23" height="24" fill="#002060"/><rect x="843" y="468" width="22" height="24" fill="#0CFCBD"/><rect x="809" y="456" width="22" height="24" fill="#002060"/><rect x="798" y="456" width="22" height="24" fill="#002060"/><rect x="798" y="468" width="22" height="24" fill="#002060"/><rect x="809" y="468" width="22" height="24" fill="#E9FE90"/><rect x="809" y="420" width="22" height="24" fill="#002060"/><rect x="798" y="420" width="22" height="24" fill="#002060"/><rect x="798" y="432" width="22" height="24" fill="#002060"/><rect x="809" y="432" width="22" height="24" fill="#5DFF61"/><rect x="843" y="420" width="22" height="24" fill="#002060"/><rect x="831" y="420" width="23" height="24" fill="#002060"/><rect x="831" y="432" width="23" height="24" fill="#002060"/><rect x="843" y="432" width="22" height="24" fill="#1A00DA"/><rect x="910" y="384" width="23" height="24" fill="#0CFCBD"/><rect x="899" y="384" width="22" height="24" fill="#0CFCBD"/><rect x="899" y="396" width="22" height="24" fill="#0CFCBD"/><rect x="910" y="396" width="23" height="24" fill="#5DFF61"/><rect x="876" y="384" width="23" height="24" fill="#0CFCBD"/><rect x="865" y="384" width="23" height="24" fill="#0CFCBD"/><rect x="865" y="396" width="23" height="24" fill="#0CFCBD"/><rect x="876" y="396" width="23" height="24" fill="#1A00DA"/><rect x="876" y="349" width="23" height="24" fill="#0CFCBD"/><rect x="865" y="349" width="23" height="24" fill="#0CFCBD"/><rect x="865" y="361" width="23" height="23" fill="#0CFCBD"/><rect x="876" y="361" width="23" height="23" fill="#E9FE90"/><rect x="910" y="349" width="23" height="24" fill="#0CFCBD"/><rect x="899" y="349" width="22" height="24" fill="#0CFCBD"/><rect x="899" y="361" width="22" height="23" fill="#0CFCBD"/><rect x="910" y="361" width="23" height="23" fill="#002060"/><rect x="831" y="278" width="23" height="24" fill="#1A00DA"/><rect x="831" y="290" width="23" height="24" fill="#1A00DA"/><rect x="842" y="290" width="23" height="24" fill="#1A00DA"/><rect x="842" y="278" width="23" height="24" fill="#E9FE90"/><rect x="831" y="314" width="23" height="24" fill="#1A00DA"/><rect x="831" y="326" width="23" height="24" fill="#1A00DA"/><rect x="842" y="326" width="23" height="24" fill="#1A00DA"/><rect x="842" y="314" width="23" height="24" fill="#0CFCBD"/><rect x="797" y="314" width="23" height="24" fill="#1A00DA"/><rect x="797" y="326" width="23" height="24" fill="#1A00DA"/><rect x="809" y="326" width="22" height="24" fill="#1A00DA"/><rect x="809" y="314" width="22" height="24" fill="#002060"/><rect x="797" y="278" width="23" height="24" fill="#1A00DA"/><rect x="797" y="290" width="23" height="24" fill="#1A00DA"/><rect x="809" y="290" width="22" height="24" fill="#1A00DA"/><rect x="809" y="278" width="22" height="24" fill="#5DFF61"/><rect x="899" y="207" width="22" height="24" fill="#E9FE90"/><rect x="899" y="219" width="22" height="24" fill="#E9FE90"/><rect x="910" y="219" width="23" height="24" fill="#E9FE90"/><rect x="910" y="207" width="23" height="24" fill="#1A00DA"/><rect x="899" y="243" width="22" height="24" fill="#E9FE90"/><rect x="899" y="255" width="22" height="24" fill="#E9FE90"/><rect x="910" y="255" width="23" height="24" fill="#E9FE90"/><rect x="910" y="243" width="23" height="24" fill="#002060"/><rect x="865" y="243" width="23" height="24" fill="#E9FE90"/><rect x="865" y="255" width="23" height="24" fill="#E9FE90"/><rect x="876" y="255" width="23" height="24" fill="#E9FE90"/><rect x="876" y="243" width="23" height="24" fill="#5DFF61"/><rect x="865" y="207" width="23" height="24" fill="#E9FE90"/><rect x="865" y="219" width="23" height="24" fill="#E9FE90"/><rect x="876" y="219" width="23" height="24" fill="#E9FE90"/><rect x="876" y="207" width="23" height="24" fill="#0CFCBD"/><rect x="899" y="278" width="22" height="24" fill="#002060"/><rect x="899" y="290" width="22" height="24" fill="#002060"/><rect x="910" y="290" width="23" height="24" fill="#002060"/><rect x="910" y="278" width="23" height="24" fill="#0CFCBD"/><rect x="899" y="314" width="22" height="24" fill="#002060"/><rect x="899" y="326" width="22" height="24" fill="#002060"/><rect x="910" y="326" width="23" height="24" fill="#002060"/><rect x="910" y="314" width="23" height="24" fill="#E9FE90"/><rect x="865" y="314" width="23" height="24" fill="#002060"/><rect x="865" y="326" width="23" height="24" fill="#002060"/><rect x="876" y="326" width="23" height="24" fill="#002060"/><rect x="876" y="314" width="23" height="24" fill="#5DFF61"/><rect x="865" y="278" width="23" height="24" fill="#002060"/><rect x="865" y="290" width="23" height="24" fill="#002060"/><rect x="876" y="290" width="23" height="24" fill="#002060"/><rect x="876" y="278" width="23" height="24" fill="#1A00DA"/><rect x="831" y="207" width="23" height="24" fill="#0CFCBD"/><rect x="831" y="219" width="23" height="24" fill="#0CFCBD"/><rect x="842" y="219" width="23" height="24" fill="#0CFCBD"/><rect x="842" y="207" width="23" height="24" fill="#5DFF61"/><rect x="831" y="243" width="23" height="24" fill="#0CFCBD"/><rect x="831" y="255" width="23" height="24" fill="#0CFCBD"/><rect x="842" y="255" width="23" height="24" fill="#0CFCBD"/><rect x="842" y="243" width="23" height="24" fill="#1A00DA"/><rect x="797" y="243" width="23" height="24" fill="#0CFCBD"/><rect x="797" y="255" width="23" height="24" fill="#0CFCBD"/><rect x="809" y="255" width="22" height="24" fill="#0CFCBD"/><rect x="809" y="243" width="22" height="24" fill="#E9FE90"/><rect x="797" y="207" width="23" height="24" fill="#0CFCBD"/><rect x="797" y="219" width="23" height="24" fill="#0CFCBD"/><rect x="809" y="219" width="22" height="24" fill="#0CFCBD"/><rect x="809" y="207" width="22" height="24" fill="#002060"/><rect x="742" y="398" width="23" height="23" fill="#1A00DA"/><rect x="742" y="386" width="23" height="23" fill="#1A00DA"/><rect x="731" y="386" width="23" height="23" fill="#1A00DA"/><rect x="731" y="398" width="23" height="23" fill="#E9FE90"/><rect x="742" y="362" width="23" height="24" fill="#1A00DA"/><rect x="742" y="350" width="23" height="24" fill="#1A00DA"/><rect x="731" y="350" width="23" height="24" fill="#1A00DA"/><rect x="731" y="362" width="23" height="24" fill="#0CFCBD"/><rect x="776" y="362" width="23" height="24" fill="#1A00DA"/><rect x="776" y="350" width="23" height="24" fill="#1A00DA"/><rect x="765" y="350" width="22" height="24" fill="#1A00DA"/><rect x="765" y="362" width="22" height="24" fill="#002060"/><rect x="776" y="398" width="23" height="23" fill="#1A00DA"/><rect x="776" y="386" width="23" height="23" fill="#1A00DA"/><rect x="765" y="386" width="22" height="23" fill="#1A00DA"/><rect x="765" y="398" width="22" height="23" fill="#5DFF61"/><rect x="675" y="469" width="22" height="24" fill="#E9FE90"/><rect x="675" y="457" width="22" height="24" fill="#E9FE90"/><rect x="663" y="457" width="23" height="24" fill="#E9FE90"/><rect x="663" y="469" width="23" height="24" fill="#1A00DA"/><rect x="675" y="433" width="22" height="24" fill="#E9FE90"/><rect x="675" y="421" width="22" height="24" fill="#E9FE90"/><rect x="663" y="421" width="23" height="24" fill="#E9FE90"/><rect x="663" y="433" width="23" height="24" fill="#002060"/><rect x="709" y="433" width="22" height="24" fill="#E9FE90"/><rect x="709" y="421" width="22" height="24" fill="#E9FE90"/><rect x="697" y="421" width="23" height="24" fill="#E9FE90"/><rect x="697" y="433" width="23" height="24" fill="#5DFF61"/><rect x="709" y="469" width="22" height="24" fill="#E9FE90"/><rect x="709" y="457" width="22" height="24" fill="#E9FE90"/><rect x="697" y="457" width="23" height="24" fill="#E9FE90"/><rect x="697" y="469" width="23" height="24" fill="#0CFCBD"/><rect x="675" y="398" width="22" height="23" fill="#002060"/><rect x="675" y="386" width="22" height="23" fill="#002060"/><rect x="663" y="386" width="23" height="23" fill="#002060"/><rect x="663" y="398" width="23" height="23" fill="#0CFCBD"/><rect x="675" y="362" width="22" height="24" fill="#002060"/><rect x="675" y="350" width="22" height="24" fill="#002060"/><rect x="663" y="350" width="23" height="24" fill="#002060"/><rect x="663" y="362" width="23" height="24" fill="#E9FE90"/><rect x="709" y="362" width="22" height="24" fill="#002060"/><rect x="709" y="350" width="22" height="24" fill="#002060"/><rect x="697" y="350" width="23" height="24" fill="#002060"/><rect x="697" y="362" width="23" height="24" fill="#5DFF61"/><rect x="709" y="398" width="22" height="23" fill="#002060"/><rect x="709" y="386" width="22" height="23" fill="#002060"/><rect x="697" y="386" width="23" height="23" fill="#002060"/><rect x="697" y="398" width="23" height="23" fill="#1A00DA"/><rect x="742" y="469" width="23" height="24" fill="#0CFCBD"/><rect x="742" y="457" width="23" height="24" fill="#0CFCBD"/><rect x="731" y="457" width="23" height="24" fill="#0CFCBD"/><rect x="731" y="469" width="23" height="24" fill="#5DFF61"/><rect x="742" y="433" width="23" height="24" fill="#0CFCBD"/><rect x="742" y="421" width="23" height="24" fill="#0CFCBD"/><rect x="731" y="421" width="23" height="24" fill="#0CFCBD"/><rect x="731" y="433" width="23" height="24" fill="#1A00DA"/><rect x="776" y="433" width="23" height="24" fill="#0CFCBD"/><rect x="776" y="421" width="23" height="24" fill="#0CFCBD"/><rect x="765" y="421" width="22" height="24" fill="#0CFCBD"/><rect x="765" y="433" width="22" height="24" fill="#E9FE90"/><rect x="776" y="469" width="23" height="24" fill="#0CFCBD"/><rect x="776" y="457" width="23" height="24" fill="#0CFCBD"/><rect x="765" y="457" width="22" height="24" fill="#0CFCBD"/><rect x="765" y="469" width="22" height="24" fill="#002060"/><rect x="589" y="587" width="411" height="25" fill="#0CFCBD"/><rect x="589" y="635" width="411" height="25" fill="#0CFCBD"/><rect x="589" y="683" width="411" height="26" fill="#0CFCBD"/><rect x="589" y="732" width="411" height="25" fill="#0CFCBD"/><rect x="589" y="780" width="411" height="25" fill="#0CFCBD"/><rect x="589" y="828" width="411" height="26" fill="#0CFCBD"/><rect x="589" y="877" width="411" height="25" fill="#0CFCBD"/><rect x="589" y="925" width="411" height="25" fill="#0CFCBD"/><rect x="589" y="973" width="411" height="26" fill="#0CFCBD"/><rect x="131" y="131" width="411" height="53" fill="#0CFCBD"/><rect x="131" y="233" width="411" height="53" fill="#0CFCBD"/><rect x="131" y="334" width="411" height="54" fill="#0CFCBD"/><rect x="131" y="436" width="411" height="54" fill="#0CFCBD"/><rect x="131" y="538" width="411" height="53" fill="#0CFCBD"/><rect x="131" y="640" width="411" height="53" fill="#0CFCBD"/><rect x="131" y="742" width="411" height="53" fill="#0CFCBD"/><rect x="131" y="844" width="411" height="53" fill="#0CFCBD"/><rect x="131" y="945" width="411" height="54" fill="#0CFCBD"/></g></svg>