<svg width="992" height="993" xmlns="http://www.w3.org/2000/svg" xmlns:xlink="http://www.w3.org/1999/xlink" overflow="hidden"><defs><clipPath id="clip0"><path d="M950 66 1942 66 1942 1059 950 1059Z" fill-rule="evenodd" clip-rule="evenodd"/></clipPath></defs><g clip-path="url(#clip0)" transform="translate(-950 -66)"><rect x="951" y="68" width="990" height="989" fill="#0098F6" class="lightblue"/><path d="M1916 386.667 1916 890C1916 834.403 1811.01 789.333 1681.5 789.333 1551.99 789.333 1447 834.403 1447 890L1447 386.667C1447 331.07 1551.99 286 1681.5 286 1811.01 286 1916 331.07 1916 386.667Z" fill="#1A00DA" class="blue" fill-rule="evenodd"/><path d="M1470 386.667 1470 890C1470 834.403 1365.23 789.333 1236 789.333 1106.77 789.333 1002 834.403 1002 890L1002 386.667C1002 331.07 1106.77 286 1236 286 1365.23 286 1470 331.07 1470 386.667Z" fill="#1A00DA" class="blue" fill-rule="evenodd"/><path d="M1893 361.5 1893 864C1893 808.495 1798.31 763.5 1681.5 763.5 1564.69 763.5 1470 808.495 1470 864L1470 361.5C1470 305.995 1564.69 261 1681.5 261 1798.31 261 1893 305.995 1893 361.5Z" fill="#FFF0E5" class="beije" fill-rule="evenodd"/><path d="M1447 361.5 1447 864C1447 808.495 1352.53 763.5 1236 763.5 1119.47 763.5 1025 808.495 1025 864L1025 361.5C1025 305.995 1119.47 261 1236 261 1352.53 261 1447 305.995 1447 361.5Z" fill="#FFF0E5" class="beije" fill-rule="evenodd"/><path d="M1681.5 427.75C1730.46 290.667 1921.4 427.75 1681.5 604 1441.6 427.75 1632.54 290.667 1681.5 427.75Z" fill="#0098F6" class="lightblue" fill-rule="evenodd"/><rect x="1074" y="367" width="330" height="56" fill="#0098F6" class="lightblue"/><rect x="1074" y="437" width="330" height="56" fill="#0098F6" class="lightblue"/><rect x="1074" y="507" width="330" height="55" fill="#0098F6" class="lightblue"/><rect x="1176" y="588" width="228" height="56" fill="#0098F6" class="lightblue"/><path d="M1681.5 440.75C1730.46 303.667 1921.4 440.75 1681.5 617 1441.6 440.75 1632.54 303.667 1681.5 440.75Z" fill="#1A00DA" class="blue" fill-rule="evenodd"/><rect x="1074" y="376" width="330" height="56" fill="#1A00DA" class="blue"/><rect x="1074" y="445" width="330" height="56" fill="#1A00DA" class="blue"/><rect x="1074" y="515" width="330" height="56" fill="#1A00DA" class="blue"/><rect x="1176" y="596" width="228" height="56" fill="#1A00DA" class="blue"/></g></svg>