<svg width="1127" height="1127" xmlns="http://www.w3.org/2000/svg" xmlns:xlink="http://www.w3.org/1999/xlink" overflow="hidden"><defs><clipPath id="clip0"><path d="M-1-1 1126-1 1126 1126-1 1126Z" fill-rule="evenodd" clip-rule="evenodd"/></clipPath></defs><g clip-path="url(#clip0)" transform="translate(1 1)"><rect x="0" y="0" width="1125" height="1125" fill="#0098F6"/><path d="M1000 402.167 1000 868C1000 816.546 902.846 774.833 783 774.833 663.154 774.833 566 816.546 566 868L566 402.167C566 350.712 663.154 309 783 309 902.846 309 1000 350.712 1000 402.167Z" fill="#1A00DA" fill-rule="evenodd"/><path d="M587 402.167 587 868C587 816.546 490.07 774.833 370.5 774.833 250.93 774.833 154 816.546 154 868L154 402.167C154 350.712 250.93 309 370.5 309 490.07 309 587 350.712 587 402.167Z" fill="#1A00DA" fill-rule="evenodd"/><path d="M979 379.167 979 845C979 793.546 891.248 751.833 783 751.833 674.752 751.833 587 793.546 587 845L587 379.167C587 327.712 674.752 286 783 286 891.248 286 979 327.712 979 379.167Z" fill="#FFF0E5" fill-rule="evenodd"/><path d="M566 379.167 566 845C566 793.546 478.472 751.833 370.5 751.833 262.528 751.833 175 793.546 175 845L175 379.167C175 327.712 262.528 286 370.5 286 478.472 286 566 327.712 566 379.167Z" fill="#FFF0E5" fill-rule="evenodd"/><path d="M783 441.25C828.417 314.667 1005.54 441.25 783 604 560.458 441.25 737.583 314.667 783 441.25Z" fill="#0098F6" fill-rule="evenodd"/><rect x="221" y="384" width="305" height="52" fill="#0098F6"/><rect x="221" y="449" width="305" height="52" fill="#0098F6"/><rect x="221" y="513" width="305" height="52" fill="#0098F6"/><rect x="315" y="589" width="211" height="51" fill="#0098F6"/><path d="M783 452.5C828.417 325.333 1005.54 452.5 783 616 560.458 452.5 737.583 325.333 783 452.5Z" fill="#1A00DA" fill-rule="evenodd"/><rect x="221" y="392" width="305" height="52" fill="#1A00DA"/><rect x="221" y="457" width="305" height="52" fill="#1A00DA"/><rect x="221" y="521" width="305" height="52" fill="#1A00DA"/><rect x="315" y="597" width="211" height="51" fill="#1A00DA"/></g></svg>