<svg width="1129" height="1129" xmlns="http://www.w3.org/2000/svg" xmlns:xlink="http://www.w3.org/1999/xlink" overflow="hidden"><defs><clipPath id="clip0"><path d="M-1-1 1128-1 1128 1128-1 1128Z" fill-rule="evenodd" clip-rule="evenodd"/></clipPath></defs><g clip-path="url(#clip0)" transform="translate(1 1)"><rect x="0" y="0" width="1127" height="1127" fill="#002060"/><path d="M371 381.439 507.475 365.572 564 234 620.525 365.572 757 381.439 655.458 478.621 683.281 619.999 564 548.489 444.719 619.999 472.542 478.621Z" fill="#E9FE90" fill-rule="evenodd"/><path d="M510 839 526.429 823.501 525.67 800.816 548.145 801.583 563.5 785 578.855 801.583 601.33 800.816 600.571 823.501 617 839 600.571 854.499 601.33 877.184 578.855 876.417 563.5 893 548.145 876.417 525.67 877.184 526.429 854.499Z" fill="#E9FE90" fill-rule="evenodd"/><path d="M780.744 654.587 819.171 582.656 838.089 661.983 799.661 733.913Z" fill="#E9FE90" fill-rule="evenodd"/><path d="M0 76.2551 28.9099 0 57.8197 76.2551 28.9099 152.51Z" fill="#E9FE90" fill-rule="evenodd" transform="matrix(-0.385107 -0.922872 -0.922872 0.385107 952.731 702.768)"/><path d="M824.067 580.947 842.991 501.621 881.413 573.555 862.489 652.88Z" fill="#E9FE90" fill-rule="evenodd"/><path d="M0 76.2551 28.9099 0 57.8197 76.2551 28.9099 152.51Z" fill="#E9FE90" fill-rule="evenodd" transform="matrix(-0.606615 -0.794996 -0.794996 0.606615 1002.65 583.924)"/><path d="M843.139 493.375 840.452 411.867 896.499 471.108 899.185 552.615Z" fill="#E9FE90" fill-rule="evenodd"/><path d="M0 76.2551 28.9099 0 57.8197 76.2551 28.9099 152.51Z" fill="#E9FE90" fill-rule="evenodd" transform="matrix(-0.794948 -0.606677 -0.606677 0.794948 1016.17 449.107)"/><path d="M718.038 717.239 773.773 657.705 771.514 739.225 715.78 798.759Z" fill="#E9FE90" fill-rule="evenodd"/><path d="M0 76.2551 28.9099 0 57.8197 76.2551 28.9099 152.51Z" fill="#E9FE90" fill-rule="evenodd" transform="matrix(-0.133128 -0.991099 -0.991099 0.133128 871.694 808.292)"/><path d="M642.874 759.814 712.118 716.734 688.837 794.892 619.593 837.972Z" fill="#E9FE90" fill-rule="evenodd"/><path d="M0 76.2551 28.9099 0 57.8197 76.2551 28.9099 152.51Z" fill="#E9FE90" fill-rule="evenodd" transform="matrix(0.127924 -0.991784 -0.991784 -0.127924 767.728 887.534)"/><path d="M850 374.5 895.714 357.077 913 311 930.286 357.077 976 374.5 930.286 391.923 913 438 895.714 391.923Z" fill="#E9FE90" fill-rule="evenodd"/><path d="M0 76.2551 28.9099 0 57.8197 76.2551 28.9099 152.51Z" fill="#E9FE90" fill-rule="evenodd" transform="matrix(-0.991784 0.127924 0.127924 0.991784 336.585 578.958)"/><path d="M244.726 732.135 185.486 676.088 266.993 678.774 326.233 734.821Z" fill="#E9FE90" fill-rule="evenodd"/><path d="M0 76.2551 28.9099 0 57.8197 76.2551 28.9099 152.51Z" fill="#E9FE90" fill-rule="evenodd" transform="matrix(-0.991794 -0.127846 -0.127846 0.991794 312.765 505.317)"/><path d="M185.055 630.182 141.97 560.941 220.129 584.215 263.215 653.456Z" fill="#E9FE90" fill-rule="evenodd"/><path d="M0 76.2551 28.9099 0 57.8197 76.2551 28.9099 152.51Z" fill="#E9FE90" fill-rule="evenodd" transform="matrix(-0.922872 -0.385107 -0.385107 0.922872 313.311 423.001)"/><path d="M157.171 509.726 133.891 431.568 203.135 474.648 226.415 552.806Z" fill="#E9FE90" fill-rule="evenodd"/><path d="M0 76.2551 28.9099 0 57.8197 76.2551 28.9099 152.51Z" fill="#E9FE90" fill-rule="evenodd" transform="matrix(-0.924881 0.380257 0.380257 0.924881 380.049 646.712)"/><path d="M330.965 818.444 259.238 779.639 338.663 761.139 410.39 799.943Z" fill="#E9FE90" fill-rule="evenodd"/><path d="M0 76.2551 28.9099 0 57.8197 76.2551 28.9099 152.51Z" fill="#E9FE90" fill-rule="evenodd" transform="matrix(-0.794948 0.606677 0.606677 0.794948 437.948 699.195)"/><path d="M434.984 877.779 355.657 858.862 427.588 820.435 506.915 839.352Z" fill="#E9FE90" fill-rule="evenodd"/><path d="M0 63.5 45.7137 46.0765 63 0 80.2863 46.0765 126 63.5 80.2863 80.9235 63 127 45.7137 80.9235Z" fill="#E9FE90" fill-rule="evenodd" transform="matrix(-1 -8.74228e-08 -8.74228e-08 1 277 311)"/></g></svg>