<svg width="1844" height="1844" xmlns="http://www.w3.org/2000/svg" xmlns:xlink="http://www.w3.org/1999/xlink" overflow="hidden"><defs><clipPath id="clip0"><path d="M78-321 1922-321 1922 1523 78 1523Z" fill-rule="evenodd" clip-rule="evenodd"/></clipPath></defs><g clip-path="url(#clip0)" transform="translate(-78 321)"><rect x="79" y="-320" width="1842" height="1842" fill="#002060" class="darkblue"/><path d="M655.001 366.938 898.958 338.534 1000 103 1101.04 338.534 1345 366.938 1163.49 540.91 1213.22 793.998 1000 665.984 786.778 793.998 836.512 540.91Z" fill="#E9FE90" class="yellow" fill-rule="evenodd"/><path d="M904 1185 933.481 1157.45 932.118 1117.12 972.447 1118.48 1000 1089 1027.55 1118.48 1067.88 1117.12 1066.52 1157.45 1096 1185 1066.52 1212.55 1067.88 1252.88 1027.55 1251.52 1000 1281 972.447 1251.52 932.118 1252.88 933.481 1212.55Z" fill="#E9FE90" class="yellow" fill-rule="evenodd"/><path d="M1388.8 855.115 1457.59 726.356 1491.45 868.355 1422.66 997.114Z" fill="#E9FE90" class="yellow" fill-rule="evenodd"/><path d="M0 136.5 51.75 0 103.5 136.5 51.75 273Z" fill="#E9FE90" class="yellow" fill-rule="evenodd" transform="matrix(-0.385107 -0.922872 -0.922872 0.385107 1696.67 941.362)"/><path d="M1466.35 723.297 1500.23 581.301 1569 710.065 1535.13 852.061Z" fill="#E9FE90" class="yellow" fill-rule="evenodd"/><path d="M0 136.5 51.75 0 103.5 136.5 51.75 273Z" fill="#E9FE90" class="yellow" fill-rule="evenodd" transform="matrix(-0.606615 -0.794996 -0.794996 0.606615 1786.03 728.627)"/><path d="M1500.49 566.538 1495.68 420.637 1596.01 526.68 1600.82 672.581Z" fill="#E9FE90" class="yellow" fill-rule="evenodd"/><path d="M0 136.5 51.75 0 103.5 136.5 51.75 273Z" fill="#E9FE90" class="yellow" fill-rule="evenodd" transform="matrix(-0.794948 -0.606677 -0.606677 0.794948 1810.23 487.298)"/><path d="M1276.56 967.265 1376.32 860.697 1372.28 1006.62 1272.51 1113.19Z" fill="#E9FE90" class="yellow" fill-rule="evenodd"/><path d="M0 136.5 51.75 0 103.5 136.5 51.75 273Z" fill="#E9FE90" class="yellow" fill-rule="evenodd" transform="matrix(-0.133128 -0.991099 -0.991099 0.133128 1551.61 1130.25)"/><path d="M1142.01 1043.48 1265.96 966.362 1224.28 1106.27 1100.33 1183.38Z" fill="#E9FE90" class="yellow" fill-rule="evenodd"/><path d="M0 136.5 51.75 0 103.5 136.5 51.75 273Z" fill="#E9FE90" class="yellow" fill-rule="evenodd" transform="matrix(0.127924 -0.991784 -0.991784 -0.127924 1365.5 1272.1)"/><path d="M1512 354 1594.36 322.994 1625.5 241 1656.64 322.994 1739 354 1656.64 385.006 1625.5 467 1594.36 385.006Z" fill="#E9FE90" class="yellow" fill-rule="evenodd"/><path d="M0 136.5 51.75 0 103.5 136.5 51.75 273Z" fill="#E9FE90" class="yellow" fill-rule="evenodd" transform="matrix(-0.991784 0.127924 0.127924 0.991784 593.737 719.736)"/><path d="M429.306 993.929 323.263 893.603 469.164 898.412 575.207 998.737Z" fill="#E9FE90" class="yellow" fill-rule="evenodd"/><path d="M0 136.5 51.75 0 103.5 136.5 51.75 273Z" fill="#E9FE90" class="yellow" fill-rule="evenodd" transform="matrix(-0.991794 -0.127846 -0.127846 0.991794 551.099 587.917)"/><path d="M322.492 811.43 245.367 687.486 385.276 729.148 462.401 853.092Z" fill="#E9FE90" class="yellow" fill-rule="evenodd"/><path d="M0 136.5 51.75 0 103.5 136.5 51.75 273Z" fill="#E9FE90" class="yellow" fill-rule="evenodd" transform="matrix(-0.922872 -0.385107 -0.385107 0.922872 552.076 440.566)"/><path d="M272.578 595.809 230.906 455.903 354.856 533.018 396.529 672.924Z" fill="#E9FE90" class="yellow" fill-rule="evenodd"/><path d="M0 136.5 51.75 0 103.5 136.5 51.75 273Z" fill="#E9FE90" class="yellow" fill-rule="evenodd" transform="matrix(-0.924881 0.380257 0.380257 0.924881 671.54 841.019)"/><path d="M583.678 1148.43 455.282 1078.97 597.456 1045.85 725.852 1115.31Z" fill="#E9FE90" class="yellow" fill-rule="evenodd"/><path d="M0 136.5 51.75 0 103.5 136.5 51.75 273Z" fill="#E9FE90" class="yellow" fill-rule="evenodd" transform="matrix(-0.794948 0.606677 0.606677 0.794948 775.181 934.966)"/><path d="M769.876 1254.64 627.877 1220.78 756.636 1151.99 898.635 1185.85Z" fill="#E9FE90" class="yellow" fill-rule="evenodd"/><path d="M0 113 82.3573 81.9944 113.5 0 144.643 81.9944 227 113 144.643 144.006 113.5 226 82.3573 144.006Z" fill="#E9FE90" class="yellow" fill-rule="evenodd" transform="matrix(-1 -8.74228e-08 -8.74228e-08 1 488 241)"/></g></svg>