<svg width="1129" height="1129" xmlns="http://www.w3.org/2000/svg" xmlns:xlink="http://www.w3.org/1999/xlink" overflow="hidden"><defs><clipPath id="clip0"><path d="M-1-1 1128-1 1128 1128-1 1128Z" fill-rule="evenodd" clip-rule="evenodd"/></clipPath></defs><g clip-path="url(#clip0)" transform="translate(1 1)"><rect x="0" y="0" width="1127" height="1127" fill="#002060"/><path d="M352 420.571 501.557 403.184 563.5 259 625.443 403.184 775 420.571 663.725 527.069 694.214 681.999 563.5 603.634 432.786 681.999 463.275 527.069Z" fill="#E9FE90" fill-rule="evenodd"/><path d="M505 921 522.965 904.066 522.134 879.281 546.71 880.118 563.5 862 580.29 880.118 604.866 879.281 604.035 904.066 622 921 604.035 937.934 604.866 962.719 580.29 961.882 563.5 980 546.71 961.882 522.134 962.719 522.965 937.934Z" fill="#E9FE90" fill-rule="evenodd"/><path d="M801.37 718.975 843.447 640.213 864.161 727.073 822.084 805.835Z" fill="#E9FE90" fill-rule="evenodd"/><path d="M0 83.4966 31.6553 0 63.3105 83.4966 31.6553 166.993Z" fill="#E9FE90" fill-rule="evenodd" transform="matrix(-0.385107 -0.922872 -0.922872 0.385107 989.69 771.732)"/><path d="M848.808 638.342 869.529 551.483 911.599 630.248 890.878 717.106Z" fill="#E9FE90" fill-rule="evenodd"/><path d="M0 83.4966 31.6553 0 63.3105 83.4966 31.6553 166.993Z" fill="#E9FE90" fill-rule="evenodd" transform="matrix(-0.606615 -0.794996 -0.794996 0.606615 1044.35 641.602)"/><path d="M869.69 542.453 866.749 453.206 928.118 518.072 931.059 607.319Z" fill="#E9FE90" fill-rule="evenodd"/><path d="M0 83.4966 31.6553 0 63.3105 83.4966 31.6553 166.993Z" fill="#E9FE90" fill-rule="evenodd" transform="matrix(-0.794948 -0.606677 -0.606677 0.794948 1059.16 493.982)"/><path d="M732.71 787.576 793.737 722.389 791.264 811.651 730.237 876.838Z" fill="#E9FE90" fill-rule="evenodd"/><path d="M0 83.4966 31.6553 0 63.3105 83.4966 31.6553 166.993Z" fill="#E9FE90" fill-rule="evenodd" transform="matrix(-0.133128 -0.991099 -0.991099 0.133128 900.958 887.277)"/><path d="M650.407 834.195 726.227 787.024 700.736 872.604 624.916 919.775Z" fill="#E9FE90" fill-rule="evenodd"/><path d="M0 83.4966 31.6553 0 63.3105 83.4966 31.6553 166.993Z" fill="#E9FE90" fill-rule="evenodd" transform="matrix(0.127924 -0.991784 -0.991784 -0.127924 787.118 974.044)"/><path d="M877 412 927.067 393.067 946 343 964.933 393.067 1015 412 964.933 430.933 946 481 927.067 430.933Z" fill="#E9FE90" fill-rule="evenodd"/><path d="M0 83.4966 31.6553 0 63.3105 83.4966 31.6553 166.993Z" fill="#E9FE90" fill-rule="evenodd" transform="matrix(-0.991784 0.127924 0.127924 0.991784 315.032 636.164)"/><path d="M214.45 803.887 149.584 742.518 238.831 745.459 303.698 806.828Z" fill="#E9FE90" fill-rule="evenodd"/><path d="M0 83.4966 31.6553 0 63.3105 83.4966 31.6553 166.993Z" fill="#E9FE90" fill-rule="evenodd" transform="matrix(-0.991794 -0.127846 -0.127846 0.991794 288.95 555.53)"/><path d="M149.112 692.253 101.935 616.436 187.517 641.921 234.694 717.737Z" fill="#E9FE90" fill-rule="evenodd"/><path d="M0 83.4966 31.6553 0 63.3105 83.4966 31.6553 166.993Z" fill="#E9FE90" fill-rule="evenodd" transform="matrix(-0.922872 -0.385107 -0.385107 0.922872 289.548 465.397)"/><path d="M118.581 560.358 93.0893 474.778 168.909 521.949 194.4 607.529Z" fill="#E9FE90" fill-rule="evenodd"/><path d="M0 83.4966 31.6553 0 63.3105 83.4966 31.6553 166.993Z" fill="#E9FE90" fill-rule="evenodd" transform="matrix(-0.924881 0.380257 0.380257 0.924881 362.624 710.352)"/><path d="M308.879 898.392 230.34 855.903 317.307 835.645 395.846 878.135Z" fill="#E9FE90" fill-rule="evenodd"/><path d="M0 83.4966 31.6553 0 63.3105 83.4966 31.6553 166.993Z" fill="#E9FE90" fill-rule="evenodd" transform="matrix(-0.794948 0.606677 0.606677 0.794948 426.021 767.819)"/><path d="M422.776 963.363 335.916 942.649 414.677 900.572 501.537 921.286Z" fill="#E9FE90" fill-rule="evenodd"/><path d="M0 69 50.0674 50.0674 69 0 87.9326 50.0674 138 69 87.9326 87.9326 69 138 50.0674 87.9326Z" fill="#E9FE90" fill-rule="evenodd" transform="matrix(-1 -8.74228e-08 -8.74228e-08 1 250 343)"/></g></svg>