<svg width="1880" height="1759" xmlns="http://www.w3.org/2000/svg" xmlns:xlink="http://www.w3.org/1999/xlink" overflow="hidden"><defs><clipPath id="clip0"><path d="M-377-179 1503-179 1503 1580-377 1580Z" fill-rule="evenodd" clip-rule="evenodd"/></clipPath></defs><g clip-path="url(#clip0)" transform="translate(377 179)"><rect x="0" y="0" width="1123" height="1123" fill="#002060"/><text fill="#0098F6" font-family="Arial,Arial_MSFontService,sans-serif" font-weight="700" font-size="717" transform="translate(619.233 742)">L<tspan x="-564.975" y="0">L</tspan></text><path d="M516 672.5C516 647.371 536.371 627 561.5 627 586.629 627 607 647.371 607 672.5 607 697.629 586.629 718 561.5 718 536.371 718 516 697.629 516 672.5Z" fill="#0098F6" fill-rule="evenodd"/><rect x="541" y="682" width="41" height="127" fill="#0098F6"/><text fill="#0098F6" font-family="Arial,Arial_MSFontService,sans-serif" font-weight="700" font-size="717" transform="translate(316.979 986)">U<tspan fill="#FFF0E5" x="317.177" y="-252">L</tspan><tspan fill="#FFF0E5" x="14.2617" y="-8">U</tspan><tspan fill="#FFF0E5" x="-248.46" y="-252">L</tspan></text><path d="M531 664.5C531 639.371 551.147 619 576 619 600.853 619 621 639.371 621 664.5 621 689.629 600.853 710 576 710 551.147 710 531 689.629 531 664.5Z" fill="#FFF0E5" fill-rule="evenodd"/><rect x="556" y="674" width="40" height="127" fill="#FFF0E5"/></g></svg>