<svg width="1878" height="1771" xmlns="http://www.w3.org/2000/svg" xmlns:xlink="http://www.w3.org/1999/xlink" overflow="hidden"><defs><clipPath id="clip0"><path d="M64-243 1942-243 1942 1528 64 1528Z" fill-rule="evenodd" clip-rule="evenodd"/></clipPath></defs><g clip-path="url(#clip0)" transform="translate(-64 243)"><rect x="423" y="-66" width="1179" height="1179" fill="#002060" class="darkblue"/><text fill="#0098F6" class="lightblue" font-family="Arial,Arial_MSFontService,sans-serif" font-weight="700" font-size="717" transform="translate(1057.07 678)">L<tspan x="-562.437" y="0">L</tspan></text><path d="M965 640C965 614.043 986.266 593 1012.5 593 1038.73 593 1060 614.043 1060 640 1060 665.957 1038.73 687 1012.5 687 986.266 687 965 665.957 965 640Z" fill="#0098F6" class="lightblue" fill-rule="evenodd"/><rect x="991" y="649" width="43" height="134" fill="#0098F6" class="lightblue"/><text fill="#0098F6" class="lightblue" font-family="Arial,Arial_MSFontService,sans-serif" font-weight="700" font-size="717" transform="translate(755.107 934)">U<tspan fill="#FFF0E5" class="beije" x="317.632" y="-264">L</tspan><tspan fill="#FFF0E5" class="beije" x="14.9705" y="-9">U</tspan><tspan fill="#FFF0E5" class="beije" x="-245.5" y="-264">L</tspan></text><path d="M980 631.5C980 605.266 1001.27 584 1027.5 584 1053.73 584 1075 605.266 1075 631.5 1075 657.734 1053.73 679 1027.5 679 1001.27 679 980 657.734 980 631.5Z" fill="#FFF0E5" class="beije" fill-rule="evenodd"/><rect x="1006" y="641" width="43" height="134" fill="#FFF0E5" class="beije"/></g></svg>