<svg width="1125" height="1125" xmlns="http://www.w3.org/2000/svg" xmlns:xlink="http://www.w3.org/1999/xlink" overflow="hidden"><defs><clipPath id="clip0"><path d="M-1-1 1124-1 1124 1124-1 1124Z" fill-rule="evenodd" clip-rule="evenodd"/></clipPath></defs><g clip-path="url(#clip0)" transform="translate(1 1)"><rect x="0" y="0" width="1123" height="1123" fill="#002060"/><path d="M523 609.5C523 589.342 539.118 573 559 573 578.882 573 595 589.342 595 609.5 595 629.658 578.882 646 559 646 539.118 646 523 629.658 523 609.5Z" fill="#0098F6" fill-rule="evenodd"/><rect x="543" y="617" width="32" height="102" fill="#0098F6"/><rect x="647" y="242" width="81" height="411" fill="#0098F6"/><rect x="728" y="581" width="216" height="72" fill="#0098F6"/><rect x="183" y="242" width="82" height="411" fill="#0098F6"/><rect x="265" y="581" width="216" height="72" fill="#0098F6"/><rect x="401" y="447" width="82" height="331" fill="#0098F6"/><rect x="647" y="447" width="82" height="331" fill="#0098F6"/><path d="M729 777.497C729 842.944 655.575 896 565 896 474.425 896 401 842.944 401 777.497L483.307 777.497C483.307 797.487 519.882 813.692 565 813.692 610.117 813.692 646.693 797.487 646.693 777.497Z" fill="#0098F6" fill-rule="evenodd"/><path d="M534 599.5C534 579.342 550.342 563 570.5 563 590.658 563 607 579.342 607 599.5 607 619.658 590.658 636 570.5 636 550.342 636 534 619.658 534 599.5Z" fill="#FFF0E5" fill-rule="evenodd"/><rect x="554" y="607" width="33" height="102" fill="#FFF0E5"/><rect x="660" y="231" width="81" height="411" fill="#FFF0E5"/><rect x="740" y="571" width="216" height="71" fill="#FFF0E5"/><rect x="194" y="231" width="82" height="411" fill="#FFF0E5"/><rect x="276" y="571" width="216" height="71" fill="#FFF0E5"/><rect x="413" y="437" width="82" height="330" fill="#FFF0E5"/><rect x="658" y="437" width="82" height="330" fill="#FFF0E5"/><path d="M740 766.5C740 831.946 666.799 885 576.5 885 486.201 885 413 831.946 413 766.5L495.305 766.5C495.305 786.49 531.657 802.695 576.5 802.695 621.342 802.695 657.695 786.49 657.695 766.5Z" fill="#FFF0E5" fill-rule="evenodd"/></g></svg>