<svg width="1127" height="1127" xmlns="http://www.w3.org/2000/svg" xmlns:xlink="http://www.w3.org/1999/xlink" overflow="hidden"><defs><clipPath id="clip0"><path d="M-1-1 1126-1 1126 1126-1 1126Z" fill-rule="evenodd" clip-rule="evenodd"/></clipPath></defs><g clip-path="url(#clip0)" transform="translate(1 1)"><rect x="0" y="0" width="1125" height="1125" fill="#0CFCBD"/><path d="M602.209 467.313C658.323 467.313 705.14 542.196 715.968 641.743L716.84 658.029 708.514 659.428C656.602 668.766 600.152 681.364 541.56 697.064 468.321 716.688 400.403 738.836 342.012 761.436L316.517 771.675 316.332 770.555C314.785 756.334 313.973 741.609 313.973 726.528 313.973 605.877 365.961 508.071 430.091 508.071 442.115 508.071 453.713 511.509 464.621 517.892L465.354 518.397 468.51 516.627C490.283 506.414 512.744 501.691 533.351 501.982L539.302 502.563 557.011 484.48C570.903 473.426 586.177 467.313 602.209 467.313Z" fill="#002060" fill-rule="evenodd"/><path d="M514.361 861.895 526.22 881.627 534.769 891.743 499.375 900.383 501.35 896.524ZM300.873 769.301 308.689 813.796C318.735 857.598 334.565 895.081 353.943 921.792L357.471 926.191 334.442 929.146C217.022 942.449 135.118 933.641 126.398 901.096 117.678 868.552 184.205 819.972 292.544 772.782ZM888.514 640.388C938.302 643.175 969.881 654.157 975.113 673.684 986.45 715.992 870.618 785.399 701.074 843.623L675.203 852.163 661.028 856.843C633.74 865.501 605.315 873.824 576.019 881.674L534.769 891.743 526.22 881.627 514.361 861.895 501.35 896.524 499.374 900.382 489.983 902.675C448.041 911.894 407.94 919.181 370.696 924.494L357.471 926.191 353.943 921.792C334.565 895.081 318.735 857.598 308.689 813.796L300.873 769.301 326.267 758.685C384.451 735.316 452.253 712.73 525.492 693.106 584.084 677.406 640.609 665.088 692.657 656.256L701.007 654.949 730.815 650.286C792.888 641.432 847.024 638.065 888.514 640.388Z" fill="#002060" fill-rule="evenodd"/><path d="M353.681 668.803 450.468 612.977 527.698 746.873 430.911 802.699Z" fill="#E9FE90" fill-rule="evenodd"/><path d="M326.46 834.274 323.999 824.948C321.573 813.374 319.657 801.316 318.304 788.872L317.431 772.586 325.757 771.188C377.669 761.849 434.12 749.252 492.711 733.552 565.951 713.927 633.869 691.779 692.259 669.18L717.755 658.941 717.939 660.061C719.486 674.282 720.298 689.006 720.298 704.087L719.307 722.596 667.859 741.623C613.593 760.817 553.842 779.383 490.647 796.316 440.091 809.862 390.921 821.402 344.3 830.857L326.46 834.274Z" fill="#0CFCBD" fill-rule="evenodd"/><path d="M794 458.5 858.217 434.217 882.5 370 906.783 434.217 971 458.5 906.783 482.783 882.5 547 858.217 482.783Z" fill="#E9FE90" fill-rule="evenodd"/><path d="M150 564.5 185.555 551.192 199 516 212.445 551.192 248 564.5 212.445 577.808 199 613 185.555 577.808Z" fill="#E9FE90" fill-rule="evenodd"/><path d="M443 350.5 489.077 333.077 506.5 287 523.923 333.077 570 350.5 523.923 367.923 506.5 414 489.077 367.923Z" fill="#E9FE90" fill-rule="evenodd"/><path d="M737 291 759.857 282.22 768.5 259 777.143 282.22 800 291 777.143 299.78 768.5 323 759.857 299.78Z" fill="#E9FE90" fill-rule="evenodd"/><path d="M199 337.5 222.22 328.857 231 306 239.78 328.857 263 337.5 239.78 346.143 231 369 222.22 346.143Z" fill="#E9FE90" fill-rule="evenodd"/></g></svg>