<svg width="1127" height="1127" xmlns="http://www.w3.org/2000/svg" xmlns:xlink="http://www.w3.org/1999/xlink" overflow="hidden"><defs><clipPath id="clip0"><path d="M-1-1 1126-1 1126 1126-1 1126Z" fill-rule="evenodd" clip-rule="evenodd"/></clipPath></defs><g clip-path="url(#clip0)" transform="translate(1 1)"><rect x="0" y="0" width="1125" height="1125" fill="#0CFCBD"/><path d="M613.783 443.72C682.518 443.72 739.866 535.447 753.129 657.385L754.198 677.335 743.999 679.048C680.41 690.487 611.263 705.918 539.492 725.149 449.778 749.188 366.583 776.318 295.059 804.001L263.829 816.543 263.603 815.171C261.708 797.751 260.713 779.715 260.713 761.241 260.713 613.452 324.394 493.646 402.949 493.646 417.678 493.646 431.885 497.858 445.246 505.677L446.144 506.295 450.011 504.126C476.68 491.616 504.194 485.831 529.436 486.187L536.726 486.9 558.418 464.749C575.435 451.208 594.144 443.72 613.783 443.72Z" fill="#002060" fill-rule="evenodd"/><path d="M506.174 927.057 520.701 951.228 531.173 963.619 487.817 974.202 490.237 969.475ZM244.666 813.635 254.24 868.138C266.546 921.794 285.936 967.708 309.673 1000.43L313.995 1005.82 285.786 1009.44C141.954 1025.73 41.6277 1014.94 30.9458 975.076 20.2643 935.211 101.755 875.704 234.464 817.9ZM964.488 655.725C1025.47 659.14 1064.16 672.592 1070.57 696.511 1084.45 748.336 942.566 833.354 734.885 904.674L703.196 915.136 685.832 920.868C652.406 931.474 617.587 941.669 581.701 951.285L531.173 963.618 520.701 951.227 506.174 927.057 490.237 969.475 487.817 974.201 476.313 977.009C424.937 988.302 375.816 997.229 330.194 1003.74L313.995 1005.82 309.673 1000.43C285.936 967.708 266.546 921.794 254.24 868.138L244.666 813.635 275.773 800.631C347.044 772.006 430.096 744.34 519.81 720.301 591.58 701.071 660.82 685.982 724.575 675.163L734.804 673.562 771.317 667.85C847.352 657.005 913.665 652.88 964.488 655.725Z" fill="#002060" fill-rule="evenodd"/><path d="M309.353 690.532 427.91 622.149 522.511 786.162 403.954 854.545Z" fill="#E9FE90" fill-rule="evenodd"/><path d="M276.009 893.222 272.994 881.8C270.022 867.621 267.676 852.851 266.018 837.609L264.948 817.659 275.147 815.946C338.736 804.507 407.884 789.076 479.655 769.845 569.368 745.806 652.564 718.676 724.088 690.993L755.318 678.451 755.544 679.823C757.439 697.243 758.434 715.279 758.434 733.753L757.219 756.424 694.2 779.732C627.727 803.242 554.536 825.985 477.126 846.727 415.199 863.32 354.969 877.455 297.861 889.037L276.009 893.222Z" fill="#0CFCBD" fill-rule="evenodd"/><path d="M849 433.5 927.729 403.729 957.5 325 987.271 403.729 1066 433.5 987.271 463.271 957.5 542 927.729 463.271Z" fill="#E9FE90" fill-rule="evenodd"/><path d="M60 562.5 103.537 546.174 120 503 136.463 546.174 180 562.5 136.463 578.826 120 622 103.537 578.826Z" fill="#E9FE90" fill-rule="evenodd"/><path d="M418 301 474.961 279.598 496.5 223 518.039 279.598 575 301 518.039 322.402 496.5 379 474.961 322.402Z" fill="#E9FE90" fill-rule="evenodd"/><path d="M779 228 806.936 217.299 817.5 189 828.064 217.299 856 228 828.064 238.701 817.5 267 806.936 238.701Z" fill="#E9FE90" fill-rule="evenodd"/><path d="M120 284.5 148.299 273.936 159 246 169.701 273.936 198 284.5 169.701 295.064 159 323 148.299 295.064Z" fill="#E9FE90" fill-rule="evenodd"/></g></svg>