<svg width="756" height="756" xmlns="http://www.w3.org/2000/svg" xmlns:xlink="http://www.w3.org/1999/xlink" overflow="hidden"><defs><clipPath id="clip0"><path d="M1106 153 1862 153 1862 909 1106 909Z" fill-rule="evenodd" clip-rule="evenodd"/></clipPath></defs><g clip-path="url(#clip0)" transform="translate(-1106 -153)"><rect x="1107" y="154" width="754" height="754" fill="#0CFCBD" class="turquoise"/><path d="M1518.04 451.311C1564.1 451.311 1602.52 512.775 1611.41 594.484L1612.13 607.852 1605.29 609C1562.68 616.664 1516.35 627.005 1468.26 639.891 1408.14 655.999 1352.39 674.178 1304.47 692.728L1283.54 701.132 1283.39 700.213C1282.12 688.54 1281.45 676.454 1281.45 664.076 1281.45 565.045 1324.12 484.765 1376.76 484.765 1386.63 484.765 1396.15 487.587 1405.1 492.827L1405.71 493.241 1408.3 491.788C1426.17 483.405 1444.6 479.528 1461.52 479.767L1466.4 480.245 1480.94 465.402C1492.34 456.328 1504.88 451.31 1518.04 451.311Z" fill="#002060" class="darkblue" fill-rule="evenodd"/><path d="M1445.93 775.185 1455.67 791.382 1462.68 799.685 1433.63 806.776 1435.25 803.609ZM1270.7 699.184 1277.12 735.705C1285.36 771.659 1298.35 802.425 1314.26 824.349L1317.16 827.96 1298.25 830.385C1201.87 841.304 1134.65 834.075 1127.49 807.362 1120.33 780.649 1174.94 740.775 1263.86 702.041ZM1753.04 593.371C1793.9 595.659 1819.82 604.673 1824.12 620.701 1833.42 655.428 1738.35 712.397 1599.19 760.187L1577.95 767.197 1566.32 771.038C1543.92 778.145 1520.59 784.977 1496.54 791.42L1462.68 799.684 1455.67 791.381 1445.93 775.185 1435.25 803.609 1433.63 806.776 1425.92 808.657C1391.5 816.224 1358.58 822.206 1328.01 826.567L1317.16 827.96 1314.26 824.349C1298.35 802.425 1285.36 771.659 1277.12 735.705L1270.7 699.184 1291.54 690.47C1339.3 671.289 1394.95 652.75 1455.07 636.643 1503.16 623.756 1549.56 613.646 1592.28 606.396L1599.13 605.323 1623.6 601.496C1674.55 594.229 1718.98 591.465 1753.04 593.371Z" fill="#002060" class="darkblue" fill-rule="evenodd"/><path d="M1314.04 616.694 1393.49 570.872 1456.88 680.775 1377.44 726.597Z" fill="#E9FE90" class="yellow" fill-rule="evenodd"/><path d="M1291.7 752.513 1289.68 744.859C1287.69 735.359 1286.12 725.462 1285.01 715.248L1284.29 701.88 1291.12 700.732C1333.73 693.067 1380.07 682.727 1428.16 669.841 1488.28 653.733 1544.02 635.553 1591.95 617.004L1612.88 608.599 1613.03 609.519C1614.3 621.191 1614.97 633.277 1614.97 645.656L1614.15 660.848 1571.92 676.466C1527.38 692.22 1478.34 707.459 1426.47 721.358 1384.97 732.477 1344.61 741.948 1306.34 749.709L1291.7 752.513Z" fill="#0CFCBD" class="turquoise" fill-rule="evenodd"/><path d="M1676 444.5 1728.61 424.607 1748.5 372 1768.39 424.607 1821 444.5 1768.39 464.393 1748.5 517 1728.61 464.393Z" fill="#E9FE90" class="yellow" fill-rule="evenodd"/><path d="M1147 531 1176.02 520.025 1187 491 1197.98 520.025 1227 531 1197.98 541.975 1187 571 1176.02 541.975Z" fill="#E9FE90" class="yellow" fill-rule="evenodd"/><path d="M1387 355.5 1425.09 341.095 1439.5 303 1453.91 341.095 1492 355.5 1453.91 369.905 1439.5 408 1425.09 369.905Z" fill="#E9FE90" class="yellow" fill-rule="evenodd"/><path d="M1629 307 1647.87 299.866 1655 281 1662.13 299.866 1681 307 1662.13 314.134 1655 333 1647.87 314.134Z" fill="#E9FE90" class="yellow" fill-rule="evenodd"/><path d="M1187 345 1205.87 337.866 1213 319 1220.13 337.866 1239 345 1220.13 352.134 1213 371 1205.87 352.134Z" fill="#E9FE90" class="yellow" fill-rule="evenodd"/></g></svg>