<svg width="1144" height="1145" xmlns="http://www.w3.org/2000/svg" xmlns:xlink="http://www.w3.org/1999/xlink" overflow="hidden"><defs><clipPath id="clip0"><path d="M427-19 1571-19 1571 1126 427 1126Z" fill-rule="evenodd" clip-rule="evenodd"/></clipPath></defs><g clip-path="url(#clip0)" transform="translate(-427 19)"><rect x="428" y="553" width="572" height="572" fill="#0CFCBD"/><rect x="716" y="553" width="191" height="191" fill="#5DFF61"/><rect x="428" y="553" width="191" height="191" fill="#1A00DA"/><rect x="428" y="839" width="191" height="191" fill="#E9FE90"/><rect x="715" y="839" width="191" height="191" fill="#002060"/><rect x="999" y="553" width="571" height="572" fill="#1A00DA"/><rect x="1285" y="839" width="191" height="191" fill="#E9FE90"/><rect x="1285" y="553" width="191" height="191" fill="#0CFCBD"/><rect x="999" y="839" width="190" height="191" fill="#002060"/><rect x="999" y="553" width="190" height="191" fill="#5DFF61"/><rect x="428" y="-18" width="572" height="571" fill="#E9FE90"/><rect x="715" y="-18" width="190" height="190" fill="#1A00DA"/><rect x="428" y="-18" width="191" height="190" fill="#002060"/><rect x="428" y="268" width="191" height="190" fill="#5DFF61"/><rect x="713" y="268" width="191" height="190" fill="#0CFCBD"/><rect x="999" y="-18" width="571" height="571" fill="#002060"/><rect x="999" y="-18" width="190" height="190" fill="#0CFCBD"/><rect x="1285" y="-18" width="191" height="190" fill="#E9FE90"/><rect x="1285" y="268" width="191" height="190" fill="#5DFF61"/><rect x="999" y="268" width="190" height="190" fill="#1A00DA"/></g></svg>