<svg width="1125" height="1126" xmlns="http://www.w3.org/2000/svg" xmlns:xlink="http://www.w3.org/1999/xlink" overflow="hidden"><defs><clipPath id="clip0"><path d="M-1-1 1124-1 1124 1125-1 1125Z" fill-rule="evenodd" clip-rule="evenodd"/></clipPath></defs><g clip-path="url(#clip0)" transform="translate(1 1)"><rect x="0" y="562" width="562" height="562" fill="#0CFCBD"/><rect x="283" y="562" width="188" height="187" fill="#5DFF61"/><rect x="0" y="562" width="187" height="187" fill="#1A00DA"/><rect x="0" y="843" width="187" height="187" fill="#E9FE90"/><rect x="282" y="843" width="188" height="187" fill="#002060"/><rect x="561" y="562" width="562" height="562" fill="#1A00DA"/><rect x="843" y="843" width="187" height="187" fill="#E9FE90"/><rect x="843" y="562" width="187" height="187" fill="#0CFCBD"/><rect x="561" y="843" width="187" height="187" fill="#002060"/><rect x="561" y="562" width="187" height="187" fill="#5DFF61"/><rect x="0" y="0" width="562" height="562" fill="#E9FE90"/><rect x="282" y="0" width="187" height="187" fill="#1A00DA"/><rect x="0" y="0" width="187" height="187" fill="#002060"/><rect x="0" y="281" width="187" height="187" fill="#5DFF61"/><rect x="281" y="281" width="187" height="187" fill="#0CFCBD"/><rect x="561" y="0" width="562" height="562" fill="#002060"/><rect x="561" y="0" width="187" height="187" fill="#0CFCBD"/><rect x="843" y="0" width="187" height="187" fill="#E9FE90"/><rect x="843" y="281" width="187" height="187" fill="#5DFF61"/><rect x="561" y="281" width="187" height="187" fill="#1A00DA"/></g></svg>