<svg width="1123" height="1123" xmlns="http://www.w3.org/2000/svg" xmlns:xlink="http://www.w3.org/1999/xlink" overflow="hidden"><defs><clipPath id="clip0"><path d="M-1-1 1122-1 1122 1122-1 1122Z" fill-rule="evenodd" clip-rule="evenodd"/></clipPath></defs><g clip-path="url(#clip0)" transform="translate(1 1)"><rect x="100" y="562" width="462" height="462" fill="#0CFCBD"/><rect x="333" y="562" width="154" height="154" fill="#5DFF61"/><rect x="100" y="562" width="154" height="154" fill="#1A00DA"/><rect x="100" y="793" width="154" height="154" fill="#E9FE90"/><rect x="332" y="793" width="154" height="154" fill="#002060"/><rect x="561" y="562" width="462" height="462" fill="#1A00DA"/><rect x="793" y="793" width="154" height="154" fill="#E9FE90"/><rect x="793" y="562" width="154" height="154" fill="#0CFCBD"/><rect x="561" y="793" width="154" height="154" fill="#002060"/><rect x="561" y="562" width="154" height="154" fill="#5DFF61"/><rect x="100" y="100" width="462" height="462" fill="#E9FE90"/><rect x="331" y="100" width="154" height="154" fill="#1A00DA"/><rect x="100" y="100" width="154" height="154" fill="#002060"/><rect x="100" y="331" width="154" height="154" fill="#5DFF61"/><rect x="331" y="331" width="153" height="154" fill="#0CFCBD"/><rect x="561" y="100" width="462" height="462" fill="#002060"/><rect x="561" y="100" width="154" height="154" fill="#0CFCBD"/><rect x="793" y="100" width="154" height="154" fill="#E9FE90"/><rect x="793" y="331" width="154" height="154" fill="#5DFF61"/><rect x="561" y="331" width="154" height="154" fill="#1A00DA"/></g></svg>