<svg width="1123" height="1123" xmlns="http://www.w3.org/2000/svg" xmlns:xlink="http://www.w3.org/1999/xlink" overflow="hidden"><defs><clipPath id="clip0"><path d="M-1-1 1122-1 1122 1122-1 1122Z" fill-rule="evenodd" clip-rule="evenodd"/></clipPath></defs><g clip-path="url(#clip0)" transform="translate(1 1)"><rect x="559" y="560" width="445" height="447" fill="#1A00DA"/><rect x="118" y="118" width="445" height="442" fill="#E9FE90"/><rect x="559" y="120" width="445" height="442" fill="#002060"/><rect x="119" y="560" width="440" height="447" fill="#0CFCBD"/><rect x="342" y="785" width="147" height="148" fill="#E9FE90"/><path d="M794 217.844 855.874 210.65 881.5 151 907.126 210.65 969 217.844 922.964 261.903 935.578 326 881.5 293.579 827.422 326 840.036 261.903Z" fill="#E9FE90" fill-rule="evenodd"/><path d="M753 859 788.315 825.994 786.683 777.683 834.994 779.315 868 744 901.006 779.315 949.317 777.683 947.685 825.994 983 859 947.685 892.006 949.317 940.317 901.006 938.685 868 974 834.994 938.685 786.683 940.317 788.315 892.006Z" fill="#002060" fill-rule="evenodd"/><path d="M258 399.5 357.046 362.046 394.5 263 431.954 362.046 531 399.5 431.954 436.954 394.5 536 357.046 436.954Z" fill="#5DFF61" fill-rule="evenodd"/></g></svg>