<svg width="1146" height="1147" xmlns="http://www.w3.org/2000/svg" xmlns:xlink="http://www.w3.org/1999/xlink" overflow="hidden"><defs><clipPath id="clip0"><path d="M476-129 1622-129 1622 1018 476 1018Z" fill-rule="evenodd" clip-rule="evenodd"/></clipPath></defs><g clip-path="url(#clip0)" transform="translate(-476 129)"><rect x="1051" y="447" width="570" height="570" fill="#1A00DA"/><rect x="477" y="-128" width="573" height="573" fill="#E9FE90"/><rect x="1048" y="-126" width="573" height="573" fill="#002060"/><rect x="481" y="445" width="570" height="570" fill="#0CFCBD"/><rect x="765" y="731" width="191" height="190" fill="#E9FE90"/><path d="M1302-22.0578 1381.91-31.3066 1415-108 1448.09-31.3066 1528-22.0578 1468.55 34.5901 1484.84 117 1415 75.3162 1345.16 117 1361.45 34.5901Z" fill="#E9FE90" fill-rule="evenodd"/><path d="M1296 826 1341.45 783.523 1339.35 721.348 1401.52 723.449 1444 678 1486.48 723.449 1548.65 721.348 1546.55 783.523 1592 826 1546.55 868.477 1548.65 930.652 1486.48 928.551 1444 974 1401.52 928.551 1339.35 930.652 1341.45 868.477Z" fill="#002060" fill-rule="evenodd"/><path d="M684 236 811.708 187.708 860 60 908.292 187.708 1036 236 908.292 284.292 860 412 811.708 284.292Z" fill="#5DFF61" fill-rule="evenodd"/></g></svg>