<svg width="1124" height="1128" xmlns="http://www.w3.org/2000/svg" xmlns:xlink="http://www.w3.org/1999/xlink" overflow="hidden"><defs><clipPath id="clip0"><path d="M-1-1 1123-1 1123 1127-1 1127Z" fill-rule="evenodd" clip-rule="evenodd"/></clipPath></defs><g clip-path="url(#clip0)" transform="translate(1 1)"><rect x="559" y="559" width="563" height="566" fill="#1A00DA"/><rect x="0" y="0" width="563" height="560" fill="#E9FE90"/><rect x="559" y="2" width="563" height="559" fill="#002060"/><rect x="2" y="560" width="557" height="566" fill="#0CFCBD"/><rect x="283" y="844" width="187" height="187" fill="#E9FE90"/><path d="M857 126.414 935.137 117.33 967.5 42 999.863 117.33 1078 126.414 1019.86 182.055 1035.79 263 967.5 222.057 899.207 263 915.136 182.055Z" fill="#E9FE90" fill-rule="evenodd"/><path d="M804 937.5 848.682 895.74 846.616 834.616 907.74 836.682 949.5 792 991.26 836.682 1052.38 834.616 1050.32 895.74 1095 937.5 1050.32 979.26 1052.38 1040.38 991.26 1038.32 949.5 1083 907.74 1038.32 846.616 1040.38 848.682 979.26Z" fill="#002060" fill-rule="evenodd"/><path d="M177 356 302.531 308.531 350 183 397.469 308.531 523 356 397.469 403.469 350 529 302.531 403.469Z" fill="#5DFF61" fill-rule="evenodd"/></g></svg>