<svg width="1146" height="1147" xmlns="http://www.w3.org/2000/svg" xmlns:xlink="http://www.w3.org/1999/xlink" overflow="hidden">
<defs>
<clipPath id="clip0">
<path d="M426-21 1572-21 1572 1126 426 1126Z" fill-rule="evenodd" clip-rule="evenodd"/>
</clipPath>
</defs>
<g clip-path="url(#clip0)" transform="translate(-426 21)">
<rect x="1001" y="555" width="570" height="570" class="blue"/>
<rect x="427" y="-20" width="573" height="573" class="yellow"/>
<rect x="998" y="-18" width="573" height="573" class="darkblue"/>
<rect x="431" y="554" width="570" height="569" class="turquoise"/>
<rect x="715" y="839" width="191" height="191" class="yellow"/>
<path d="M1252 86.3241 1331.91 77.0343 1365 0 1398.09 77.0343 1478 86.3241 1418.55 143.224 1434.84 225.999 1365 184.131 1295.16 225.999 1311.45 143.224Z" class="yellow" fill-rule="evenodd"/>
<path d="M1246 934.5 1291.45 892.166 1289.35 830.202 1351.52 832.296 1394 787 1436.48 832.296 1498.65 830.202 1496.55 892.166 1542 934.5 1496.55 976.834 1498.65 1038.8 1436.48 1036.7 1394 1082 1351.52 1036.7 1289.35 1038.8 1291.45 976.834Z" class="darkblue" fill-rule="evenodd"/>
<path d="M634 344.5 761.708 296.345 810 169 858.292 296.345 986 344.5 858.292 392.655 810 520 761.708 392.655Z" class="green" ill-rule="evenodd"/>
</g>
</svg>