<svg width="1123" height="1123" xmlns="http://www.w3.org/2000/svg" xmlns:xlink="http://www.w3.org/1999/xlink" overflow="hidden"><defs><clipPath id="clip0"><path d="M-1-1 1122-1 1122 1122-1 1122Z" fill-rule="evenodd" clip-rule="evenodd"/></clipPath><linearGradient x1="118" y1="118" x2="1003" y2="1003" gradientUnits="userSpaceOnUse" spreadMethod="reflect" id="fill1"><stop offset="0" stop-color="#FFF9C8"/><stop offset="0.1" stop-color="#E9FE90"/><stop offset="0.25" stop-color="#0CFCBD"/><stop offset="0.4" stop-color="#0CFCBD"/><stop offset="0.6" stop-color="#0098F6"/><stop offset="0.8" stop-color="#1A00DA"/><stop offset="1" stop-color="#002060"/></linearGradient></defs><g clip-path="url(#clip0)" transform="translate(1 1)"><rect x="0" y="0" width="1121" height="1121" fill="#F2F2F2"/><rect x="118" y="118" width="885" height="885" fill="url(#fill1)"/><rect x="159" y="159" width="803" height="803" fill="#F2F2F2"/><path d="M372 560.5 464.02 398 656.98 398 749 560.5 656.98 723 464.02 723Z" fill="#002060" fill-rule="evenodd"/><path d="M560.5 372 723 464.02 723 656.98 560.5 749 398 656.98 398 464.02Z" fill="#002060" fill-rule="evenodd"/><path d="M398.715 517.089 515.005 398.842 680.532 443.195 722.119 603.745 605.829 721.992 440.301 677.639Z" fill="#1A00DA" fill-rule="evenodd"/><path d="M603.745 398.715 721.992 515.005 677.639 680.532 517.089 722.119 398.842 605.829 443.195 440.301Z" fill="#1A00DA" fill-rule="evenodd"/><path d="M409 560.5 482.9 430 638.1 430 712 560.5 638.1 691 482.9 691Z" fill="#0098F6" fill-rule="evenodd"/><path d="M560.5 409 691 482.9 691 638.1 560.5 712 430 638.1 430 482.9Z" fill="#0098F6" fill-rule="evenodd"/><path d="M430.569 525.624 523.95 430.671 656.87 466.286 690.265 595.209 596.883 690.162 463.963 654.547Z" fill="#0CFCBD" fill-rule="evenodd"/><path d="M595.209 430.568 690.162 523.95 654.547 656.87 525.624 690.265 430.671 596.883 466.287 463.963Z" fill="#0CFCBD" fill-rule="evenodd"/><path d="M439 560.5 498.176 456 621.824 456 681 560.5 621.824 665 498.176 665Z" fill="#5DFF61" fill-rule="evenodd"/><path d="M560.5 439 665 498.176 665 621.824 560.5 681 456 621.824 456 498.176Z" fill="#5DFF61" fill-rule="evenodd"/><path d="M456.637 532.609 531.271 456.719 637.506 485.184 664.196 588.224 589.562 664.114 483.327 635.649Z" fill="#E9FE90" fill-rule="evenodd"/><path d="M588.224 456.637 664.114 531.271 635.649 637.506 532.609 664.196 456.719 589.562 485.184 483.327Z" fill="#E9FE90" fill-rule="evenodd"/><path d="M464 560.5 511.284 477 609.716 477 657 560.5 609.716 644 511.284 644Z" fill="#FFF9C8" fill-rule="evenodd"/><path d="M560.5 464 644 511.284 644 609.716 560.5 657 477 609.716 477 511.284Z" fill="#FFF9C8" fill-rule="evenodd"/><path d="M477.472 538.192 537.123 477.538 622.029 500.288 643.361 582.642 583.711 643.296 498.804 620.545Z" fill="#FFF0E5" fill-rule="evenodd"/><path d="M582.642 477.472 643.296 537.123 620.545 622.029 538.192 643.361 477.537 583.711 500.288 498.804Z" fill="#FFF0E5" fill-rule="evenodd"/></g></svg>