<svg width="1123" height="1123" xmlns="http://www.w3.org/2000/svg" xmlns:xlink="http://www.w3.org/1999/xlink" overflow="hidden"><defs><clipPath id="clip0"><path d="M-1-1 1122-1 1122 1122-1 1122Z" fill-rule="evenodd" clip-rule="evenodd"/></clipPath><linearGradient x1="126.75" y1="118.25" x2="1011.25" y2="1002.75" gradientUnits="userSpaceOnUse" spreadMethod="reflect" id="fill1"><stop offset="0" stop-color="#FFF9C8"/><stop offset="0.1" stop-color="#E9FE90"/><stop offset="0.25" stop-color="#0CFCBD"/><stop offset="0.4" stop-color="#0CFCBD"/><stop offset="0.6" stop-color="#0098F6"/><stop offset="0.8" stop-color="#1A00DA"/><stop offset="1" stop-color="#002060"/></linearGradient></defs><g clip-path="url(#clip0)" transform="translate(1 1)"><rect x="0" y="0" width="1121" height="1121" fill="#F2F2F2"/><rect x="127" y="118" width="884" height="885" fill="url(#fill1)"/><rect x="167" y="159" width="803" height="803" fill="#F2F2F2"/><path d="M380 560.5 472.02 398 664.98 398 757 560.5 664.98 723 472.02 723Z" fill="#002060" fill-rule="evenodd"/><path d="M568.5 372 731 464.02 731 656.98 568.5 749 406 656.98 406 464.02Z" fill="#002060" fill-rule="evenodd"/><path d="M407.048 517.089 523.338 398.842 688.866 443.195 730.452 603.745 614.162 721.992 448.635 677.639Z" fill="#1A00DA" fill-rule="evenodd"/><path d="M612.078 398.715 730.325 515.005 685.972 680.532 525.422 722.119 407.176 605.829 451.529 440.301Z" fill="#1A00DA" fill-rule="evenodd"/><path d="M417 560.5 490.9 430 646.1 430 720 560.5 646.1 691 490.9 691Z" fill="#0098F6" fill-rule="evenodd"/><path d="M568.5 409 699 482.9 699 638.1 568.5 712 438 638.1 438 482.9Z" fill="#0098F6" fill-rule="evenodd"/><path d="M438.902 525.624 532.284 430.671 665.203 466.286 698.598 595.209 605.216 690.162 472.296 654.547Z" fill="#0CFCBD" fill-rule="evenodd"/><path d="M603.542 430.568 698.496 523.95 662.88 656.87 533.957 690.265 439.004 596.883 474.62 463.963Z" fill="#0CFCBD" fill-rule="evenodd"/><path d="M448 560.5 507.176 456 630.824 456 690 560.5 630.824 665 507.176 665Z" fill="#5DFF61" fill-rule="evenodd"/><path d="M568.5 439 673 498.176 673 621.824 568.5 681 464 621.824 464 498.176Z" fill="#5DFF61" fill-rule="evenodd"/><path d="M464.97 532.609 539.605 456.719 645.839 485.184 672.529 588.224 597.895 664.114 491.661 635.649Z" fill="#E9FE90" fill-rule="evenodd"/><path d="M596.557 456.637 672.448 531.271 643.982 637.506 540.942 664.196 465.052 589.562 493.518 483.327Z" fill="#E9FE90" fill-rule="evenodd"/><path d="M472 560.5 519.284 477 617.716 477 665 560.5 617.716 644 519.284 644Z" fill="#FFF9C8" fill-rule="evenodd"/><path d="M568.5 464 652 511.284 652 609.716 568.5 657 485 609.716 485 511.284Z" fill="#FFF9C8" fill-rule="evenodd"/><path d="M485.806 538.192 545.456 477.538 630.363 500.288 651.694 582.642 592.044 643.296 507.137 620.545Z" fill="#FFF0E5" fill-rule="evenodd"/><path d="M590.975 477.472 651.629 537.123 628.879 622.029 546.525 643.361 485.871 583.711 508.621 498.804Z" fill="#FFF0E5" fill-rule="evenodd"/></g></svg>