<svg width="914" height="914" xmlns="http://www.w3.org/2000/svg" xmlns:xlink="http://www.w3.org/1999/xlink" overflow="hidden"><defs><clipPath id="clip0"><path d="M-1040 47-126 47-126 961-1040 961Z" fill-rule="evenodd" clip-rule="evenodd"/></clipPath><linearGradient x1="-1009" y1="79" x2="-158" y2="930" gradientUnits="userSpaceOnUse" spreadMethod="reflect" id="fill1"><stop offset="0" stop-color="#FFF9C8" class="lightyellow"/><stop offset="0.1" stop-color="#E9FE90" class="yellow"/><stop offset="0.25" stop-color="#0CFCBD" class="turquoise"/><stop offset="0.4" stop-color="#0CFCBD" class="turquoise"/><stop offset="0.6" stop-color="#0098F6" class="lightblue"/><stop offset="0.8" stop-color="#1A00DA" class="blue"/><stop offset="1" stop-color="#002060" class="darkblue"/></linearGradient></defs><g clip-path="url(#clip0)" transform="translate(1040 -47)"><rect x="-1039" y="48" width="912" height="912" fill="#F2F2F2"/><rect x="-1009" y="79" width="851" height="851" fill="url(#fill1)"/><rect x="-950" y="138" width="734" height="733" fill="#F2F2F2"/><path d="M-737 504.5-661.968 372-505.032 372-430 504.5-505.032 637-661.968 637Z" fill="#002060" class="darkblue" fill-rule="evenodd"/><path d="M-583 351-451 425.749-451 583.251-583 658-715 583.251-715 425.749Z" fill="#002060" class="darkblue" fill-rule="evenodd"/><path d="M-714.805 469.051-620.166 372.819-485.457 408.914-451.613 539.573-546.252 635.804-680.961 599.709Z" fill="#1A00DA" class="blue" fill-rule="evenodd"/><path d="M-547.948 372.715-451.717 467.354-487.812 602.063-618.47 635.907-714.702 541.269-678.606 406.559Z" fill="#1A00DA" class="blue" fill-rule="evenodd"/><path d="M-706 504.5-645.691 398-520.309 398-460 504.5-520.309 611-645.691 611Z" fill="#0098F6" class="lightblue" fill-rule="evenodd"/><path d="M-583 381-477 441.026-477 567.974-583 628-689 567.974-689 441.026Z" fill="#0098F6" class="lightblue" fill-rule="evenodd"/><path d="M-688.882 475.997-612.886 398.722-504.714 427.707-477.537 532.626-553.532 609.901-661.705 580.916Z" fill="#0CFCBD" class="turquoise" fill-rule="evenodd"/><path d="M-554.895 398.639-477.62 474.635-506.605 582.807-611.524 609.984-688.799 533.988-659.814 425.816Z" fill="#0CFCBD" class="turquoise" fill-rule="evenodd"/><path d="M-682 504-633.866 419-533.134 419-485 504-533.134 589-633.866 589Z" fill="#5DFF61" fill-rule="evenodd"/><path d="M-583 406-498 454.134-498 554.866-583 603-668 554.866-668 454.134Z" fill="#5DFF61" fill-rule="evenodd"/><path d="M-667.667 481.681-606.928 419.92-520.473 443.086-498.752 526.942-559.49 588.702-645.946 565.537Z" fill="#E9FE90" class="yellow" fill-rule="evenodd"/><path d="M-560.579 419.854-498.818 480.592-521.984 567.048-605.84 588.769-667.6 528.03-644.435 441.575Z" fill="#E9FE90" class="yellow" fill-rule="evenodd"/><path d="M-662 504-623.493 436-542.507 436-504 504-542.507 572-623.493 572Z" fill="#FFF9C8" class="lightyellow" fill-rule="evenodd"/><path d="M-582.996 426-515 464.505-515 544.495-582.996 583-650.993 544.495-650.993 464.505Z" fill="#FFF9C8" class="lightyellow" fill-rule="evenodd"/><path d="M-650.711 486.224-602.166 436.863-533.068 455.378-515.708 522.399-564.252 571.76-633.351 553.245Z" fill="#FFF0E5" class="beije" fill-rule="evenodd"/><path d="M-565.122 436.81-515.761 485.354-534.276 554.453-601.296 571.813-650.658 523.268-632.143 454.17Z" fill="#FFF0E5" class="beije" fill-rule="evenodd"/></g></svg>