<svg width="1129" height="1129" xmlns="http://www.w3.org/2000/svg" xmlns:xlink="http://www.w3.org/1999/xlink" overflow="hidden"><defs><clipPath id="clip0"><path d="M-3-1 1126-1 1126 1128-3 1128Z" fill-rule="evenodd" clip-rule="evenodd"/></clipPath></defs><g clip-path="url(#clip0)" transform="translate(3 1)"><rect x="-1" y="0" width="1126" height="1126" fill="#002060"/><path d="M389.5 358.907C333.533 358.907 288.162 404.168 288.162 460 288.162 515.832 333.533 561.093 389.5 561.093 445.467 561.093 490.838 515.832 490.838 460 490.838 404.168 445.467 358.907 389.5 358.907ZM345.788 254 433.212 254 433.212 285.889 443.056 288.414C450.105 290.602 456.969 293.209 463.618 296.208L482.115 305.941 504.609 283.502 566.427 345.17 543.933 367.609 553.69 386.062C556.696 392.694 559.31 399.542 561.502 406.574L564.034 416.394 596 416.394 596 503.606 564.034 503.606 561.502 513.426C559.31 520.459 556.696 527.306 553.69 533.938L543.933 552.391 566.427 574.83 504.609 636.498 482.115 614.059 463.618 623.792C456.969 626.791 450.105 629.399 443.056 631.586L433.212 634.111 433.212 666 345.788 666 345.788 634.111 335.944 631.586C328.895 629.399 322.031 626.791 315.383 623.792L296.885 614.059 274.392 636.498 212.574 574.83 235.067 552.391 225.31 533.938C222.304 527.306 219.69 520.459 217.498 513.426L214.967 503.606 183 503.606 183 416.394 214.967 416.394 217.498 406.574C219.69 399.542 222.304 392.694 225.31 386.062L235.067 367.609 212.574 345.17 274.392 283.502 296.885 305.941 315.383 296.208C322.031 293.209 328.895 290.602 335.944 288.414L345.788 285.889Z" fill="#FFF0E5" fill-rule="evenodd"/><path d="M734 564.907C678.168 564.907 632.907 610.168 632.907 666 632.907 721.832 678.168 767.093 734 767.093 789.832 767.093 835.093 721.832 835.093 666 835.093 610.168 789.832 564.907 734 564.907ZM690.394 460 777.606 460 777.606 491.889 787.426 494.414C794.459 496.602 801.306 499.209 807.938 502.208L826.391 511.941 848.83 489.502 910.498 551.17 888.059 573.609 897.792 592.062C900.791 598.694 903.399 605.542 905.586 612.574L908.111 622.394 940 622.394 940 709.606 908.111 709.606 905.586 719.426C903.399 726.459 900.791 733.306 897.792 739.938L888.059 758.391 910.498 780.83 848.83 842.498 826.391 820.059 807.938 829.792C801.306 832.791 794.459 835.399 787.426 837.586L777.606 840.111 777.606 872 690.394 872 690.394 840.111 680.574 837.586C673.542 835.399 666.694 832.791 660.062 829.792L641.609 820.059 619.17 842.498 557.502 780.83 579.941 758.391 570.208 739.938C567.209 733.306 564.602 726.459 562.414 719.426L559.889 709.606 528 709.606 528 622.394 559.889 622.394 562.414 612.574C564.602 605.542 567.209 598.694 570.208 592.062L579.941 573.609 557.502 551.17 619.17 489.502 641.609 511.941 660.062 502.208C666.694 499.209 673.542 496.602 680.574 494.414L690.394 491.889Z" fill="#E9FE90" fill-rule="evenodd"/><path d="M431 931 453 742 475 931Z" fill="#E9FE90" fill-rule="evenodd"/><path d="M304.074 875.632 435.413 738.019 339.598 902.356Z" fill="#FFF0E5" fill-rule="evenodd"/><path d="M231.003 751.52 419.245 724.092 242.509 794.459Z" fill="#E9FE90" fill-rule="evenodd"/><path d="M686 196 664 385 642 196Z" fill="#FFF0E5" fill-rule="evenodd"/><path d="M813.312 250.831 681.973 388.444 777.789 224.107Z" fill="#E9FE90" fill-rule="evenodd"/><path d="M886.383 374.943 698.141 402.371 874.877 332.004Z" fill="#FFF0E5" fill-rule="evenodd"/></g></svg>