<svg width="860" height="860" xmlns="http://www.w3.org/2000/svg" xmlns:xlink="http://www.w3.org/1999/xlink" overflow="hidden"><defs><clipPath id="clip0"><path d="M28 113 888 113 888 973 28 973Z" fill-rule="evenodd" clip-rule="evenodd"/></clipPath></defs><g clip-path="url(#clip0)" transform="translate(-28 -113)"><rect x="29" y="114" width="858" height="858" fill="#002060" class="darkblue"/><path d="M326.5 386.954C283.813 386.954 249.208 421.449 249.208 464 249.208 506.551 283.813 541.046 326.5 541.046 369.187 541.046 403.792 506.551 403.792 464 403.792 421.449 369.187 386.954 326.5 386.954ZM293.161 307 359.84 307 359.84 331.304 367.348 333.228C372.724 334.895 377.959 336.883 383.03 339.168L397.139 346.586 414.295 329.484 461.444 376.484 444.288 393.586 451.73 407.649C454.022 412.704 456.016 417.922 457.688 423.282L459.619 430.766 484 430.766 484 497.234 459.619 497.234 457.688 504.718C456.016 510.078 454.022 515.296 451.73 520.351L444.288 534.414 461.444 551.516 414.295 598.516 397.139 581.414 383.03 588.832C377.959 591.117 372.724 593.105 367.348 594.772L359.84 596.696 359.84 621 293.161 621 293.161 596.696 285.652 594.772C280.276 593.105 275.041 591.117 269.97 588.832L255.861 581.414 238.705 598.516 191.556 551.516 208.712 534.414 201.271 520.351C198.978 515.296 196.984 510.078 195.312 504.718L193.381 497.234 169 497.234 169 430.766 193.381 430.766 195.312 423.282C196.984 417.922 198.978 412.704 201.271 407.649L208.712 393.586 191.556 376.484 238.705 329.484 255.861 346.586 269.97 339.168C275.041 336.883 280.276 334.895 285.652 333.228L293.161 331.304Z" fill="#FFF0E5" class="beije" fill-rule="evenodd"/><path d="M589 544.208C546.449 544.208 511.954 578.813 511.954 621.5 511.954 664.187 546.449 698.792 589 698.792 631.551 698.792 666.046 664.187 666.046 621.5 666.046 578.813 631.551 544.208 589 544.208ZM555.766 464 622.234 464 622.234 488.381 629.718 490.312C635.078 491.984 640.296 493.978 645.351 496.271L659.415 503.712 676.516 486.556 723.516 533.705 706.414 550.861 713.832 564.97C716.117 570.041 718.105 575.276 719.772 580.652L721.696 588.16 746 588.16 746 654.84 721.696 654.84 719.772 662.348C718.105 667.724 716.117 672.959 713.832 678.03L706.414 692.139 723.516 709.295 676.516 756.444 659.414 739.288 645.351 746.73C640.296 749.022 635.078 751.016 629.718 752.688L622.234 754.619 622.234 779 555.766 779 555.766 754.619 548.282 752.688C542.922 751.016 537.704 749.022 532.649 746.73L518.586 739.288 501.484 756.444 454.485 709.295 471.586 692.139 464.168 678.03C461.883 672.959 459.895 667.724 458.228 662.348L456.304 654.84 432 654.84 432 588.16 456.304 588.16 458.228 580.652C459.895 575.276 461.883 570.041 464.168 564.97L471.586 550.861 454.485 533.705 501.484 486.556 518.586 503.712 532.649 496.271C537.704 493.978 542.922 491.984 548.282 490.312L555.766 488.381Z" fill="#E9FE90" class="yellow" fill-rule="evenodd"/><path d="M358 823 375 679 392 823Z" fill="#E9FE90" class="yellow" fill-rule="evenodd"/><path d="M261.394 780.979 361.471 676.122 288.462 801.342Z" fill="#FFF0E5" class="beije" fill-rule="evenodd"/><path d="M205.716 686.41 349.151 665.51 214.483 719.128Z" fill="#E9FE90" class="yellow" fill-rule="evenodd"/><path d="M553 263 536 407 519 263Z" fill="#FFF0E5" class="beije" fill-rule="evenodd"/><path d="M649.419 304.899 549.342 409.756 622.351 284.536Z" fill="#E9FE90" class="yellow" fill-rule="evenodd"/><path d="M705.097 399.468 561.662 420.368 696.33 366.75Z" fill="#FFF0E5" class="beije" fill-rule="evenodd"/></g></svg>