<svg width="915" height="914" xmlns="http://www.w3.org/2000/svg" xmlns:xlink="http://www.w3.org/1999/xlink" overflow="hidden"><defs><clipPath id="clip0"><path d="M974 47 1889 47 1889 961 974 961Z" fill-rule="evenodd" clip-rule="evenodd"/></clipPath><radialGradient cx="0.25" cy="0.25" r="4.86227e+06" fx="0" fy="0" gradientUnits="userSpaceOnUse" spreadMethod="pad" id="fill1" gradientTransform="matrix(0.000164042 0 0 0.000164042 1148 261)"><stop offset="0" stop-color="#002060" class="darkblue"/><stop offset="0.49" stop-color="#1A00DA" class="blue"/><stop offset="0.67" stop-color="#0098F6" class="lightblue"/><stop offset="0.79" stop-color="#0CFCBD" class="turquoise"/><stop offset="0.85" stop-color="#5DFF61"/><stop offset="0.91" stop-color="#E9FE90" class="yellow"/><stop offset="0.96" stop-color="#FFF9C8" class="lightyellow"/><stop offset="1" stop-color="#FFF9C8" class="lightyellow"/></radialGradient></defs><g clip-path="url(#clip0)" transform="translate(-974 -47)"><rect x="976" y="48" width="912" height="912" fill="#F2F2F2"/><rect x="1148" y="261" width="564" height="564" fill="url(#fill1)"/><rect x="1353" y="615" width="359" height="76" fill="#002060" class="darkblue"/><path d="M1119.13 363.121 1399.88 643.878 1352.87 690.894 1072.11 410.138Z" fill="#002060" class="darkblue" fill-rule="evenodd"/><rect x="1509" y="441" width="77" height="384" fill="#002060" class="darkblue"/><path d="M1306.47 163.045 1585.55 442.127 1542.62 485.057 1263.54 205.976Z" fill="#002060" class="darkblue" fill-rule="evenodd"/><rect x="1235" y="332" width="401" height="37" fill="#002060" class="darkblue"/><rect x="1233" y="331" width="61" height="458" fill="#002060" class="darkblue"/><rect x="1343" y="605" width="396" height="76" fill="#F2F2F2"/><path d="M1109.1 352.772 1389.86 633.528 1342.59 680.793 1061.84 400.036Z" fill="#F2F2F2" fill-rule="evenodd"/><rect x="1499" y="431" width="77" height="403" fill="#F2F2F2"/><path d="M1296.44 152.696 1575.53 431.778 1528.06 479.239 1248.98 200.157Z" fill="#F2F2F2" fill-rule="evenodd"/><rect x="1225" y="321" width="423" height="38" fill="#F2F2F2"/><rect x="1223" y="321" width="61" height="458" fill="#F2F2F2"/><path d="M1726 257 1726 455 1525 257Z" fill="#F2F2F2" fill-rule="evenodd"/><path d="M1147 828 1147 630 1349 828Z" fill="#F2F2F2" fill-rule="evenodd"/><path d="M1529.69 331.231C1558.81 331.231 1582.42 307.622 1582.42 278.5 1582.42 249.378 1558.81 225.769 1529.69 225.769 1500.57 225.769 1476.96 249.378 1476.96 278.5L1476.96 331.231ZM1528.5 369 1438 369 1438 278.5C1438 228.518 1478.52 188 1528.5 188 1578.48 188 1619 228.518 1619 278.5L1619 278.5C1619 328.482 1578.48 369 1528.5 369Z" fill="#002060" class="darkblue" fill-rule="evenodd"/><path d="M89.3086 37.7692C60.1864 37.7692 36.578 61.3776 36.578 90.5 36.578 119.622 60.1864 143.231 89.3086 143.231 118.431 143.231 142.039 119.622 142.039 90.5L142.039 37.7692ZM90.5002 0 181 0 181 90.5C181 140.482 140.482 181 90.5 181 40.5182 181 0 140.482 0 90.5L0.000203343 90.5C0.000203343 40.5182 40.5184 0 90.5002 0Z" fill="#002060" class="darkblue" fill-rule="evenodd" transform="matrix(1 -0 -0 -1 1260 369)"/><path d="M1517.69 322.022C1546.81 322.022 1570.42 298.283 1570.42 269 1570.42 239.717 1546.81 215.978 1517.69 215.978 1488.57 215.978 1464.96 239.717 1464.96 269L1464.96 322.022ZM1516.5 360 1426 360 1426 269C1426 218.742 1466.52 178 1516.5 178 1566.48 178 1607 218.742 1607 269L1607 269C1607 319.258 1566.48 360 1516.5 360Z" fill="#F2F2F2" fill-rule="evenodd"/><path d="M89.802 37.9779C60.5189 37.9779 36.7801 61.7167 36.7801 91 36.7801 120.283 60.5189 144.022 89.802 144.022 119.085 144.022 142.824 120.283 142.824 91L142.824 37.9779ZM91.0002 0 182 0 182 91C182 141.258 141.258 182 91 182 40.7421 182 0 141.258 0 91L0.000204467 91C0.000204467 40.7421 40.7423 0 91.0002 0Z" fill="#F2F2F2" fill-rule="evenodd" transform="matrix(1 -0 -0 -1 1247 360)"/><path d="M1482 371 1482 339 1515 371Z" fill="#F2F2F2" fill-rule="evenodd"/><rect x="1418" y="353" width="76" height="17" fill="#F2F2F2"/><path d="M1427 346 1427 379 1395 346Z" fill="#F2F2F2" fill-rule="evenodd"/></g></svg>