<svg width="1127" height="1127" xmlns="http://www.w3.org/2000/svg" xmlns:xlink="http://www.w3.org/1999/xlink" overflow="hidden"><defs><clipPath id="clip0"><path d="M-1-1 1126-1 1126 1126-1 1126Z" fill-rule="evenodd" clip-rule="evenodd"/></clipPath><radialGradient cx="0" cy="0" r="6.00456e+06" gradientUnits="userSpaceOnUse" spreadMethod="pad" id="fill1" gradientTransform="matrix(0.000164042 0 0 0.000164042 213 262)"><stop offset="0" stop-color="#002060"/><stop offset="0.49" stop-color="#1A00DA"/><stop offset="0.67" stop-color="#0098F6"/><stop offset="0.79" stop-color="#0CFCBD"/><stop offset="0.85" stop-color="#5DFF61"/><stop offset="0.91" stop-color="#E9FE90"/><stop offset="0.96" stop-color="#FFF9C8"/><stop offset="1" stop-color="#FFF9C8"/></radialGradient></defs><g clip-path="url(#clip0)" transform="translate(1 1)"><rect x="0" y="0" width="1125" height="1125" fill="#F2F2F2"/><rect x="213" y="262" width="696" height="697" fill="url(#fill1)"/><rect x="466" y="700" width="443" height="93" fill="#002060"/><path d="M177.044 388.363 523.314 734.633 465.326 792.621 119.056 446.351Z" fill="#002060" fill-rule="evenodd"/><rect x="658" y="485" width="95" height="474" fill="#002060"/><path d="M408.104 141.601 752.308 485.805 699.359 538.753 355.156 194.549Z" fill="#002060" fill-rule="evenodd"/><rect x="321" y="349" width="493" height="47" fill="#002060"/><rect x="317" y="349" width="76" height="565" fill="#002060"/><rect x="454" y="687" width="487" height="93" fill="#F2F2F2"/><path d="M164.678 375.599 510.948 721.869 452.655 780.162 106.385 433.892Z" fill="#F2F2F2" fill-rule="evenodd"/><rect x="646" y="472" width="95" height="498" fill="#F2F2F2"/><path d="M395.738 128.837 739.942 473.041 681.406 531.577 337.202 187.373Z" fill="#F2F2F2" fill-rule="evenodd"/><rect x="308" y="337" width="522" height="46" fill="#F2F2F2"/><rect x="305" y="336" width="76" height="565" fill="#F2F2F2"/><path d="M926 258 926 502 678 258Z" fill="#F2F2F2" fill-rule="evenodd"/><path d="M212 962 212 718 460 962Z" fill="#F2F2F2" fill-rule="evenodd"/><path d="M683.474 349.258C719.515 349.258 748.732 320.041 748.732 284 748.732 247.959 719.515 218.742 683.474 218.742 647.434 218.742 618.217 247.959 618.217 284L618.217 349.258ZM682 396 570 396 570 284C570 222.144 620.144 172 682 172 743.856 172 794 222.144 794 284L794 284C794 345.856 743.856 396 682 396Z" fill="#002060" fill-rule="evenodd"/><path d="M110.526 46.742C74.4848 46.742 45.2678 75.959 45.2678 112 45.2678 148.041 74.4848 177.258 110.526 177.258 146.566 177.258 175.783 148.041 175.783 112L175.783 46.742ZM112 0 224 0 224 112C224 173.856 173.856 224 112 224 50.1441 224 0 173.856 0 112L0.000251651 112C0.000251651 50.1441 50.1443 0 112 0Z" fill="#002060" fill-rule="evenodd" transform="matrix(1 -0 -0 -1 350 396)"/><path d="M668.474 337.258C704.515 337.258 733.732 308.041 733.732 272 733.732 235.959 704.515 206.742 668.474 206.742 632.434 206.742 603.217 235.959 603.217 272L603.217 337.258ZM667 384 555 384 555 272C555 210.144 605.144 160 667 160 728.856 160 779 210.144 779 272L779 272C779 333.856 728.856 384 667 384Z" fill="#F2F2F2" fill-rule="evenodd"/><path d="M110.526 46.742C74.4848 46.742 45.2678 75.959 45.2678 112 45.2678 148.041 74.4848 177.258 110.526 177.258 146.566 177.258 175.783 148.041 175.783 112L175.783 46.742ZM112 0 224 0 224 112C224 173.856 173.856 224 112 224 50.1441 224 0 173.856 0 112L0.000251651 112C0.000251651 50.1441 50.1443 0 112 0Z" fill="#F2F2F2" fill-rule="evenodd" transform="matrix(1 -0 -0 -1 335 384)"/><path d="M625 399 625 359 665 399Z" fill="#F2F2F2" fill-rule="evenodd"/><rect x="546" y="376" width="93" height="21" fill="#F2F2F2"/><path d="M557 368 557 407 517 368Z" fill="#F2F2F2" fill-rule="evenodd"/></g></svg>