<svg width="1127" height="1127" xmlns="http://www.w3.org/2000/svg" xmlns:xlink="http://www.w3.org/1999/xlink" overflow="hidden"><defs><clipPath id="clip0"><path d="M-1-1 1126-1 1126 1126-1 1126Z" fill-rule="evenodd" clip-rule="evenodd"/></clipPath></defs><g clip-path="url(#clip0)" transform="translate(1 1)"><rect x="0" y="0" width="1125" height="1125" fill="#FFF0E5"/><path d="M271 832C271 756.889 331.889 696 407 696 482.111 696 543 756.889 543 832 543 907.111 482.111 968 407 968 331.889 968 271 907.111 271 832Z" fill="#5DFF61" fill-rule="evenodd"/><path d="M426.595 547C565.995 547 679 659.928 679 799.231 679 842.764 667.964 883.72 648.536 919.46L646.992 922 650.224 909.437C653.698 892.47 655.523 874.904 655.523 856.911 655.523 712.968 538.754 596.279 394.712 596.279 322.691 596.279 257.489 625.451 210.291 672.616L205 678.434 217.297 658.206C262.656 591.112 339.471 547 426.595 547Z" fill="#5DFF61" fill-rule="evenodd"/><path d="M481.863 378C668.611 378 820 529.474 820 716.326 820 774.718 805.216 829.654 779.189 877.592L777.12 881 781.45 864.149C786.104 841.391 788.549 817.828 788.549 793.693 788.549 600.618 632.118 444.1 439.15 444.1 342.667 444.1 255.317 483.229 192.088 546.493L185 554.297 201.474 527.165C262.24 437.169 365.145 378 481.863 378Z" fill="#5DFF61" fill-rule="evenodd"/><path d="M542.403 209C778.558 209 970 400.525 970 636.784 970 710.615 951.304 780.077 918.391 840.691L915.775 845 921.251 823.693C927.137 794.918 930.228 765.124 930.228 734.608 930.228 490.481 732.41 292.578 488.39 292.578 366.38 292.578 255.921 342.054 175.964 422.045L167 431.912 187.833 397.606C264.675 283.815 394.806 209 542.403 209Z" fill="#5DFF61" fill-rule="evenodd"/><path d="M296 831C296 770.801 344.801 722 405 722 465.199 722 514 770.801 514 831 514 891.199 465.199 940 405 940 344.801 940 296 891.199 296 831Z" fill="#0098F6" fill-rule="evenodd"/><path d="M447.595 519C586.995 519 700 631.928 700 771.231 700 814.764 688.964 855.72 669.536 891.46L667.992 894 671.224 881.437C674.698 864.47 676.523 846.904 676.523 828.911 676.523 684.968 559.754 568.279 415.712 568.279 343.691 568.279 278.489 597.451 231.291 644.616L226 650.434 238.297 630.206C283.656 563.112 360.471 519 447.595 519Z" fill="#0098F6" fill-rule="evenodd"/><path d="M502.395 350C688.849 350 840 501.474 840 688.326 840 746.718 825.239 801.654 799.253 849.592L797.187 853 801.511 836.149C806.158 813.391 808.598 789.828 808.598 765.693 808.598 572.618 652.414 416.1 459.75 416.1 363.418 416.1 276.206 455.229 213.077 518.493L206 526.297 222.448 499.165C283.118 409.169 385.861 350 502.395 350Z" fill="#0098F6" fill-rule="evenodd"/><path d="M563.403 181C799.558 181 991 372.525 991 608.784 991 682.615 972.304 752.077 939.391 812.691L936.775 817 942.251 795.693C948.137 766.918 951.228 737.124 951.228 706.608 951.228 462.481 753.41 264.578 509.39 264.578 387.38 264.578 276.921 314.054 196.964 394.045L188 403.912 208.833 369.606C285.675 255.815 415.806 181 563.403 181Z" fill="#0098F6" fill-rule="evenodd"/></g></svg>