<svg width="695" height="695" xmlns="http://www.w3.org/2000/svg" xmlns:xlink="http://www.w3.org/1999/xlink" overflow="hidden"><defs><clipPath id="clip0"><path d="M1171 91 1866 91 1866 786 1171 786Z" fill-rule="evenodd" clip-rule="evenodd"/></clipPath></defs><g clip-path="url(#clip0)" transform="translate(-1171 -91)"><rect x="1173" y="93" width="692" height="692" fill="#FFF0E5" class="beije"/><path d="M1339 604.5C1339 558.384 1376.61 521 1423 521 1469.39 521 1507 558.384 1507 604.5 1507 650.616 1469.39 688 1423 688 1376.61 688 1339 650.616 1339 604.5Z" fill="#5DFF61" fill-rule="evenodd"/><path d="M1435.04 429C1520.62 429 1590 498.564 1590 584.374 1590 611.19 1583.22 636.42 1571.3 658.435L1570.35 660 1572.33 652.261C1574.47 641.81 1575.59 630.989 1575.59 619.905 1575.59 531.236 1503.9 459.356 1415.47 459.356 1371.25 459.356 1331.22 477.326 1302.25 506.38L1299 509.963 1306.55 497.503C1334.4 456.173 1381.55 429 1435.04 429Z" fill="#5DFF61" fill-rule="evenodd"/><path d="M1468.79 325C1583.78 325 1677 418.354 1677 533.511 1677 569.498 1667.9 603.355 1651.87 632.9L1650.6 635 1653.26 624.615C1656.13 610.589 1657.63 596.067 1657.63 581.193 1657.63 462.2 1561.31 365.738 1442.49 365.738 1383.08 365.738 1329.3 389.853 1290.36 428.843L1286 433.652 1296.14 416.931C1333.56 361.466 1396.92 325 1468.79 325Z" fill="#5DFF61" fill-rule="evenodd"/><path d="M1506.41 221C1651.99 221 1770 339.047 1770 484.666 1770 530.172 1758.48 572.985 1738.19 610.344L1736.57 613 1739.95 599.867C1743.58 582.132 1745.48 563.768 1745.48 544.96 1745.48 394.492 1623.54 272.513 1473.12 272.513 1397.91 272.513 1329.81 303.008 1280.53 352.311L1275 358.393 1287.84 337.248C1335.21 267.112 1415.43 221 1506.41 221Z" fill="#5DFF61" fill-rule="evenodd"/><path d="M1355 604C1355 566.997 1385 537 1422 537 1459 537 1489 566.997 1489 604 1489 641.003 1459 671 1422 671 1385 671 1355 641.003 1355 604Z" fill="#0098F6" class="lightblue" fill-rule="evenodd"/><path d="M1447.51 412C1533.38 412 1603 481.564 1603 567.374 1603 594.19 1596.2 619.42 1584.23 641.435L1583.28 643 1585.27 635.261C1587.41 624.81 1588.54 613.989 1588.54 602.905 1588.54 514.236 1516.6 442.356 1427.87 442.356 1383.5 442.356 1343.33 460.326 1314.26 489.38L1311 492.963 1318.58 480.503C1346.52 439.173 1393.84 412 1447.51 412Z" fill="#0098F6" class="lightblue" fill-rule="evenodd"/><path d="M1481.79 308C1596.78 308 1690 401.052 1690 515.839 1690 551.709 1680.9 585.457 1664.87 614.907L1663.6 617 1666.26 606.648C1669.13 592.668 1670.63 578.193 1670.63 563.366 1670.63 444.758 1574.31 348.606 1455.49 348.606 1396.08 348.606 1342.3 372.644 1303.36 411.508L1299 416.302 1309.14 399.634C1346.56 344.349 1409.92 308 1481.79 308Z" fill="#0098F6" class="lightblue" fill-rule="evenodd"/><path d="M1518.95 204C1664.23 204 1782 321.746 1782 466.993 1782 512.383 1770.5 555.087 1750.25 592.351L1748.64 595 1752.01 581.901C1755.63 564.21 1757.53 545.894 1757.53 527.133 1757.53 377.049 1635.84 255.382 1485.72 255.382 1410.66 255.382 1342.7 285.799 1293.51 334.976L1288 341.042 1300.82 319.951C1348.09 249.995 1428.14 204 1518.95 204Z" fill="#0098F6" class="lightblue" fill-rule="evenodd"/></g></svg>